SplineFontDB: 3.2
FontName: linjawawa
FullName: linja wawa
FamilyName: linja wawa
Weight: Book
Copyright: u/just-a-melon & u/ElemenopiTheSequel (2021)
Version: 001.210
ItalicAngle: 0
UnderlinePosition: -100
UnderlineWidth: 50
Ascent: 800
Descent: 200
InvalidEm: 0
sfntRevision: 0x00010000
LayerCount: 2
Layer: 0 0 "Back" 1
Layer: 1 0 "Fore" 0
XUID: [1021 16 1011222284 7536]
StyleMap: 0x0040
FSType: 0
OS2Version: 4
OS2_WeightWidthSlopeOnly: 0
OS2_UseTypoMetrics: 0
CreationTime: 1637737130
ModificationTime: 1638583497
PfmFamily: 17
TTFWeight: 400
TTFWidth: 5
LineGap: 90
VLineGap: 0
Panose: 2 0 5 3 0 0 0 0 0 0
OS2TypoAscent: 800
OS2TypoAOffset: 0
OS2TypoDescent: -200
OS2TypoDOffset: 0
OS2TypoLinegap: 90
OS2WinAscent: 800
OS2WinAOffset: 0
OS2WinDescent: 200
OS2WinDOffset: 0
HheadAscent: 800
HheadAOffset: 0
HheadDescent: -200
HheadDOffset: 0
OS2SubXSize: 650
OS2SubYSize: 700
OS2SubXOff: 0
OS2SubYOff: 140
OS2SupXSize: 650
OS2SupYSize: 700
OS2SupXOff: 0
OS2SupYOff: 480
OS2StrikeYSize: 49
OS2StrikeYPos: 258
OS2CapHeight: 625
OS2XHeight: 476
OS2Vendor: 'CLGR'
OS2CodePages: 00000001.00000000
OS2UnicodeRanges: 00000003.00000000.00000000.00000000
Lookup: 4 0 1 "'liga' Standard Ligatures in Latin lookup 0" { "'liga' Standard Ligatures in Latin lookup 0 subtable"  } ['liga' ('DFLT' <'dflt' > 'latn' <'dflt' > ) ]
Lookup: 258 0 0 "'kern' Horizontal Kerning in Latin lookup 0" { "'kern' Horizontal Kerning in Latin lookup 0 subtable"  } ['kern' ('DFLT' <'dflt' > 'latn' <'dflt' > ) ]
MarkAttachClasses: 1
DEI: 91125
LangName: 1033 "" "" "Regular" "linja wawa 001.210" "" "Version 001.210" "" "" "u/just-a-melon" "u/ElemenopiTheSequel" "linja wawa is a sitelen pona font" "https://github.com/janMelon/linjawawa" "https://www.reddit.com/user/ElemenopiTheSequel" "SIL Open Font License, Version 1.1." "http://scripts.sil.org/OFL" "" "linja wawa" "Regular"
Encoding: UnicodeBmp
UnicodeInterp: none
NameList: AGL For New Fonts
DisplaySize: -48
AntiAlias: 1
FitToEm: 0
WinInfo: 54 27 9
BeginPrivate: 3

StartChar: .notdef
Encoding: 65536 -1 0
Width: 364
Flags: W
LayerCount: 2
Fore
SplineSet
33 0 m 1
 33 666 l 1
 298 666 l 1
 298 0 l 1
 33 0 l 1
66 33 m 1
 265 33 l 1
 265 633 l 1
 66 633 l 1
 66 33 l 1
EndSplineSet
EndChar

StartChar: exclam
Encoding: 33 33 4
Width: 213
GlyphClass: 2
Flags: W
LayerCount: 2
Fore
SplineSet
61 668 m 0
 68.3330078125 673.333007812 83.666015625 676 106.999023438 676 c 2
 126.999023438 676 l 2
 140.999023438 676 150.166015625 672.333007812 154.499023438 665 c 0
 158.83203125 657.666992188 160.999023438 639 160.999023438 609 c 0
 160.999023438 601.666992188 159.666015625 554.666992188 156.999023438 468 c 0
 154.33203125 382 152.33203125 328.333007812 150.999023438 307 c 0
 149.666015625 285.666992188 147.333007812 273.666992188 144 271 c 0
 138 266.333007812 125.666992188 264 107 264 c 0
 88.3330078125 264 76 266.333007812 70 271 c 0
 64.6669921875 275 60 340.666992188 56 468 c 0
 53.3330078125 540 52 591.666992188 52 623 c 0
 52 647.666992188 55 662.666992188 61 668 c 0
50 158 m 0
 50 183.333007812 53.3330078125 200.331054688 60 208.998046875 c 0
 66.6669921875 217.665039062 79.6669921875 221.998046875 99 221.998046875 c 0
 100.333007812 221.998046875 102.666015625 221.831054688 105.999023438 221.498046875 c 0
 109.33203125 221.165039062 111.999023438 220.998046875 113.999023438 220.998046875 c 0
 133.999023438 219.665039062 147.166015625 215.33203125 153.499023438 207.999023438 c 0
 159.83203125 200.666015625 162.999023438 185.666015625 162.999023438 162.999023438 c 0
 162.999023438 138.999023438 159.666015625 123.666015625 152.999023438 116.999023438 c 0
 146.33203125 110.33203125 130.999023438 106.999023438 106.999023438 106.999023438 c 0
 83.666015625 106.999023438 68.3330078125 110.33203125 61 116.999023438 c 0
 53.6669921875 123.666015625 50 137.333007812 50 158 c 0
EndSplineSet
EndChar

StartChar: quotedbl
Encoding: 34 34 5
Width: 343
GlyphClass: 2
Flags: W
LayerCount: 2
Fore
SplineSet
56 675 m 0
 60.6669921875 679 75.6669921875 681.000976562 101 681.000976562 c 0
 117.666992188 681.000976562 128.333984375 679.66796875 133.000976562 677.000976562 c 0
 137.000976562 673.66796875 139.000976562 661.66796875 139.000976562 641.000976562 c 0
 139.000976562 636.333984375 138.333984375 615.333984375 137.000976562 578.000976562 c 0
 134.333984375 515.333984375 131.333984375 481.666992188 128.000976562 477 c 0
 123.333984375 472.333007812 112.666992188 470 96 470 c 0
 78.6669921875 470 67.6669921875 472.333007812 63 477 c 0
 60.3330078125 479.666992188 57 512.666992188 53 576 c 0
 51 610 50 633.333007812 50 646 c 0
 50 661.333007812 52 671 56 675 c 0
210 675.000976562 m 0
 216.666992188 679.66796875 229.331054688 682 247.998046875 682 c 0
 266.665039062 682 279.33203125 679.666992188 285.999023438 675 c 0
 290.666015625 671 292.999023438 662 292.999023438 648 c 0
 292.999023438 636.666992188 291.999023438 612 289.999023438 574 c 0
 286.666015625 511.333007812 282.666015625 478.333007812 277.999023438 475 c 0
 272.666015625 471.666992188 263.333007812 470 250 470 c 0
 231.333007812 470 220.333007812 472.333007812 217 477 c 0
 213 481.666992188 209.333007812 514.666992188 206 576 c 0
 204 610.666992188 203 634.333984375 203 647.000976562 c 0
 203 661.66796875 205.333007812 671.000976562 210 675.000976562 c 0
EndSplineSet
EndChar

StartChar: numbersign
Encoding: 35 35 6
Width: 499
GlyphClass: 2
Flags: W
LayerCount: 2
Fore
SplineSet
301 421 m 2
 304 437 l 1
 211 437 l 1
 207 400 l 2
 203.666992188 365.333007812 201.666992188 346.333007812 201 343 c 2
 198 323 l 1
 242 323 l 1
 252 323 l 2
 271.333007812 323 282.5 325 285.5 329 c 0
 288.5 333 291.666992188 347.666992188 295 373 c 0
 298.333007812 403 300.333007812 419 301 421 c 2
162 634 m 0
 167.333007812 637.333007812 180.002929688 638.99609375 200.002929688 638.99609375 c 0
 215.3359375 638.99609375 225.3359375 637.663085938 230.002929688 634.99609375 c 0
 233.3359375 632.99609375 235.002929688 628.329101562 235.002929688 620.99609375 c 0
 235.002929688 620.329101562 233.669921875 607.329101562 231.002929688 581.99609375 c 0
 229.669921875 575.329101562 228.502929688 566.829101562 227.502929688 556.49609375 c 0
 226.502929688 546.163085938 225.502929688 537.99609375 224.502929688 531.99609375 c 0
 223.502929688 525.99609375 222.669921875 521.663085938 222.002929688 518.99609375 c 2
 219.002929688 504.99609375 l 1
 311.002929688 504.99609375 l 1
 317.002929688 565.99609375 l 2
 321.669921875 605.99609375 326.669921875 628.329101562 332.002929688 632.99609375 c 0
 338.002929688 636.99609375 351.3359375 638.99609375 372.002929688 638.99609375 c 0
 387.3359375 638.99609375 396.668945312 637.663085938 400.001953125 634.99609375 c 0
 402.668945312 632.99609375 404.001953125 627.663085938 404.001953125 618.99609375 c 0
 404.001953125 608.329101562 400.334960938 576.662109375 393.001953125 523.995117188 c 2
 390.001953125 504.995117188 l 1
 415.001953125 503.995117188 l 2
 423.001953125 503.328125 428.668945312 502.495117188 432.001953125 501.495117188 c 0
 435.334960938 500.495117188 437.834960938 498.995117188 439.501953125 496.995117188 c 0
 441.168945312 494.995117188 442.668945312 491.662109375 444.001953125 486.995117188 c 0
 445.334960938 481.662109375 446.001953125 476.329101562 446.001953125 470.99609375 c 0
 446.001953125 465.663085938 445.334960938 460.330078125 444.001953125 454.997070312 c 0
 442.001953125 447.6640625 439.334960938 443.1640625 436.001953125 441.497070312 c 0
 432.668945312 439.830078125 424.3359375 438.330078125 411.002929688 436.997070312 c 2
 383.002929688 434.997070312 l 1
 377.002929688 387.997070312 l 2
 373.002929688 360.6640625 371.002929688 343.331054688 371.002929688 335.998046875 c 0
 371.002929688 329.331054688 372.3359375 325.498046875 375.002929688 324.498046875 c 0
 377.669921875 323.498046875 384.002929688 322.665039062 394.002929688 321.998046875 c 0
 404.669921875 320.665039062 411.669921875 319.33203125 415.002929688 317.999023438 c 0
 418.3359375 316.666015625 420.668945312 312.999023438 422.001953125 306.999023438 c 0
 424.668945312 298.33203125 424.668945312 287.999023438 422.001953125 275.999023438 c 0
 420.001953125 267.33203125 417.668945312 262.165039062 415.001953125 260.498046875 c 0
 412.334960938 258.831054688 404.001953125 257.6640625 390.001953125 256.997070312 c 2
 361.001953125 254.997070312 l 1
 355.001953125 202.997070312 l 2
 351.001953125 162.997070312 347.168945312 138.497070312 343.501953125 129.497070312 c 0
 339.834960938 120.497070312 330.66796875 115.997070312 316.000976562 115.997070312 c 0
 307.333984375 115.997070312 300.000976562 116.330078125 294.000976562 116.997070312 c 2
 269.000976562 118.997070312 l 1
 269.000976562 144.997070312 l 2
 271.000976562 171.6640625 272.66796875 194.331054688 274.000976562 212.998046875 c 2
 278.000976562 255.998046875 l 1
 233.000976562 255.998046875 l 2
 213.66796875 255.998046875 201.500976562 255.498046875 196.500976562 254.498046875 c 0
 191.500976562 253.498046875 189.000976562 250.998046875 189.000976562 246.998046875 c 0
 188.333984375 229.665039062 185.166992188 204.83203125 179.5 172.499023438 c 0
 173.833007812 140.166015625 169.666015625 122.999023438 166.999023438 120.999023438 c 0
 162.999023438 118.33203125 153.33203125 116.999023438 137.999023438 116.999023438 c 2
 128.999023438 116.999023438 l 1
 97.9990234375 118.999023438 l 1
 97.9990234375 144.999023438 l 2
 97.9990234375 163.666015625 99.666015625 186.333007812 102.999023438 213 c 2
 106.999023438 256 l 1
 85.9990234375 256 l 2
 64.666015625 256 53.9990234375 267.333007812 53.9990234375 290 c 0
 53.9990234375 302.666992188 56.4990234375 311.333984375 61.4990234375 316.000976562 c 0
 66.4990234375 320.66796875 75.9990234375 323.000976562 89.9990234375 323.000976562 c 0
 103.999023438 323.000976562 112.499023438 325.16796875 115.499023438 329.500976562 c 0
 118.499023438 333.833984375 121.33203125 348.333984375 123.999023438 373.000976562 c 0
 127.33203125 403.000976562 129.33203125 419.000976562 129.999023438 421.000976562 c 2
 132.999023438 437.000976562 l 1
 109.999023438 437.000976562 l 2
 95.9990234375 437.000976562 86.666015625 439.333984375 81.9990234375 444.000976562 c 0
 77.33203125 448.66796875 74.9990234375 457.66796875 74.9990234375 471.000976562 c 0
 74.9990234375 485.000976562 77.33203125 494.16796875 81.9990234375 498.500976562 c 0
 86.666015625 502.833984375 97.3330078125 505.000976562 114 505.000976562 c 2
 141 505.000976562 l 1
 147 567.000976562 l 2
 151 608.333984375 156 630.666992188 162 634 c 0
EndSplineSet
EndChar

StartChar: dollar
Encoding: 36 36 7
Width: 451
GlyphClass: 2
Flags: W
LayerCount: 2
Fore
SplineSet
216 726 m 0
 218.666992188 730 228.665039062 732.00390625 245.998046875 732.00390625 c 0
 265.998046875 732.00390625 277.998046875 729.670898438 281.998046875 725.00390625 c 0
 284.665039062 721.00390625 285.998046875 714.336914062 285.998046875 705.00390625 c 0
 285.998046875 702.336914062 285.331054688 693.669921875 283.998046875 679.002929688 c 2
 278.998046875 640.002929688 l 1
 303.998046875 634.002929688 l 2
 322.665039062 630.002929688 336.998046875 626.002929688 346.998046875 622.002929688 c 0
 354.998046875 618.669921875 360.165039062 615.169921875 362.498046875 611.502929688 c 0
 364.831054688 607.8359375 366.6640625 600.3359375 367.997070312 589.002929688 c 0
 368.6640625 585.002929688 368.997070312 579.002929688 368.997070312 571.002929688 c 0
 368.997070312 546.3359375 363.6640625 534.002929688 352.997070312 534.002929688 c 2
 351.997070312 534.002929688 l 2
 342.6640625 536.002929688 327.331054688 540.669921875 305.998046875 548.002929688 c 0
 281.998046875 556.669921875 258.998046875 561.002929688 236.998046875 561.002929688 c 0
 214.331054688 561.002929688 196.331054688 556.002929688 182.998046875 546.002929688 c 0
 169.665039062 536.002929688 162.998046875 521.669921875 162.998046875 503.002929688 c 0
 162.998046875 487.669921875 169.831054688 474.669921875 183.498046875 464.002929688 c 0
 197.165039062 453.3359375 223.33203125 440.3359375 261.999023438 425.002929688 c 0
 299.33203125 410.3359375 326.165039062 397.002929688 342.498046875 385.002929688 c 0
 358.831054688 373.002929688 371.998046875 357.669921875 381.998046875 339.002929688 c 0
 391.998046875 320.3359375 396.998046875 298.668945312 396.998046875 274.001953125 c 0
 396.998046875 250.668945312 392.665039062 230.001953125 383.998046875 212.001953125 c 0
 360.665039062 162.001953125 315.33203125 131.001953125 247.999023438 119.001953125 c 2
 225.999023438 115.001953125 l 1
 222.999023438 82.001953125 l 2
 221.666015625 67.3349609375 220.999023438 57.66796875 220.999023438 53.0009765625 c 0
 220.999023438 47.66796875 221.33203125 44.66796875 221.999023438 44.0009765625 c 0
 223.999023438 40.66796875 223.33203125 35.3349609375 219.999023438 28.001953125 c 0
 215.999023438 21.3349609375 204.999023438 18.001953125 186.999023438 18.001953125 c 0
 171.666015625 18.001953125 161.666015625 19.6689453125 156.999023438 23.001953125 c 0
 152.33203125 26.3349609375 149.999023438 34.66796875 149.999023438 48.0009765625 c 0
 149.999023438 58.66796875 150.33203125 67.3349609375 150.999023438 74.001953125 c 2
 154.999023438 115.001953125 l 1
 117.999023438 126.001953125 l 2
 92.666015625 133.334960938 75.666015625 141.001953125 66.9990234375 149.001953125 c 0
 60.33203125 154.334960938 56.1650390625 159.66796875 54.498046875 165.000976562 c 0
 52.8310546875 170.333984375 51.998046875 180.666992188 51.998046875 196 c 0
 51.998046875 224 56.3310546875 238 64.998046875 238 c 0
 70.998046875 238 83.6650390625 233 102.998046875 223 c 0
 128.331054688 210.333007812 152.998046875 203 176.998046875 201 c 0
 181.665039062 200.333007812 188.33203125 200 196.999023438 200 c 0
 252.33203125 200 281.999023438 218.666992188 285.999023438 256 c 0
 285.999023438 257.333007812 286.166015625 259 286.499023438 261 c 0
 286.83203125 263 286.999023438 264.333007812 286.999023438 265 c 0
 286.999023438 281 280.499023438 294.166992188 267.499023438 304.5 c 0
 254.499023438 314.833007812 229.666015625 327 192.999023438 341 c 0
 156.33203125 354.333007812 128.499023438 368.166015625 109.499023438 382.499023438 c 0
 90.4990234375 396.83203125 76.33203125 414.33203125 66.9990234375 434.999023438 c 0
 58.33203125 452.999023438 53.9990234375 472.33203125 53.9990234375 492.999023438 c 0
 53.9990234375 523.666015625 63.33203125 551.499023438 81.9990234375 576.499023438 c 0
 100.666015625 601.499023438 125.333007812 618.666015625 156 627.999023438 c 0
 179.333007812 635.33203125 193 638.999023438 197 638.999023438 c 0
 201.666992188 638.999023438 205 652.33203125 207 678.999023438 c 0
 209.666992188 705.666015625 212.666992188 721.333007812 216 726 c 0
EndSplineSet
EndChar

StartChar: percent
Encoding: 37 37 8
Width: 660
GlyphClass: 2
Flags: W
LayerCount: 2
Fore
SplineSet
487 644 m 0
 493 648.666992188 506.333007812 650.999023438 527 650.999023438 c 0
 549 650.999023438 560 646.666015625 560 637.999023438 c 0
 560 637.33203125 559.333007812 634.999023438 558 630.999023438 c 0
 552 617.666015625 487.166992188 527.333007812 363.5 360 c 0
 239.833007812 192.666992188 175.333007812 107.666992188 170 105 c 0
 162 101 149.666992188 99 133 99 c 0
 112.333007812 99 102 102 102 108 c 0
 102 117.333007812 163.666992188 206.333007812 287 375 c 0
 411 545 477.666992188 634.666992188 487 644 c 0
200 574.999023438 m 0
 191.333007812 584.33203125 182.33203125 588.997070312 172.999023438 588.997070312 c 0
 161.666015625 588.997070312 152.166015625 581.6640625 144.499023438 566.997070312 c 0
 136.83203125 552.330078125 132.999023438 533.330078125 132.999023438 509.997070312 c 0
 132.999023438 500.6640625 133.33203125 493.6640625 133.999023438 488.997070312 c 0
 137.999023438 448.997070312 150.999023438 428.997070312 172.999023438 428.997070312 c 0
 175.666015625 428.997070312 180.333007812 429.6640625 187 430.997070312 c 0
 197 433.6640625 203.833007812 440.331054688 207.5 450.998046875 c 0
 211.166992188 461.665039062 213 481.33203125 213 509.999023438 c 0
 213 533.33203125 212.333007812 548.499023438 211 555.499023438 c 0
 209.666992188 562.499023438 206 568.999023438 200 574.999023438 c 0
129.999023438 638.997070312 m 0
 139.33203125 642.330078125 154.33203125 643.99609375 174.999023438 643.99609375 c 0
 196.999023438 643.99609375 212.999023438 642.329101562 222.999023438 638.99609375 c 0
 236.33203125 634.99609375 249.165039062 626.663085938 261.498046875 613.99609375 c 0
 273.831054688 601.329101562 282.331054688 587.99609375 286.998046875 573.99609375 c 0
 291.665039062 556.663085938 293.998046875 535.663085938 293.998046875 510.99609375 c 0
 293.998046875 486.329101562 291.665039062 465.662109375 286.998046875 448.995117188 c 0
 282.331054688 434.328125 272.998046875 419.995117188 258.998046875 405.995117188 c 0
 244.998046875 391.995117188 230.998046875 382.662109375 216.998046875 377.995117188 c 0
 202.998046875 373.995117188 187.331054688 371.995117188 169.998046875 371.995117188 c 0
 153.331054688 371.995117188 138.998046875 373.995117188 126.998046875 377.995117188 c 0
 101.665039062 386.662109375 83.33203125 400.995117188 71.9990234375 420.995117188 c 0
 60.666015625 440.995117188 54.9990234375 469.328125 54.9990234375 505.995117188 c 0
 54.9990234375 536.662109375 58.9990234375 561.329101562 66.9990234375 579.99609375 c 0
 80.33203125 608.663085938 101.33203125 628.330078125 129.999023438 638.997070312 c 0
515.999023438 308.99609375 m 0
 507.999023438 319.663085938 498.666992188 324.998046875 488 324.998046875 c 0
 479.333007812 324.998046875 471.166015625 320.998046875 463.499023438 312.998046875 c 0
 455.83203125 304.998046875 450.999023438 294.331054688 448.999023438 280.998046875 c 0
 447.666015625 270.331054688 446.999023438 260.6640625 446.999023438 251.997070312 c 0
 446.999023438 215.997070312 450.666015625 192.6640625 457.999023438 181.997070312 c 0
 465.33203125 170.6640625 474.999023438 164.997070312 486.999023438 164.997070312 c 0
 505.666015625 164.997070312 517.999023438 174.6640625 523.999023438 193.997070312 c 0
 527.33203125 203.330078125 528.999023438 217.663085938 528.999023438 236.99609375 c 0
 528.999023438 272.99609375 524.666015625 296.99609375 515.999023438 308.99609375 c 0
440 373.998046875 m 0
 453.333007812 378.665039062 470.66796875 380.998046875 492.000976562 380.998046875 c 0
 511.333984375 380.998046875 526.333984375 379.331054688 537.000976562 375.998046875 c 0
 550.333984375 371.998046875 563.333984375 363.665039062 576.000976562 350.998046875 c 0
 588.66796875 338.331054688 597.000976562 325.331054688 601.000976562 311.998046875 c 0
 605.000976562 295.998046875 607.000976562 273.665039062 607.000976562 244.998046875 c 0
 607.000976562 192.331054688 593.000976562 155.331054688 565.000976562 133.998046875 c 0
 542.333984375 117.331054688 515.666992188 108.998046875 485 108.998046875 c 0
 449.666992188 108.998046875 421.666992188 119.331054688 401 139.998046875 c 0
 380.333007812 160.665039062 370 191.665039062 370 232.998046875 c 0
 370 234.998046875 370.166992188 238.498046875 370.5 243.498046875 c 0
 370.833007812 248.498046875 371 252.331054688 371 254.998046875 c 0
 372.333007812 288.998046875 378.5 315.331054688 389.5 333.998046875 c 0
 400.5 352.665039062 417.333007812 365.998046875 440 373.998046875 c 0
EndSplineSet
EndChar

StartChar: ampersand
Encoding: 38 38 9
Width: 624
GlyphClass: 2
Flags: W
LayerCount: 2
Fore
SplineSet
334 222 m 0
 332 223.333007812 328.000976562 227.001953125 322.000976562 233.001953125 c 2
 296.000976562 259.001953125 l 2
 284.66796875 270.334960938 275.000976562 279.66796875 267.000976562 287.000976562 c 2
 209.000976562 342.000976562 l 1
 193.000976562 328.000976562 l 2
 172.333984375 311.333984375 162.000976562 290.333984375 162.000976562 265.000976562 c 0
 162.000976562 254.333984375 164.66796875 242.666992188 170.000976562 230 c 0
 183.333984375 202.666992188 212.333984375 189 257.000976562 189 c 0
 284.333984375 189 305.666992188 193.333007812 321 202 c 0
 333.666992188 208.666992188 340 212.666992188 340 214 c 0
 340 215.333007812 338 218 334 222 c 0
298.000976562 579.001953125 m 0
 292.000976562 581.668945312 282.66796875 583.001953125 270.000976562 583.001953125 c 0
 256.000976562 583.001953125 244.66796875 581.334960938 236.000976562 578.001953125 c 0
 218.000976562 571.334960938 209.000976562 557.001953125 209.000976562 535.001953125 c 0
 209.000976562 517.668945312 215.000976562 499.001953125 227.000976562 479.001953125 c 2
 245.000976562 449.001953125 l 1
 267.000976562 461.001953125 l 2
 281.66796875 469.668945312 295.000976562 480.001953125 307.000976562 492.001953125 c 0
 315.66796875 500.001953125 321.16796875 506.501953125 323.500976562 511.501953125 c 0
 325.833984375 516.501953125 327.000976562 524.001953125 327.000976562 534.001953125 c 0
 327.000976562 556.668945312 317.333984375 571.668945312 298.000976562 579.001953125 c 0
168.000976562 638.001953125 m 0
 198.000976562 652.668945312 227.999023438 660.001953125 257.999023438 660.001953125 c 0
 260.666015625 660.001953125 265.166015625 659.834960938 271.499023438 659.501953125 c 0
 277.83203125 659.168945312 282.999023438 659.001953125 286.999023438 659.001953125 c 0
 312.33203125 658.334960938 329.499023438 657.001953125 338.499023438 655.001953125 c 0
 347.499023438 653.001953125 360.33203125 648.001953125 376.999023438 640.001953125 c 0
 398.33203125 629.334960938 413.33203125 616.834960938 421.999023438 602.501953125 c 0
 430.666015625 588.168945312 434.999023438 569.3359375 434.999023438 546.002929688 c 0
 434.999023438 519.3359375 428.666015625 496.668945312 415.999023438 478.001953125 c 0
 403.33203125 459.334960938 380.665039062 439.334960938 347.998046875 418.001953125 c 0
 320.665039062 400.001953125 306.998046875 390.668945312 306.998046875 390.001953125 c 0
 306.998046875 387.334960938 315.831054688 376.834960938 333.498046875 358.501953125 c 0
 351.165039062 340.168945312 368.33203125 323.668945312 384.999023438 309.001953125 c 2
 413.999023438 284.001953125 l 1
 421.999023438 304.001953125 l 2
 427.33203125 316.001953125 431.33203125 333.668945312 433.999023438 357.001953125 c 0
 435.999023438 379.001953125 439.33203125 392.334960938 443.999023438 397.001953125 c 0
 449.33203125 401.001953125 461.665039062 403.001953125 480.998046875 403.001953125 c 0
 504.998046875 403.001953125 519.665039062 400.668945312 524.998046875 396.001953125 c 0
 530.331054688 392.001953125 532.998046875 386.334960938 532.998046875 379.001953125 c 0
 532.998046875 378.334960938 531.665039062 366.66796875 528.998046875 344.000976562 c 0
 527.665039062 335.333984375 521.498046875 318.000976562 510.498046875 292.000976562 c 0
 499.498046875 266.000976562 493.998046875 244.66796875 493.998046875 228.000976562 c 0
 493.998046875 223.333984375 501.498046875 215.833984375 516.498046875 205.500976562 c 0
 531.498046875 195.16796875 543.665039062 189.000976562 552.998046875 187.000976562 c 0
 559.665039062 185.66796875 563.498046875 183.334960938 564.498046875 180.001953125 c 0
 565.498046875 176.668945312 566.665039062 167.001953125 567.998046875 151.001953125 c 2
 567.998046875 139.001953125 l 2
 567.998046875 125.001953125 565.831054688 115.668945312 561.498046875 111.001953125 c 0
 557.165039062 106.334960938 548.33203125 104.001953125 534.999023438 104.001953125 c 0
 516.33203125 104.001953125 490.33203125 114.668945312 456.999023438 136.001953125 c 2
 423.999023438 157.001953125 l 1
 398.999023438 143.001953125 l 2
 351.666015625 117.668945312 301.333007812 105.001953125 248 105.001953125 c 0
 206.666992188 105.001953125 169.333984375 112.668945312 136.000976562 128.001953125 c 0
 81.333984375 152.668945312 54.0009765625 195.001953125 54.0009765625 255.001953125 c 2
 54.0009765625 265.001953125 l 2
 55.333984375 289.668945312 61.0009765625 310.501953125 71.0009765625 327.501953125 c 0
 81.0009765625 344.501953125 97.66796875 361.668945312 121.000976562 379.001953125 c 2
 155.000976562 405.001953125 l 1
 138.000976562 430.001953125 l 2
 113.333984375 464.668945312 101.000976562 499.001953125 101.000976562 533.001953125 c 0
 101.000976562 579.668945312 123.333984375 614.668945312 168.000976562 638.001953125 c 0
EndSplineSet
EndChar

StartChar: quotesingle
Encoding: 39 39 10
Width: 193
GlyphClass: 2
Flags: W
LayerCount: 2
Fore
SplineSet
56 675 m 0
 62.6669921875 679 76.0009765625 681 96.0009765625 681 c 2
 104.000976562 681 l 2
 120.000976562 681 130.333984375 679 135.000976562 675 c 0
 139.66796875 671 142.000976562 660.333007812 142.000976562 643 c 0
 142.000976562 628.333007812 141.000976562 606 139.000976562 576 c 0
 135.66796875 514.666992188 132.000976562 481.666992188 128.000976562 477 c 0
 123.333984375 472.333007812 112.666992188 470 96 470 c 0
 78.6669921875 470 67.6669921875 472.333007812 63 477 c 0
 60.3330078125 479.666992188 57 512.666992188 53 576 c 0
 51 612.666992188 50 637.333984375 50 650.000976562 c 0
 50 663.333984375 52 671.666992188 56 675 c 0
EndSplineSet
EndChar

StartChar: parenleft
Encoding: 40 40 11
Width: 280
GlyphClass: 2
Flags: W
LayerCount: 2
Fore
SplineSet
143 682 m 0
 147.666992188 685.333007812 162.333007812 686.999023438 187 686.999023438 c 0
 202.333007812 686.999023438 212 685.999023438 216 683.999023438 c 0
 220.666992188 681.999023438 223 678.666015625 223 673.999023438 c 0
 223 665.999023438 217.333007812 646.999023438 206 616.999023438 c 0
 194.666992188 587.666015625 184 549.666015625 174 502.999023438 c 0
 164.666992188 456.33203125 160 398.999023438 160 330.999023438 c 2
 160 313.999023438 l 2
 160 260.666015625 163 216.833007812 169 182.5 c 0
 175 148.166992188 186.666992188 104.666992188 204 52 c 0
 217.333007812 12 224 -10.6669921875 224 -16 c 0
 224 -26 211.333007812 -31 186 -31 c 0
 164 -31 148.666992188 -26.6669921875 140 -18 c 0
 133.333007812 -11.3330078125 122 12 106 52 c 0
 90 92 79 124 73 148 c 0
 59 206 52 265.333007812 52 326 c 0
 52 436 74.3330078125 540.333007812 119 639 c 0
 131 665.666992188 139 680 143 682 c 0
EndSplineSet
EndChar

StartChar: parenright
Encoding: 41 41 12
Width: 280
GlyphClass: 2
Flags: W
LayerCount: 2
Fore
SplineSet
62 683 m 0
 66.6669921875 685 78 686 96 686 c 0
 120 686 133.666992188 684.666992188 137 682 c 0
 141.666992188 678.666992188 150.833984375 661.166992188 164.500976562 629.5 c 0
 178.16796875 597.833007812 189.000976562 568.666015625 197.000976562 541.999023438 c 0
 218.333984375 470.666015625 229.000976562 399.333007812 229.000976562 328 c 0
 229.000976562 219.333007812 206.000976562 115 160.000976562 15 c 0
 150.66796875 -7 142.000976562 -20 134.000976562 -24 c 0
 127.333984375 -28 112.666992188 -30 90 -30 c 0
 78 -30 69.3330078125 -29 64 -27 c 0
 58.6669921875 -25 56 -21.3330078125 56 -16 c 0
 56 -8 62.6669921875 14.6669921875 76 52 c 0
 94 102.666992188 105.666992188 145 111 179 c 0
 116.333007812 213 119.333007812 262.666992188 120 328 c 0
 120 403.333007812 117 456 111 486 c 0
 97 552.666992188 82.3330078125 603 67 637 c 0
 59.6669921875 655 56 667 56 673 c 0
 56 677.666992188 58 681 62 683 c 0
EndSplineSet
EndChar

StartChar: asterisk
Encoding: 42 42 13
Width: 407
GlyphClass: 2
Flags: W
LayerCount: 2
Fore
SplineSet
167 687 m 0
 170.333007812 689.666992188 181.997070312 691.001953125 201.997070312 691.001953125 c 0
 216.6640625 691.001953125 226.331054688 690.001953125 230.998046875 688.001953125 c 0
 236.331054688 686.001953125 238.998046875 679.334960938 238.998046875 668.001953125 c 0
 238.998046875 658.001953125 236.998046875 642.001953125 232.998046875 620.001953125 c 0
 230.331054688 602.668945312 228.998046875 592.3359375 228.998046875 589.002929688 c 0
 228.998046875 586.3359375 229.331054688 584.668945312 229.998046875 584.001953125 c 2
 230.998046875 584.001953125 l 2
 235.665039062 584.001953125 248.998046875 592.668945312 270.998046875 610.001953125 c 0
 296.331054688 629.334960938 310.998046875 639.001953125 314.998046875 639.001953125 c 0
 318.998046875 639.001953125 326.331054688 631.001953125 336.998046875 615.001953125 c 0
 347.665039062 599.001953125 352.998046875 588.001953125 352.998046875 582.001953125 c 0
 352.998046875 576.001953125 336.665039062 566.668945312 303.998046875 554.001953125 c 0
 271.331054688 540.668945312 254.998046875 533.668945312 254.998046875 533.001953125 c 0
 254.998046875 532.334960938 271.331054688 525.334960938 303.998046875 512.001953125 c 0
 336.665039062 499.334960938 352.998046875 490.001953125 352.998046875 484.001953125 c 0
 352.998046875 478.001953125 347.665039062 467.001953125 336.998046875 451.001953125 c 0
 326.331054688 435.001953125 318.998046875 427.001953125 314.998046875 427.001953125 c 0
 310.998046875 427.001953125 296.331054688 436.668945312 270.998046875 456.001953125 c 0
 248.998046875 473.334960938 235.665039062 482.001953125 230.998046875 482.001953125 c 2
 229.998046875 482.001953125 l 2
 229.331054688 481.334960938 228.998046875 479.66796875 228.998046875 477.000976562 c 0
 228.998046875 473.66796875 230.331054688 463.334960938 232.998046875 446.001953125 c 0
 236.998046875 425.334960938 238.998046875 409.66796875 238.998046875 399.000976562 c 0
 238.998046875 388.333984375 236.331054688 381.666992188 230.998046875 379 c 0
 225.665039062 376.333007812 214.998046875 375 198.998046875 375 c 0
 188.998046875 375 181.831054688 375.333007812 177.498046875 376 c 0
 173.165039062 376.666992188 169.665039062 378.5 166.998046875 381.5 c 0
 164.331054688 384.5 162.998046875 389 162.998046875 395 c 0
 162.998046875 401.666992188 164.665039062 415 167.998046875 435 c 0
 172.665039062 464.333007812 174.998046875 481.666015625 174.998046875 486.999023438 c 2
 173.998046875 487.999023438 l 1
 172.498046875 486.999023438 l 1
 169.498046875 484.999023438 l 2
 168.498046875 484.33203125 167.165039062 483.33203125 165.498046875 481.999023438 c 0
 163.831054688 480.666015625 162.331054688 479.499023438 160.998046875 478.499023438 c 0
 159.665039062 477.499023438 157.83203125 475.999023438 155.499023438 473.999023438 c 0
 153.166015625 471.999023438 151.166015625 470.33203125 149.499023438 468.999023438 c 0
 147.83203125 467.666015625 145.665039062 465.999023438 142.998046875 463.999023438 c 0
 140.331054688 461.999023438 137.998046875 459.999023438 135.998046875 457.999023438 c 0
 110.665039062 437.33203125 95.33203125 426.999023438 89.9990234375 426.999023438 c 0
 83.33203125 426.999023438 75.4990234375 434.166015625 66.4990234375 448.499023438 c 0
 57.4990234375 462.83203125 52.9990234375 474.999023438 52.9990234375 484.999023438 c 0
 52.9990234375 486.999023438 53.33203125 488.666015625 53.9990234375 489.999023438 c 0
 56.666015625 494.666015625 73.3330078125 502.999023438 104 514.999023438 c 0
 134 525.666015625 149 531.999023438 149 533.999023438 c 0
 149 534.666015625 133.333007812 541.499023438 102 554.499023438 c 0
 70.6669921875 567.499023438 54.6669921875 574.999023438 54 576.999023438 c 2
 54 578.999023438 l 2
 53.3330078125 580.33203125 53 581.33203125 53 581.999023438 c 0
 53 591.999023438 57.5 603.999023438 66.5 617.999023438 c 0
 75.5 631.999023438 83.3330078125 638.999023438 90 638.999023438 c 0
 95.3330078125 638.999023438 110.666015625 628.666015625 135.999023438 607.999023438 c 0
 159.999023438 588.666015625 172.999023438 578.999023438 174.999023438 578.999023438 c 0
 175.666015625 578.999023438 175.666015625 581.33203125 174.999023438 585.999023438 c 0
 174.33203125 590.666015625 173.33203125 597.166015625 171.999023438 605.499023438 c 0
 170.666015625 613.83203125 169.333007812 622.33203125 168 630.999023438 c 0
 164.666992188 649.666015625 163 664.333007812 163 675 c 0
 163 681 164.333007812 685 167 687 c 0
EndSplineSet
EndChar

StartChar: plus
Encoding: 43 43 14
Width: 479
GlyphClass: 2
Flags: W
LayerCount: 2
Fore
SplineSet
205 536 m 0
 209 540 219.66796875 541.999023438 237.000976562 541.999023438 c 0
 251.66796875 541.999023438 263.000976562 540.33203125 271.000976562 536.999023438 c 0
 275.66796875 534.33203125 278.500976562 528.999023438 279.500976562 520.999023438 c 0
 280.500976562 512.999023438 281.000976562 492.666015625 281.000976562 459.999023438 c 2
 281.000976562 387.999023438 l 1
 348.000976562 387.999023438 l 2
 385.333984375 387.999023438 407.500976562 386.166015625 414.500976562 382.499023438 c 0
 421.500976562 378.83203125 425.000976562 367.665039062 425.000976562 348.998046875 c 0
 425.000976562 330.331054688 421.500976562 319.1640625 414.500976562 315.497070312 c 0
 407.500976562 311.830078125 385.333984375 309.997070312 348.000976562 309.997070312 c 2
 281.000976562 309.997070312 l 1
 281.000976562 237.997070312 l 2
 281.000976562 197.330078125 279.333984375 173.497070312 276.000976562 166.497070312 c 0
 272.66796875 159.497070312 260.66796875 155.997070312 240.000976562 155.997070312 c 0
 219.333984375 155.997070312 207.166992188 159.497070312 203.5 166.497070312 c 0
 199.833007812 173.497070312 198 197.330078125 198 237.997070312 c 2
 198 309.997070312 l 1
 131 309.997070312 l 2
 93.6669921875 309.997070312 71.5 311.830078125 64.5 315.497070312 c 0
 57.5 319.1640625 54 330.331054688 54 348.998046875 c 0
 54 367.665039062 57.5 378.83203125 64.5 382.499023438 c 0
 71.5 386.166015625 93.6669921875 387.999023438 131 387.999023438 c 2
 198 387.999023438 l 1
 198 458.999023438 l 2
 198 505.666015625 200.333007812 531.333007812 205 536 c 0
EndSplineSet
EndChar

StartChar: comma
Encoding: 44 44 15
Width: 266
GlyphClass: 2
Flags: W
LayerCount: 2
Fore
SplineSet
117 225 m 0
 124.333007812 230.333007812 138.333007812 233 159 233 c 0
 182.333007812 233 197.333007812 229.666992188 204 223 c 0
 210.666992188 216.333007812 214 203.333007812 214 184 c 0
 214 167.333007812 211.333007812 151 206 135 c 0
 201.333007812 122.333007812 187.833007812 99.666015625 165.5 66.9990234375 c 0
 143.166992188 34.33203125 128 14.9990234375 120 8.9990234375 c 0
 111.333007812 3.666015625 98.666015625 0.9990234375 81.9990234375 0.9990234375 c 0
 64.666015625 0.9990234375 55.9990234375 3.666015625 55.9990234375 8.9990234375 c 0
 55.9990234375 18.9990234375 63.666015625 40.9990234375 78.9990234375 74.9990234375 c 0
 91.666015625 102.999023438 99.3330078125 121.83203125 102 131.499023438 c 0
 104.666992188 141.166015625 106 155.666015625 106 174.999023438 c 0
 106 193.666015625 106.666992188 205.833007812 108 211.5 c 0
 109.333007812 217.166992188 112.333007812 221.666992188 117 225 c 0
EndSplineSet
EndChar

StartChar: hyphen
Encoding: 45 45 16
Width: 308
GlyphClass: 2
Flags: W
LayerCount: 2
Fore
SplineSet
55 354 m 0
 56.3330078125 358.666992188 75 361.001953125 111 361.001953125 c 2
 154 361.001953125 l 1
 250 359.001953125 l 1
 254 340.001953125 l 2
 255.333007812 336.001953125 256 329.668945312 256 321.001953125 c 0
 256 312.334960938 255.333007812 306.001953125 254 302.001953125 c 2
 250 282.001953125 l 1
 155 280.001953125 l 1
 123 280.001953125 l 2
 81 280.001953125 58.6669921875 282.001953125 56 286.001953125 c 0
 53.3330078125 289.334960938 52 301.66796875 52 323.000976562 c 0
 52 338.333984375 53 348.666992188 55 354 c 0
EndSplineSet
EndChar

StartChar: period
Encoding: 46 46 17
Width: 222
GlyphClass: 2
Flags: W
LayerCount: 2
Fore
SplineSet
73 231 m 0
 82.3330078125 235.666992188 94.333984375 238 109.000976562 238 c 0
 126.333984375 238 139.666992188 235.333007812 149 230 c 0
 163 223.333007812 170 205 170 175 c 0
 170 152.333007812 165.666992188 136.666015625 157 127.999023438 c 0
 148.333007812 119.33203125 132.333007812 114.999023438 109 114.999023438 c 2
 99 114.999023438 l 2
 79 115.666015625 66.1669921875 118.833007812 60.5 124.5 c 0
 54.8330078125 130.166992188 52 143 52 163 c 2
 52 171 l 2
 52.6669921875 191.666992188 54.1669921875 205.666992188 56.5 213 c 0
 58.8330078125 220.333007812 64.3330078125 226.333007812 73 231 c 0
EndSplineSet
EndChar

StartChar: slash
Encoding: 47 47 18
Width: 451
GlyphClass: 2
Flags: W
LayerCount: 2
Fore
SplineSet
305 705 m 0
 310.333007812 709.666992188 324.998046875 711.999023438 348.998046875 711.999023438 c 0
 368.331054688 711.999023438 380.998046875 709.999023438 386.998046875 705.999023438 c 0
 392.998046875 700.666015625 395.665039062 695.666015625 394.998046875 690.999023438 c 0
 394.998046875 689.666015625 389.665039062 674.333007812 378.998046875 645 c 0
 368.331054688 615.666992188 352.498046875 570.833984375 331.498046875 510.500976562 c 0
 310.498046875 450.16796875 290.665039062 394.000976562 271.998046875 342.000976562 c 0
 203.998046875 151.333984375 164.665039062 45.333984375 153.998046875 24.0009765625 c 0
 139.998046875 3.333984375 126.998046875 -7.666015625 114.998046875 -8.9990234375 c 2
 96.998046875 -8.9990234375 l 1
 81.998046875 -8.9990234375 l 2
 75.3310546875 -8.9990234375 70.498046875 -8.666015625 67.498046875 -7.9990234375 c 0
 64.498046875 -7.33203125 61.8310546875 -5.83203125 59.498046875 -3.4990234375 c 0
 57.1650390625 -1.166015625 55.998046875 2.333984375 55.998046875 7.0009765625 c 0
 55.998046875 18.333984375 74.6650390625 76.6669921875 111.998046875 182 c 0
 131.998046875 237.333007812 151.831054688 292.833007812 171.498046875 348.5 c 0
 191.165039062 404.166992188 204.665039062 442 211.998046875 462 c 0
 214.665039062 470 226.33203125 502.666992188 246.999023438 560 c 0
 267.666015625 617.333007812 280.333007812 652.333007812 285 665 c 0
 292.333007812 687 299 700.333007812 305 705 c 0
EndSplineSet
EndChar

StartChar: zero
Encoding: 48 48 19
Width: 476
GlyphClass: 2
Flags: W
LayerCount: 2
Fore
SplineSet
271 560 m 0
 261.666992188 565.333007812 251.66796875 568.000976562 241.000976562 568.000976562 c 2
 238.000976562 568.000976562 l 2
 211.333984375 567.333984375 192.166992188 555.333984375 180.5 532.000976562 c 0
 168.833007812 508.66796875 161.333007812 469.000976562 158 413.000976562 c 0
 158 409.66796875 157.833007812 404.500976562 157.5 397.500976562 c 0
 157.166992188 390.500976562 157 385.000976562 157 381.000976562 c 0
 157 309.66796875 163.666992188 259.000976562 177 229.000976562 c 0
 188.333007812 204.333984375 207.666015625 192.000976562 234.999023438 192.000976562 c 0
 253.666015625 192.000976562 269.333007812 198.333984375 282 211.000976562 c 0
 300 229.000976562 311 275.000976562 315 349.000976562 c 0
 315.666992188 358.333984375 316 371.666992188 316 389 c 0
 316 487.666992188 301 544.666992188 271 560 c 0
185.000976562 644.000976562 m 0
 194.333984375 647.333984375 210 649.000976562 232 649.000976562 c 0
 272 649.000976562 302.333007812 644.333984375 323 635.000976562 c 0
 340.333007812 627.000976562 356.333007812 614.333984375 371 597.000976562 c 0
 385.666992188 579.66796875 396.333984375 561.000976562 403.000976562 541.000976562 c 0
 416.333984375 501.66796875 423.000976562 451.334960938 423.000976562 390.001953125 c 0
 423.000976562 306.668945312 411.66796875 242.3359375 389.000976562 197.002929688 c 0
 374.333984375 167.002929688 349.333984375 143.002929688 314.000976562 125.002929688 c 0
 296.000976562 116.3359375 268.66796875 112.002929688 232.000976562 112.002929688 c 0
 206.66796875 112.002929688 189.500976562 112.8359375 180.500976562 114.502929688 c 0
 171.500976562 116.169921875 161.000976562 120.002929688 149.000976562 126.002929688 c 0
 119.000976562 142.002929688 96.833984375 164.669921875 82.5009765625 194.002929688 c 0
 68.16796875 223.3359375 58.66796875 264.668945312 54.0009765625 318.001953125 c 0
 52.0009765625 338.001953125 51.0009765625 358.001953125 51.0009765625 378.001953125 c 0
 51.0009765625 397.334960938 52.0009765625 416.001953125 54.0009765625 434.001953125 c 0
 59.333984375 494.001953125 72.5009765625 540.668945312 93.5009765625 574.001953125 c 0
 114.500976562 607.334960938 145.000976562 630.66796875 185.000976562 644.000976562 c 0
EndSplineSet
EndChar

StartChar: one
Encoding: 49 49 20
Width: 429
GlyphClass: 2
Flags: W
LayerCount: 2
Fore
SplineSet
123 594 m 2
 187 635 l 1
 228 634 l 1
 269 632 l 1
 271 415 l 1
 272 197 l 1
 318 197 l 2
 344.666992188 197 360.833984375 195 366.500976562 191 c 0
 372.16796875 187 375.000976562 175.333007812 375.000976562 156 c 2
 375.000976562 146 l 2
 375.000976562 130.666992188 368.500976562 121.5 355.500976562 118.5 c 0
 342.500976562 115.5 303.000976562 114 237.000976562 114 c 2
 216.000976562 114 l 2
 117.333984375 114 65.6669921875 116.333007812 61 121 c 0
 57 125 55 136.666992188 55 156 c 0
 55 175.333007812 57 187 61 191 c 0
 65 195 84 197 118 197 c 2
 169 197 l 1
 169 362 l 2
 169 472 167 527 163 527 c 0
 161.666992188 527 146 519.5 116 504.5 c 0
 86 489.5 68.6669921875 482 64 482 c 2
 63 482 l 2
 55.6669921875 485.333007812 52 497.333007812 52 518 c 0
 52 527.333007812 53 534.333007812 55 539 c 0
 59 549.666992188 81.6669921875 568 123 594 c 2
EndSplineSet
EndChar

StartChar: two
Encoding: 50 50 21
Width: 455
GlyphClass: 2
Flags: W
LayerCount: 2
Fore
SplineSet
78 601 m 0
 111.333007812 629.666992188 156.333984375 644.000976562 213.000976562 644.000976562 c 0
 215.000976562 644.000976562 218.000976562 643.833984375 222.000976562 643.500976562 c 0
 226.000976562 643.16796875 229.000976562 643.000976562 231.000976562 643.000976562 c 0
 264.333984375 641.000976562 290.000976562 635.66796875 308.000976562 627.000976562 c 0
 356.000976562 602.333984375 380.000976562 562.666992188 380.000976562 508 c 0
 380.000976562 497.333007812 379.000976562 486 377.000976562 474 c 0
 371.66796875 442.666992188 359.16796875 411.833984375 339.500976562 381.500976562 c 0
 319.833984375 351.16796875 286.333984375 311.66796875 239.000976562 263.000976562 c 2
 179.000976562 202.000976562 l 1
 392.000976562 202.000976562 l 1
 397.000976562 189.000976562 l 2
 400.333984375 182.333984375 402.000976562 172.000976562 402.000976562 158.000976562 c 0
 402.000976562 144.66796875 400.333984375 134.66796875 397.000976562 128.000976562 c 2
 392.000976562 114.000976562 l 1
 230.000976562 114.000976562 l 1
 177.000976562 114.000976562 l 2
 117.66796875 114.000976562 82.0009765625 115.66796875 70.0009765625 119.000976562 c 0
 58.0009765625 122.333984375 52.0009765625 132.333984375 52.0009765625 149.000976562 c 2
 52.0009765625 162.000976562 l 2
 52.0009765625 181.333984375 54.66796875 195.833984375 60.0009765625 205.500976562 c 0
 65.333984375 215.16796875 82.333984375 234.66796875 111.000976562 264.000976562 c 0
 178.333984375 334.000976562 219.666992188 384.333984375 235 415.000976562 c 0
 247.666992188 439.66796875 254 462.000976562 254 482.000976562 c 0
 254 502.000976562 248 517.833984375 236 529.500976562 c 0
 224 541.16796875 207.666992188 547.000976562 187 547.000976562 c 0
 163 547.000976562 137 539.333984375 109 524.000976562 c 0
 90.3330078125 514.000976562 78.666015625 509.000976562 73.9990234375 509.000976562 c 0
 68.666015625 509.000976562 65.3330078125 512.16796875 64 518.500976562 c 0
 62.6669921875 524.833984375 62 536.666992188 62 554 c 0
 62 570 62.8330078125 580.333007812 64.5 585 c 0
 66.1669921875 589.666992188 70.6669921875 595 78 601 c 0
EndSplineSet
EndChar

StartChar: three
Encoding: 51 51 22
Width: 451
GlyphClass: 2
Flags: W
LayerCount: 2
Fore
SplineSet
151 638 m 0
 165.666992188 642 185.334960938 643.999023438 210.001953125 643.999023438 c 0
 252.001953125 643.999023438 282.001953125 639.666015625 300.001953125 630.999023438 c 0
 330.668945312 617.666015625 352.3359375 596.666015625 365.002929688 567.999023438 c 0
 369.669921875 556.666015625 372.002929688 538.666015625 372.002929688 513.999023438 c 0
 372.002929688 489.33203125 369.669921875 471.33203125 365.002929688 459.999023438 c 0
 352.3359375 430.666015625 333.668945312 409.999023438 309.001953125 397.999023438 c 0
 298.334960938 392.666015625 293.001953125 389.333007812 293.001953125 388 c 0
 292.334960938 387.333007812 293.66796875 386.333007812 297.000976562 385 c 0
 315.66796875 377.666992188 328.66796875 372 336.000976562 368 c 0
 372.66796875 349.333007812 392.66796875 317.333007812 396.000976562 272 c 2
 396.000976562 261 l 2
 396.000976562 214.333007812 378.000976562 176.666015625 342.000976562 147.999023438 c 0
 306.000976562 119.33203125 258.333984375 104.999023438 199.000976562 104.999023438 c 0
 189.000976562 104.999023438 181.333984375 105.33203125 176.000976562 105.999023438 c 0
 153.333984375 107.33203125 130.500976562 111.33203125 107.500976562 117.999023438 c 0
 84.5009765625 124.666015625 69.0009765625 131.666015625 61.0009765625 138.999023438 c 0
 55.0009765625 144.999023438 52.0009765625 159.33203125 52.0009765625 181.999023438 c 0
 52.0009765625 207.999023438 56.333984375 220.999023438 65.0009765625 220.999023438 c 0
 69.66796875 220.999023438 77.66796875 217.999023438 89.0009765625 211.999023438 c 0
 122.333984375 194.666015625 154.333984375 185.999023438 185.000976562 185.999023438 c 0
 217.66796875 185.999023438 242.000976562 195.666015625 258.000976562 214.999023438 c 0
 268.66796875 226.999023438 274.000976562 242.33203125 274.000976562 260.999023438 c 0
 274.000976562 278.999023438 269.333984375 293.666015625 260.000976562 304.999023438 c 0
 249.333984375 317.666015625 237.666992188 326.333007812 225 331 c 0
 212.333007812 335.666992188 191.666015625 338.666992188 162.999023438 340 c 0
 127.666015625 341.333007812 108.333007812 343.666015625 105 346.999023438 c 0
 100.333007812 350.33203125 98 361.33203125 98 379.999023438 c 0
 98 397.999023438 100.333007812 408.666015625 105 411.999023438 c 0
 109 415.999023438 126.666992188 418.666015625 158 419.999023438 c 0
 208.666992188 422.666015625 239.666992188 436.999023438 251 462.999023438 c 0
 256.333007812 475.666015625 259 487.333007812 259 498 c 0
 259 514 253 528.333007812 241 541 c 0
 232.333007812 550.333007812 225.666015625 555.833007812 220.999023438 557.5 c 0
 216.33203125 559.166992188 204.999023438 560 186.999023438 560 c 0
 170.999023438 560 158.83203125 558.833007812 150.499023438 556.5 c 0
 142.166015625 554.166992188 129.333007812 548.666992188 112 540 c 0
 92 529.333007812 78 524 70 524 c 2
 68 524 l 2
 64 526.666992188 62 538 62 558 c 0
 62 578 65.6669921875 591.666992188 73 599 c 0
 89 615 115 628 151 638 c 0
EndSplineSet
EndChar

StartChar: four
Encoding: 52 52 23
Width: 496
GlyphClass: 2
Flags: W
LayerCount: 2
Fore
SplineSet
275 421 m 2
 275 498.333007812 274.666992188 537 274 537 c 0
 272.666992188 537 250.166992188 499.333007812 206.5 424 c 0
 162.833007812 348.666992188 141 310 141 308 c 0
 141 306 163.333007812 305 208 305 c 2
 275 305 l 1
 275 421 l 2
241 630 m 0
 245.666992188 632.666992188 263.002929688 634 293.002929688 634 c 0
 339.002929688 634 365.3359375 632 372.002929688 628 c 0
 376.002929688 625.333007812 378.002929688 570.666015625 378.002929688 463.999023438 c 2
 378.002929688 304.999023438 l 1
 404.002929688 304.999023438 l 2
 421.3359375 304.999023438 431.668945312 301.666015625 435.001953125 294.999023438 c 0
 438.334960938 289.666015625 440.001953125 280.333007812 440.001953125 267 c 0
 440.001953125 253 438.334960938 242.666992188 435.001953125 236 c 0
 433.001953125 230 430.334960938 226.333007812 427.001953125 225 c 0
 423.668945312 223.666992188 416.001953125 223 404.001953125 223 c 2
 378.001953125 223 l 1
 378.001953125 174 l 2
 378.001953125 145.333007812 375.668945312 128.166015625 371.001953125 122.499023438 c 0
 366.334960938 116.83203125 351.66796875 113.999023438 327.000976562 113.999023438 c 0
 302.333984375 113.999023438 287.500976562 116.83203125 282.500976562 122.499023438 c 0
 277.500976562 128.166015625 275.000976562 145.333007812 275.000976562 174 c 2
 275.000976562 223 l 1
 170.000976562 223 l 2
 100.000976562 223 63.0009765625 225.333007812 59.0009765625 230 c 0
 55.66796875 234.666992188 54.0009765625 244.333984375 54.0009765625 259.000976562 c 0
 54.0009765625 267.66796875 54.333984375 274.66796875 55.0009765625 280.000976562 c 0
 56.333984375 300.66796875 58.1669921875 315.16796875 60.5 323.500976562 c 0
 62.8330078125 331.833984375 69.3330078125 344.666992188 80 362 c 0
 96 388 109.333007812 411 120 431 c 0
 190 559 230.333007812 625.333007812 241 630 c 0
EndSplineSet
EndChar

StartChar: five
Encoding: 53 53 24
Width: 445
GlyphClass: 2
Flags: W
LayerCount: 2
Fore
SplineSet
79 627 m 0
 82.3330078125 631.666992188 104.666015625 633.999023438 145.999023438 633.999023438 c 2
 220.999023438 633.999023438 l 1
 355.999023438 631.999023438 l 1
 359.999023438 610.999023438 l 2
 361.33203125 606.999023438 361.999023438 599.666015625 361.999023438 588.999023438 c 0
 361.999023438 578.33203125 361.33203125 570.999023438 359.999023438 566.999023438 c 2
 355.999023438 544.999023438 l 1
 258.999023438 542.999023438 l 1
 161.999023438 541.999023438 l 1
 161.999023438 435.999023438 l 1
 220.999023438 431.999023438 l 2
 253.666015625 430.666015625 278.999023438 427.333007812 296.999023438 422 c 0
 314.999023438 416.666992188 331.33203125 407.666992188 345.999023438 395 c 0
 375.999023438 369.666992188 390.999023438 331 390.999023438 279 c 0
 390.999023438 250.333007812 387.33203125 227 379.999023438 209 c 0
 372.666015625 191 359.333007812 173.333007812 340 156 c 0
 319.333007812 136.666992188 298.833007812 123.666992188 278.5 117 c 0
 258.166992188 110.333007812 229 107 191 107 c 2
 175 107 l 2
 143 107 118 110 100 116 c 0
 78 122.666992188 64.5 129.166992188 59.5 135.5 c 0
 54.5 141.833007812 52 154.666015625 52 173.999023438 c 0
 52 201.33203125 56.3330078125 214.999023438 65 214.999023438 c 0
 69.6669921875 214.999023438 80 211.33203125 96 203.999023438 c 0
 117.333007812 193.999023438 143.666015625 188.999023438 174.999023438 188.999023438 c 0
 200.33203125 188.999023438 219.499023438 191.499023438 232.499023438 196.499023438 c 0
 245.499023438 201.499023438 256.999023438 210.666015625 266.999023438 223.999023438 c 0
 275.666015625 234.666015625 279.999023438 250.333007812 279.999023438 271 c 0
 279.999023438 287 277.33203125 300.333007812 271.999023438 311 c 0
 263.999023438 329.666992188 252.499023438 341.5 237.499023438 346.5 c 0
 222.499023438 351.5 192.999023438 354 148.999023438 354 c 2
 77.9990234375 354 l 1
 73.9990234375 375 l 2
 71.9990234375 383 70.9990234375 412 70.9990234375 462 c 2
 70.9990234375 507 l 2
 71.666015625 581.666992188 74.3330078125 621.666992188 79 627 c 0
EndSplineSet
EndChar

StartChar: six
Encoding: 54 54 25
Width: 458
GlyphClass: 2
Flags: W
LayerCount: 2
Fore
SplineSet
278 354 m 0
 272 360 259.33203125 363.666015625 239.999023438 364.999023438 c 2
 227.999023438 364.999023438 l 2
 210.666015625 364.999023438 191.666015625 359.666015625 170.999023438 348.999023438 c 0
 162.999023438 344.999023438 158.166015625 341.499023438 156.499023438 338.499023438 c 0
 154.83203125 335.499023438 153.999023438 328.999023438 153.999023438 318.999023438 c 0
 153.999023438 280.999023438 160.33203125 249.33203125 172.999023438 223.999023438 c 0
 183.666015625 202.666015625 202.333007812 191.999023438 229 191.999023438 c 0
 243 191.999023438 255.333007812 195.33203125 266 201.999023438 c 0
 290.666992188 217.33203125 303 245.33203125 303 285.999023438 c 0
 303 316.666015625 294.666992188 339.333007812 278 354 c 0
207.999023438 643.999023438 m 0
 221.33203125 647.33203125 239.666992188 649 263 649 c 0
 301 649 329.666992188 646 349 640 c 0
 359.666992188 636 366.833984375 630.5 370.500976562 623.5 c 0
 374.16796875 616.5 376.000976562 605.333007812 376.000976562 590 c 0
 376.000976562 576 375.000976562 566.5 373.000976562 561.5 c 0
 371.000976562 556.5 366.333984375 554 359.000976562 554 c 0
 354.333984375 554 344.666992188 555.666992188 330 559 c 0
 307.333007812 565 288 568 272 568 c 0
 253.333007812 568 234.666015625 563.333007812 215.999023438 554 c 0
 179.999023438 534.666992188 159.999023438 501.666992188 155.999023438 455 c 0
 155.33203125 449.666992188 154.83203125 444.5 154.499023438 439.5 c 0
 154.166015625 434.5 153.999023438 430.666992188 153.999023438 428 c 0
 153.999023438 425.333007812 154.33203125 424 154.999023438 424 c 0
 156.999023438 424 165.999023438 427.666992188 181.999023438 435 c 0
 203.999023438 444.333007812 230.999023438 449 262.999023438 449 c 0
 284.33203125 449 301.665039062 446.666992188 314.998046875 442 c 0
 348.998046875 430.666992188 373.998046875 410.333984375 389.998046875 381.000976562 c 0
 396.665039062 368.333984375 400.665039062 357.666992188 401.998046875 349 c 0
 403.331054688 340.333007812 403.998046875 322.333007812 403.998046875 295 c 0
 403.998046875 254.333007812 400.331054688 226.333007812 392.998046875 211 c 0
 385.665039062 194.333007812 374.165039062 178 358.498046875 162 c 0
 342.831054688 146 326.331054688 134 308.998046875 126 c 0
 296.331054688 119.333007812 285.498046875 115.333007812 276.498046875 114 c 0
 267.498046875 112.666992188 249.998046875 112 223.998046875 112 c 0
 198.665039062 112 181.498046875 112.833007812 172.498046875 114.5 c 0
 163.498046875 116.166992188 152.998046875 120 140.998046875 126 c 0
 107.665039062 143.333007812 84.33203125 169.166015625 70.9990234375 203.499023438 c 0
 57.666015625 237.83203125 50.9990234375 288.999023438 50.9990234375 356.999023438 c 0
 50.9990234375 433.666015625 60.9990234375 492.999023438 80.9990234375 534.999023438 c 0
 107.666015625 592.999023438 149.999023438 629.33203125 207.999023438 643.999023438 c 0
EndSplineSet
EndChar

StartChar: seven
Encoding: 55 55 26
Width: 462
GlyphClass: 2
Flags: W
LayerCount: 2
Fore
SplineSet
62 625 m 0
 64 628.333007812 120.998046875 630 232.998046875 630 c 2
 294.998046875 630 l 2
 346.331054688 630 377.998046875 628.5 389.998046875 625.5 c 0
 401.998046875 622.5 407.998046875 614.333007812 407.998046875 601 c 0
 407.998046875 599 407.831054688 595.5 407.498046875 590.5 c 0
 407.165039062 585.5 406.998046875 581.333007812 406.998046875 578 c 0
 406.998046875 562.666992188 402.498046875 543.166992188 393.498046875 519.5 c 0
 384.498046875 495.833007812 358.331054688 434 314.998046875 334 c 0
 252.331054688 190.666992188 218.998046875 118 214.998046875 116 c 0
 209.665039062 111.333007812 192.998046875 109 164.998046875 109 c 0
 132.998046875 109 114.998046875 111.666992188 110.998046875 117 c 0
 108.331054688 119.666992188 106.998046875 122 106.998046875 124 c 0
 106.998046875 131.333007812 139.998046875 206.333007812 205.998046875 349 c 2
 290.998046875 535 l 1
 265.665039062 535.666992188 227.83203125 536 177.499023438 536 c 0
 127.166015625 536 89.3330078125 536.333007812 64 537 c 1
 59 552 l 2
 56.3330078125 560 55 569.666992188 55 581 c 0
 55 603 57.3330078125 617.666992188 62 625 c 0
EndSplineSet
EndChar

StartChar: eight
Encoding: 56 56 27
Width: 467
GlyphClass: 2
Flags: W
LayerCount: 2
Fore
SplineSet
251 321 m 0
 239 327.666992188 230.66796875 330.999023438 226.000976562 330.999023438 c 0
 222.000976562 330.999023438 212.66796875 324.999023438 198.000976562 312.999023438 c 0
 183.333984375 300.999023438 173.000976562 290.999023438 167.000976562 282.999023438 c 0
 159.66796875 273.666015625 156.000976562 259.333007812 156.000976562 240 c 0
 156.000976562 222 159.333984375 209.333007812 166.000976562 202 c 0
 181.333984375 184.666992188 203.666992188 176 233 176 c 0
 257.666992188 176 277.166992188 182 291.5 194 c 0
 305.833007812 206 313 221 313 239 c 0
 313 273 292.333007812 300.333007812 251 321 c 0
269.000976562 555.999023438 m 0
 257.66796875 560.666015625 245.668945312 562.998046875 233.001953125 562.998046875 c 0
 199.668945312 562.998046875 178.668945312 550.331054688 170.001953125 524.998046875 c 0
 167.334960938 518.998046875 166.001953125 510.998046875 166.001953125 500.998046875 c 0
 166.001953125 495.665039062 166.334960938 491.998046875 167.001953125 489.998046875 c 0
 169.001953125 480.665039062 175.168945312 470.33203125 185.501953125 458.999023438 c 0
 195.834960938 447.666015625 207.66796875 438.666015625 221.000976562 431.999023438 c 2
 241.000976562 421.999023438 l 1
 260.000976562 435.999023438 l 2
 286.000976562 453.999023438 299.000976562 475.666015625 299.000976562 500.999023438 c 0
 299.000976562 529.666015625 289.000976562 547.999023438 269.000976562 555.999023438 c 0
176.001953125 634.998046875 m 0
 183.334960938 636.998046875 203.334960938 638.665039062 236.001953125 639.998046875 c 2
 242.001953125 639.998046875 l 2
 292.668945312 639.998046875 331.8359375 628.831054688 359.502929688 606.498046875 c 0
 387.169921875 584.165039062 401.002929688 553.33203125 401.002929688 513.999023438 c 0
 399.669921875 465.999023438 376.669921875 426.33203125 332.002929688 394.999023438 c 2
 317.002929688 383.999023438 l 1
 346.002929688 364.999023438 l 2
 392.002929688 334.999023438 415.002929688 296.33203125 415.002929688 248.999023438 c 2
 415.002929688 235.999023438 l 2
 413.002929688 207.999023438 406.002929688 184.83203125 394.002929688 166.499023438 c 0
 382.002929688 148.166015625 363.669921875 132.666015625 339.002929688 119.999023438 c 0
 312.3359375 106.666015625 275.3359375 99.9990234375 228.002929688 99.9990234375 c 0
 190.669921875 99.9990234375 158.669921875 104.666015625 132.002929688 113.999023438 c 0
 106.669921875 123.33203125 86.669921875 138.665039062 72.0029296875 159.998046875 c 0
 57.3359375 181.331054688 50.0029296875 205.331054688 50.0029296875 231.998046875 c 0
 50.0029296875 243.331054688 52.3359375 257.6640625 57.0029296875 274.997070312 c 0
 60.3359375 287.6640625 68.6689453125 301.6640625 82.001953125 316.997070312 c 0
 95.3349609375 332.330078125 109.66796875 344.997070312 125.000976562 354.997070312 c 0
 140.333984375 364.997070312 148.000976562 371.6640625 148.000976562 374.997070312 c 0
 148.000976562 376.330078125 146.66796875 376.997070312 144.000976562 376.997070312 c 0
 138.000976562 376.997070312 125.833984375 386.830078125 107.500976562 406.497070312 c 0
 89.16796875 426.1640625 78.0009765625 441.331054688 74.0009765625 451.998046875 c 0
 68.66796875 464.665039062 66.0009765625 480.665039062 66.0009765625 499.998046875 c 0
 66.0009765625 527.998046875 72.0009765625 551.665039062 84.0009765625 570.998046875 c 0
 92.66796875 584.998046875 105.834960938 598.165039062 123.501953125 610.498046875 c 0
 141.168945312 622.831054688 158.668945312 630.998046875 176.001953125 634.998046875 c 0
EndSplineSet
EndChar

StartChar: nine
Encoding: 57 57 28
Width: 464
GlyphClass: 2
Flags: W
LayerCount: 2
Fore
SplineSet
264 548 m 0
 253.333007812 554 241.66796875 557 229.000976562 557 c 0
 199.000976562 557 178.333984375 544.666992188 167.000976562 520 c 0
 160.333984375 507.333007812 157.000976562 488.333007812 157.000976562 463 c 0
 157.000976562 440.333007812 159.66796875 424 165.000976562 414 c 0
 175.000976562 393.333007812 193.66796875 383 221.000976562 383 c 0
 227.000976562 383 231.66796875 383.333007812 235.000976562 384 c 0
 252.333984375 385.333007812 268.666992188 389.333007812 284 396 c 2
 303 406 l 1
 301 452 l 2
 298.333007812 503.333007812 286 535.333007812 264 548 c 0
177.001953125 635 m 0
 187.001953125 637.666992188 201.668945312 639.001953125 221.001953125 639.001953125 c 0
 264.334960938 639.001953125 295.334960938 634.334960938 314.001953125 625.001953125 c 0
 378.001953125 593.668945312 410.001953125 518.668945312 410.001953125 400.001953125 c 0
 410.001953125 383.334960938 409.668945312 370.66796875 409.001953125 362.000976562 c 0
 404.334960938 272.66796875 382.001953125 206.000976562 342.001953125 162.000976562 c 0
 303.334960938 120.000976562 252.334960938 99.0009765625 189.001953125 99.0009765625 c 0
 169.001953125 99.0009765625 146.668945312 101.66796875 122.001953125 107.000976562 c 0
 99.3349609375 112.333984375 85.001953125 118.000976562 79.001953125 124.000976562 c 0
 73.001953125 130.000976562 70.001953125 142.333984375 70.001953125 161.000976562 c 0
 70.001953125 175.66796875 71.001953125 185.66796875 73.001953125 191.000976562 c 0
 75.001953125 196.333984375 79.001953125 199.000976562 85.001953125 199.000976562 c 0
 87.001953125 199.000976562 99.3349609375 196.333984375 122.001953125 191.000976562 c 0
 140.668945312 185.66796875 160.3359375 183.000976562 181.002929688 183.000976562 c 0
 214.3359375 183.000976562 241.502929688 192.16796875 262.502929688 210.500976562 c 0
 283.502929688 228.833984375 297.002929688 255.000976562 303.002929688 289.000976562 c 0
 305.002929688 303.000976562 306.002929688 313.333984375 306.002929688 320.000976562 c 0
 306.002929688 322.000976562 305.669921875 323.16796875 305.002929688 323.500976562 c 0
 304.3359375 323.833984375 303.002929688 323.833984375 301.002929688 323.500976562 c 0
 299.002929688 323.16796875 297.002929688 322.500976562 295.002929688 321.500976562 c 0
 293.002929688 320.500976562 290.502929688 319.16796875 287.502929688 317.500976562 c 0
 284.502929688 315.833984375 281.669921875 314.666992188 279.002929688 314 c 0
 264.3359375 307.333007812 242.668945312 303 214.001953125 301 c 2
 200.001953125 301 l 2
 133.334960938 301 88.3349609375 327 65.001953125 379 c 0
 56.3349609375 399.666992188 52.001953125 426 52.001953125 458 c 0
 52.001953125 486 55.6689453125 510.333007812 63.001953125 531 c 0
 72.3349609375 555.666992188 87.3349609375 577.5 108.001953125 596.5 c 0
 128.668945312 615.5 151.668945312 628.333007812 177.001953125 635 c 0
EndSplineSet
EndChar

StartChar: colon
Encoding: 58 58 29
Width: 215
GlyphClass: 2
Flags: W
LayerCount: 2
Fore
SplineSet
65 479 m 0
 73.6669921875 487 83.666015625 491.002929688 94.9990234375 491.002929688 c 0
 96.33203125 491.002929688 98.6650390625 490.8359375 101.998046875 490.502929688 c 0
 105.331054688 490.169921875 107.998046875 490.002929688 109.998046875 490.002929688 c 0
 131.998046875 488.669921875 146.331054688 484.002929688 152.998046875 476.002929688 c 0
 159.665039062 468.002929688 162.998046875 452.002929688 162.998046875 428.002929688 c 0
 162.998046875 410.669921875 162.331054688 399.502929688 160.998046875 394.502929688 c 0
 159.665039062 389.502929688 155.665039062 384.3359375 148.998046875 379.002929688 c 0
 139.665039062 370.3359375 125.33203125 366.002929688 105.999023438 366.002929688 c 0
 87.33203125 366.002929688 73.33203125 370.3359375 63.9990234375 379.002929688 c 0
 57.9990234375 384.3359375 54.166015625 389.168945312 52.4990234375 393.501953125 c 0
 50.83203125 397.834960938 49.9990234375 405.334960938 49.9990234375 416.001953125 c 2
 49.9990234375 429.001953125 l 2
 49.9990234375 446.334960938 50.83203125 457.66796875 52.4990234375 463.000976562 c 0
 54.166015625 468.333984375 58.3330078125 473.666992188 65 479 c 0
64.9990234375 215.002929688 m 0
 74.33203125 223.669921875 88.3310546875 228.002929688 106.998046875 228.002929688 c 0
 125.665039062 228.002929688 139.665039062 223.669921875 148.998046875 215.002929688 c 0
 155.665039062 209.669921875 159.665039062 204.502929688 160.998046875 199.502929688 c 0
 162.331054688 194.502929688 162.998046875 183.3359375 162.998046875 166.002929688 c 0
 162.998046875 148.669921875 162.331054688 137.336914062 160.998046875 132.00390625 c 0
 159.665039062 126.670898438 155.665039062 121.337890625 148.998046875 116.004882812 c 0
 138.331054688 106.671875 123.998046875 102.004882812 105.998046875 102.004882812 c 0
 88.6650390625 102.004882812 74.6650390625 106.671875 63.998046875 116.004882812 c 0
 57.998046875 121.337890625 54.1650390625 126.170898438 52.498046875 130.50390625 c 0
 50.8310546875 134.836914062 49.998046875 142.336914062 49.998046875 153.00390625 c 2
 49.998046875 166.00390625 l 2
 49.998046875 182.670898438 50.8310546875 193.670898438 52.498046875 199.00390625 c 0
 54.1650390625 204.336914062 58.33203125 209.669921875 64.9990234375 215.002929688 c 0
EndSplineSet
EndChar

StartChar: semicolon
Encoding: 59 59 30
Width: 266
GlyphClass: 2
Flags: W
LayerCount: 2
Fore
SplineSet
114 479 m 0
 122.666992188 487 132.66796875 491.001953125 144.000976562 491.001953125 c 0
 145.333984375 491.001953125 147.666992188 490.834960938 151 490.501953125 c 0
 154.333007812 490.168945312 157 490.001953125 159 490.001953125 c 0
 181 488.668945312 195.333007812 484.001953125 202 476.001953125 c 0
 208.666992188 468.001953125 212 452.001953125 212 428.001953125 c 0
 212 411.334960938 211.166992188 400.334960938 209.5 395.001953125 c 0
 207.833007812 389.668945312 203.666015625 384.3359375 196.999023438 379.002929688 c 0
 187.666015625 370.3359375 173.666015625 366.002929688 154.999023438 366.002929688 c 0
 136.33203125 366.002929688 122.33203125 370.3359375 112.999023438 379.002929688 c 0
 106.999023438 384.3359375 103.166015625 389.168945312 101.499023438 393.501953125 c 0
 99.83203125 397.834960938 98.9990234375 405.334960938 98.9990234375 416.001953125 c 2
 98.9990234375 429.001953125 l 2
 98.9990234375 446.334960938 99.83203125 457.66796875 101.499023438 463.000976562 c 0
 103.166015625 468.333984375 107.333007812 473.666992188 114 479 c 0
117.000976562 220.001953125 m 0
 124.333984375 225.334960938 138.333007812 228 159 228 c 0
 179 228 193.666992188 223.333007812 203 214 c 0
 210.333007812 206.666992188 214 199.333984375 214 192.000976562 c 0
 214 190.66796875 213.333007812 183.334960938 212 170.001953125 c 0
 209.333007812 145.334960938 205 127.334960938 199 116.001953125 c 0
 193 102.001953125 180.166992188 81.1689453125 160.5 53.501953125 c 0
 140.833007812 25.8349609375 127.333007812 9.3349609375 120 4.001953125 c 0
 112.666992188 -1.3310546875 99.333984375 -3.998046875 80.0009765625 -3.998046875 c 0
 64.66796875 -3.998046875 57.0009765625 -1.998046875 57.0009765625 2.001953125 c 0
 57.0009765625 8.001953125 64.66796875 29.3349609375 80.0009765625 66.001953125 c 0
 92.0009765625 94.001953125 99.333984375 113.168945312 102.000976562 123.501953125 c 0
 104.66796875 133.834960938 106.000976562 149.001953125 106.000976562 169.001953125 c 0
 106.000976562 188.334960938 106.66796875 200.834960938 108.000976562 206.501953125 c 0
 109.333984375 212.168945312 112.333984375 216.668945312 117.000976562 220.001953125 c 0
EndSplineSet
EndChar

StartChar: less
Encoding: 60 60 31
Width: 452
GlyphClass: 2
Flags: W
LayerCount: 2
Fore
SplineSet
217 475 m 0
 318.333007812 526.333007812 373.331054688 552.000976562 381.998046875 552.000976562 c 0
 388.665039062 553.333984375 393.33203125 550.666992188 395.999023438 544 c 0
 397.999023438 538.666992188 398.999023438 528.666992188 398.999023438 514 c 0
 398.999023438 496 397.666015625 484.333007812 394.999023438 479 c 0
 392.999023438 473 353.499023438 451.333007812 276.499023438 414 c 0
 199.499023438 376.666992188 160.999023438 357 160.999023438 355 c 0
 162.33203125 351 199.999023438 331.666992188 273.999023438 297 c 0
 335.999023438 267.666992188 372.33203125 248.666992188 382.999023438 240 c 0
 393.666015625 231.333007812 398.999023438 216 398.999023438 194 c 2
 398.999023438 185 l 2
 398.999023438 167 394.666015625 158 385.999023438 158 c 0
 373.999023438 158 320.33203125 182 224.999023438 230 c 0
 139.666015625 272.666992188 89.8330078125 299 75.5 309 c 0
 61.1669921875 319 54 333.666992188 54 353 c 2
 54 354 l 1
 54 355 l 2
 54 371.666992188 58 384 66 392 c 0
 78.6669921875 403.333007812 129 431 217 475 c 0
EndSplineSet
EndChar

StartChar: equal
Encoding: 61 61 32
Width: 448
GlyphClass: 2
Flags: W
LayerCount: 2
Fore
SplineSet
56 456 m 0
 58 460 67.6669921875 462.499023438 85 463.499023438 c 0
 102.333007812 464.499023438 148 464.999023438 222 464.999023438 c 0
 329.333007812 464.999023438 385 462.999023438 389 458.999023438 c 0
 393 454.999023438 395 443.999023438 395 425.999023438 c 0
 395 408.666015625 393 397.999023438 389 393.999023438 c 0
 385 389.999023438 329.333007812 387.999023438 222 387.999023438 c 0
 145.333007812 387.999023438 99 388.33203125 83 388.999023438 c 0
 67 389.666015625 58 392.333007812 56 397 c 0
 53.3330078125 405 52 414.666992188 52 426 c 0
 52 438 53.3330078125 448 56 456 c 0
56 295.999023438 m 0
 58 299.999023438 67.6669921875 302.498046875 85 303.498046875 c 0
 102.333007812 304.498046875 148 304.998046875 222 304.998046875 c 0
 329.333007812 304.998046875 385 302.998046875 389 298.998046875 c 0
 393 294.998046875 395 283.998046875 395 265.998046875 c 0
 395 248.665039062 393 237.998046875 389 233.998046875 c 0
 385 229.998046875 329.333007812 227.998046875 222 227.998046875 c 0
 145.333007812 227.998046875 99 228.331054688 83 228.998046875 c 0
 67 229.665039062 58 232.33203125 56 236.999023438 c 0
 53.3330078125 244.999023438 52 254.666015625 52 265.999023438 c 0
 52 277.999023438 53.3330078125 287.999023438 56 295.999023438 c 0
EndSplineSet
EndChar

StartChar: greater
Encoding: 62 62 33
Width: 450
GlyphClass: 2
Flags: W
LayerCount: 2
Fore
SplineSet
58 551 m 0
 58.6669921875 551.666992188 60.0009765625 552 62.0009765625 552 c 0
 70.66796875 552 152.66796875 513 308.000976562 435 c 2
 392.000976562 393 l 1
 395.000976562 371 l 2
 395.66796875 367.666992188 396.000976562 361.333984375 396.000976562 352.000976562 c 0
 396.000976562 342.000976562 395.333984375 335.000976562 394.000976562 331.000976562 c 0
 391.333984375 322.333984375 383.166992188 313.833984375 369.5 305.500976562 c 0
 355.833007812 297.16796875 310 273.66796875 232 235.000976562 c 0
 125.333007812 183.000976562 69.666015625 157.000976562 64.9990234375 157.000976562 c 0
 62.9990234375 157.000976562 61.33203125 157.500976562 59.9990234375 158.500976562 c 0
 58.666015625 159.500976562 57.4990234375 161.66796875 56.4990234375 165.000976562 c 0
 55.4990234375 168.333984375 54.83203125 172.000976562 54.4990234375 176.000976562 c 0
 54.166015625 180.000976562 53.666015625 186.333984375 52.9990234375 195.000976562 c 2
 52.9990234375 207.000976562 l 2
 52.9990234375 223.66796875 54.9990234375 233.66796875 58.9990234375 237.000976562 c 0
 68.9990234375 244.333984375 107.999023438 263.666992188 175.999023438 295 c 0
 252.666015625 331 290.999023438 349.666992188 290.999023438 351 c 0
 290.999023438 355 252.666015625 375 175.999023438 411 c 0
 98.666015625 447 58.3330078125 468 55 474 c 0
 53 479.333007812 52 489.333007812 52 504 c 0
 52 531.333007812 54 547 58 551 c 0
EndSplineSet
EndChar

StartChar: question
Encoding: 63 63 34
Width: 411
GlyphClass: 2
Flags: W
LayerCount: 2
Fore
SplineSet
136 673 m 0
 141.333007812 674.333007812 150.33203125 675 162.999023438 675 c 0
 165.666015625 675 170.499023438 674.833007812 177.499023438 674.5 c 0
 184.499023438 674.166992188 189.666015625 674 192.999023438 674 c 0
 220.999023438 673.333007812 243.83203125 669.5 261.499023438 662.5 c 0
 279.166015625 655.5 295.999023438 644.333007812 311.999023438 629 c 0
 343.33203125 598.333007812 358.999023438 560 358.999023438 514 c 0
 358.999023438 479.333007812 349.666015625 447.5 330.999023438 418.5 c 0
 312.33203125 389.5 286.999023438 370.666992188 254.999023438 362 c 0
 242.33203125 358.666992188 234.33203125 353.333984375 230.999023438 346.000976562 c 0
 227.666015625 338.66796875 225.999023438 323.000976562 225.999023438 299.000976562 c 0
 225.999023438 282.333984375 222.666015625 272.333984375 215.999023438 269.000976562 c 0
 210.666015625 265.66796875 198.999023438 264.000976562 180.999023438 264.000976562 c 0
 158.33203125 264.000976562 144.665039062 266.333984375 139.998046875 271.000976562 c 0
 136.665039062 275.66796875 134.33203125 297.66796875 132.999023438 337.000976562 c 2
 132.999023438 364.000976562 l 2
 132.999023438 385.333984375 134.999023438 398.833984375 138.999023438 404.500976562 c 0
 142.999023438 410.16796875 151.666015625 413.000976562 164.999023438 413.000976562 c 0
 208.999023438 413.000976562 236.33203125 433.333984375 246.999023438 474.000976562 c 0
 248.999023438 483.333984375 249.999023438 492.333984375 249.999023438 501.000976562 c 0
 249.999023438 538.333984375 237.33203125 565.333984375 211.999023438 582.000976562 c 0
 201.999023438 588.000976562 185.666015625 591.000976562 162.999023438 591.000976562 c 0
 136.33203125 591.000976562 112.999023438 587.000976562 92.9990234375 579.000976562 c 0
 80.33203125 573.66796875 71.9990234375 571.000976562 67.9990234375 571.000976562 c 0
 59.9990234375 571.000976562 55.9990234375 584.000976562 55.9990234375 610.000976562 c 0
 55.9990234375 629.333984375 58.9990234375 641.666992188 64.9990234375 647 c 0
 73.666015625 655 97.3330078125 663.666992188 136 673 c 0
139.999023438 210 m 0
 150.666015625 219.333007812 164.666015625 224 181.999023438 224 c 0
 199.999023438 224 214.33203125 219.333007812 224.999023438 210 c 0
 231.666015625 204.666992188 235.666015625 199.5 236.999023438 194.5 c 0
 238.33203125 189.5 238.999023438 179 238.999023438 163 c 0
 238.999023438 147 238.33203125 136.5 236.999023438 131.5 c 0
 235.666015625 126.5 231.666015625 121.333007812 224.999023438 116 c 0
 214.33203125 106.666992188 199.999023438 102 181.999023438 102 c 0
 164.666015625 102 150.666015625 106.666992188 139.999023438 116 c 0
 133.33203125 121.333007812 129.33203125 126.5 127.999023438 131.5 c 0
 126.666015625 136.5 125.999023438 147 125.999023438 163 c 0
 125.999023438 179 126.666015625 189.5 127.999023438 194.5 c 0
 129.33203125 199.5 133.33203125 204.666992188 139.999023438 210 c 0
EndSplineSet
EndChar

StartChar: at
Encoding: 64 64 35
Width: 742
GlyphClass: 2
Flags: W
LayerCount: 2
Fore
SplineSet
400 411 m 0
 388 423 375.333984375 428.997070312 362.000976562 428.997070312 c 0
 347.333984375 428.997070312 334.666992188 422.6640625 324 409.997070312 c 0
 314 398.6640625 306 382.831054688 300 362.498046875 c 0
 294 342.165039062 291 322.665039062 291 303.998046875 c 0
 291 284.665039062 294.333007812 271.33203125 301 263.999023438 c 0
 307 257.33203125 315.333007812 253.999023438 326 253.999023438 c 0
 338 253.999023438 351.666992188 258.999023438 367 268.999023438 c 0
 383 280.33203125 393.166992188 289.33203125 397.5 295.999023438 c 0
 401.833007812 302.666015625 406 316.333007812 410 337 c 0
 414.666992188 362.333007812 417 377 417 381 c 0
 417 389.666992188 411.333007812 399.666992188 400 411 c 0
339.000976562 650.997070312 m 0
 349.000976562 652.997070312 370.000976562 653.998046875 402.000976562 653.998046875 c 2
 430.000976562 653.998046875 l 2
 538.000976562 651.331054688 613.333984375 618.331054688 656.000976562 554.998046875 c 0
 678.66796875 520.331054688 690.000976562 474.998046875 690.000976562 418.998046875 c 0
 690.000976562 380.998046875 684.16796875 343.998046875 672.500976562 307.998046875 c 0
 660.833984375 271.998046875 644.666992188 243.665039062 624 222.998046875 c 0
 593.333007812 192.331054688 555.333007812 176.998046875 510 176.998046875 c 0
 475.333007812 176.998046875 449.666015625 186.665039062 432.999023438 205.998046875 c 0
 422.33203125 216.665039062 416.999023438 223.998046875 416.999023438 227.998046875 c 0
 416.999023438 228.665039062 416.666015625 228.998046875 415.999023438 228.998046875 c 0
 413.33203125 228.998046875 402.665039062 222.665039062 383.998046875 209.998046875 c 0
 351.331054688 187.331054688 321.6640625 175.998046875 294.997070312 175.998046875 c 0
 280.330078125 175.998046875 264.997070312 179.665039062 248.997070312 186.998046875 c 0
 216.997070312 202.331054688 200.997070312 236.6640625 200.997070312 289.997070312 c 0
 200.997070312 335.330078125 208.6640625 375.663085938 223.997070312 410.99609375 c 0
 236.6640625 440.329101562 255.1640625 463.49609375 279.497070312 480.49609375 c 0
 303.830078125 497.49609375 328.997070312 505.99609375 354.997070312 505.99609375 c 0
 383.6640625 505.99609375 406.997070312 495.99609375 424.997070312 475.99609375 c 0
 435.6640625 465.329101562 441.997070312 459.99609375 443.997070312 459.99609375 c 0
 445.997070312 459.99609375 447.997070312 465.663085938 449.997070312 476.99609375 c 0
 451.997070312 486.99609375 455.497070312 493.49609375 460.497070312 496.49609375 c 0
 465.497070312 499.49609375 475.6640625 500.99609375 490.997070312 500.99609375 c 2
 494.997070312 500.99609375 l 2
 505.6640625 500.99609375 512.831054688 499.99609375 516.498046875 497.99609375 c 0
 520.165039062 495.99609375 521.998046875 490.663085938 521.998046875 481.99609375 c 0
 521.998046875 471.99609375 517.331054688 443.663085938 507.998046875 396.99609375 c 0
 495.998046875 333.663085938 489.998046875 296.663085938 489.998046875 285.99609375 c 0
 489.998046875 276.663085938 492.665039062 268.99609375 497.998046875 262.99609375 c 0
 503.331054688 256.99609375 510.331054688 253.99609375 518.998046875 253.99609375 c 0
 542.331054688 253.99609375 561.331054688 268.163085938 575.998046875 296.49609375 c 0
 590.665039062 324.829101562 597.998046875 362.329101562 597.998046875 408.99609375 c 0
 597.998046875 410.99609375 597.831054688 414.329101562 597.498046875 418.99609375 c 0
 597.165039062 423.663085938 596.998046875 427.330078125 596.998046875 429.997070312 c 0
 595.665039062 457.997070312 591.83203125 479.6640625 585.499023438 494.997070312 c 0
 579.166015625 510.330078125 568.333007812 524.330078125 553 536.997070312 c 0
 535 551.6640625 516.166992188 561.6640625 496.5 566.997070312 c 0
 476.833007812 572.330078125 448 574.997070312 410 574.997070312 c 2
 387 574.997070312 l 2
 355.666992188 574.997070312 329.333984375 571.330078125 308.000976562 563.997070312 c 0
 246.000976562 541.997070312 201.000976562 501.330078125 173.000976562 441.997070312 c 0
 160.333984375 414.6640625 152.000976562 390.6640625 148.000976562 369.997070312 c 0
 144.000976562 349.330078125 142.000976562 318.997070312 142.000976562 278.997070312 c 0
 142.000976562 242.330078125 142.66796875 219.163085938 144.000976562 209.49609375 c 0
 145.333984375 199.829101562 149.666992188 187.99609375 157 173.99609375 c 0
 175 138.663085938 204.333007812 114.330078125 245 100.997070312 c 0
 268.333007812 94.330078125 301.333007812 90.9970703125 344 90.9970703125 c 0
 386.666992188 90.9970703125 424 94.330078125 456 100.997070312 c 0
 472 104.997070312 483.333007812 106.997070312 490 106.997070312 c 0
 500 106.997070312 505 99.9970703125 505 85.9970703125 c 0
 505 84.6640625 504.833007812 82.1640625 504.5 78.4970703125 c 0
 504.166992188 74.830078125 504 71.6630859375 504 68.99609375 c 0
 502 49.6630859375 498.333007812 38.330078125 493 34.9970703125 c 0
 473.666992188 20.9970703125 420.333984375 13.9970703125 333.000976562 13.9970703125 c 0
 283.000976562 13.9970703125 246.000976562 17.330078125 222.000976562 23.9970703125 c 0
 162.66796875 40.6640625 119.334960938 68.4970703125 92.001953125 107.497070312 c 0
 64.6689453125 146.497070312 51.001953125 200.330078125 51.001953125 268.997070312 c 0
 51.001953125 370.997070312 76.6689453125 456.1640625 128.001953125 524.497070312 c 0
 179.334960938 592.830078125 249.66796875 634.997070312 339.000976562 650.997070312 c 0
EndSplineSet
EndChar

StartChar: A
Encoding: 65 65 36
Width: 586
GlyphClass: 2
Flags: W
LayerCount: 2
Fore
SplineSet
358 322 m 0
 358 324.666992188 346.83203125 359.831054688 324.499023438 427.498046875 c 0
 302.166015625 495.165039062 290.333007812 529.33203125 289 529.999023438 c 0
 288.333007812 530.666015625 284.5 520.833007812 277.5 500.5 c 0
 270.5 480.166992188 261.666992188 454.666992188 251 424 c 2
 215 315 l 1
 286 315 l 2
 334 315 358 317.333007812 358 322 c 0
53.9990234375 129.997070312 m 0
 53.9990234375 134.6640625 81.4990234375 215.997070312 136.499023438 373.997070312 c 0
 191.499023438 531.997070312 218.999023438 611.6640625 218.999023438 612.997070312 c 0
 218.999023438 617.6640625 222.666015625 622.331054688 229.999023438 626.998046875 c 0
 239.33203125 632.998046875 261.999023438 635.998046875 297.999023438 635.998046875 c 0
 326.666015625 635.998046875 343.666015625 633.665039062 348.999023438 628.998046875 c 0
 354.999023438 624.331054688 376.33203125 570.6640625 412.999023438 467.997070312 c 0
 449.666015625 363.997070312 469.999023438 308.997070312 473.999023438 302.997070312 c 0
 479.999023438 292.997070312 491.166015625 263.1640625 507.499023438 213.497070312 c 0
 523.83203125 163.830078125 531.999023438 134.330078125 531.999023438 124.997070312 c 0
 531.999023438 117.6640625 515.666015625 113.997070312 482.999023438 113.997070312 c 0
 453.666015625 113.997070312 435.999023438 116.330078125 429.999023438 120.997070312 c 0
 423.999023438 125.6640625 415.666015625 145.331054688 404.999023438 179.998046875 c 2
 388.999023438 232.998046875 l 1
 189.999023438 232.998046875 l 1
 172.999023438 179.998046875 l 2
 162.33203125 145.331054688 153.999023438 125.6640625 147.999023438 120.997070312 c 0
 142.666015625 116.997070312 124.666015625 114.997070312 93.9990234375 114.997070312 c 0
 78.666015625 114.997070312 67.9990234375 115.997070312 61.9990234375 117.997070312 c 0
 56.666015625 119.997070312 53.9990234375 123.997070312 53.9990234375 129.997070312 c 0
EndSplineSet
EndChar

StartChar: B
Encoding: 66 66 37
Width: 481
GlyphClass: 2
Flags: W
LayerCount: 2
Fore
SplineSet
267 336 m 0
 255 339.333007812 232.666992188 341.002929688 200 341.002929688 c 2
 153 341.002929688 l 1
 153 197.002929688 l 1
 206 197.002929688 l 2
 246 197.669921875 274.666992188 203.002929688 292 213.002929688 c 0
 309.333007812 223.002929688 318 240.002929688 318 264.002929688 c 0
 318 265.3359375 317.833007812 267.168945312 317.5 269.501953125 c 0
 317.166992188 271.834960938 317 273.66796875 317 275.000976562 c 0
 313.666992188 306.333984375 297 326.666992188 267 336 c 0
291 497.002929688 m 0
 288.333007812 520.3359375 279.5 536.337890625 264.5 545.004882812 c 0
 249.5 553.671875 226 558.004882812 194 558.004882812 c 2
 153 558.004882812 l 1
 153 419.004882812 l 1
 196 419.004882812 l 2
 260 419.004882812 292 441.337890625 292 486.004882812 c 0
 292 487.337890625 291.833007812 489.170898438 291.5 491.50390625 c 0
 291.166992188 493.836914062 291 495.669921875 291 497.002929688 c 0
59 626.004882812 m 0
 62.3330078125 630.004882812 69.5 632.505859375 80.5 633.505859375 c 0
 91.5 634.505859375 117.333007812 635.005859375 158 635.005859375 c 0
 208.666992188 635.005859375 246.166992188 633.338867188 270.5 630.005859375 c 0
 294.833007812 626.672851562 316 620.33984375 334 611.006835938 c 0
 375.333007812 591.006835938 396 554.673828125 396 502.006835938 c 0
 396 459.33984375 382 428.672851562 354 410.005859375 c 0
 342.666992188 402.672851562 337 397.005859375 337 393.005859375 c 0
 337 389.672851562 340 388.005859375 346 388.005859375 c 0
 354 388.005859375 365.333007812 381.672851562 380 369.005859375 c 0
 394.666992188 356.338867188 405.333984375 343.671875 412.000976562 331.004882812 c 0
 422.66796875 312.337890625 428.000976562 291.337890625 428.000976562 268.004882812 c 0
 428.000976562 220.004882812 410.66796875 183.004882812 376.000976562 157.004882812 c 0
 352.66796875 139.671875 330.16796875 128.504882812 308.500976562 123.504882812 c 0
 286.833984375 118.504882812 244.666992188 115.671875 182 115.004882812 c 0
 173.333007812 115.004882812 162.5 114.837890625 149.5 114.504882812 c 0
 136.5 114.171875 128 114.004882812 124 114.004882812 c 0
 88 114.004882812 66.6669921875 117.004882812 60 123.004882812 c 0
 55.3330078125 127.004882812 52.5 141.337890625 51.5 166.004882812 c 0
 50.5 190.671875 50 260.004882812 50 374.004882812 c 0
 50 482.671875 50.5 550.671875 51.5 578.004882812 c 0
 52.5 605.337890625 55 621.337890625 59 626.004882812 c 0
EndSplineSet
EndChar

StartChar: C
Encoding: 67 67 38
Width: 489
GlyphClass: 2
Flags: W
LayerCount: 2
Fore
SplineSet
228 638 m 0
 244 642 262 644.000976562 282 644.000976562 c 0
 342 644.000976562 387.666992188 631.66796875 419 607.000976562 c 0
 426.333007812 601.000976562 430.833007812 595.500976562 432.5 590.500976562 c 0
 434.166992188 585.500976562 435 574.66796875 435 558.000976562 c 0
 435 527.333984375 430.333007812 512.000976562 421 512.000976562 c 0
 417 512.000976562 413.333007812 513.333984375 410 516.000976562 c 0
 372.666992188 540.000976562 341.333984375 553.333984375 316.000976562 556.000976562 c 0
 312.000976562 556.66796875 306.66796875 557.000976562 300.000976562 557.000976562 c 0
 248.66796875 557.000976562 211.000976562 531.000976562 187.000976562 479.000976562 c 0
 179.66796875 463.000976562 175.334960938 450.000976562 174.001953125 440.000976562 c 0
 172.668945312 430.000976562 172.001953125 407.333984375 172.001953125 372.000976562 c 2
 172.001953125 296.000976562 l 1
 190.001953125 261.000976562 l 2
 201.334960938 238.333984375 215.66796875 221.333984375 233.000976562 210.000976562 c 0
 244.333984375 202.66796875 253.833984375 198.16796875 261.500976562 196.500976562 c 0
 269.16796875 194.833984375 283.000976562 194.000976562 303.000976562 194.000976562 c 0
 323.000976562 194.000976562 337.16796875 195.000976562 345.500976562 197.000976562 c 0
 353.833984375 199.000976562 367.666992188 205.000976562 387 215.000976562 c 0
 406.333007812 225.000976562 419 230.000976562 425 230.000976562 c 0
 430.333007812 230.000976562 433.666015625 226.833984375 434.999023438 220.500976562 c 0
 436.33203125 214.16796875 436.999023438 202.66796875 436.999023438 186.000976562 c 0
 436.999023438 170.000976562 436.33203125 159.66796875 434.999023438 155.000976562 c 0
 433.666015625 150.333984375 429.999023438 145.666992188 423.999023438 141 c 0
 393.33203125 117 345.33203125 105 279.999023438 105 c 0
 260.666015625 105 244.333007812 106.333007812 231 109 c 0
 120.333007812 131 61 210 53 346 c 0
 52.3330078125 352 52 360.666992188 52 372 c 0
 52 440 67.5 497.5 98.5 544.5 c 0
 129.5 591.5 172.666992188 622.666992188 228 638 c 0
EndSplineSet
EndChar

StartChar: D
Encoding: 68 68 39
Width: 533
GlyphClass: 2
Flags: W
LayerCount: 2
Fore
SplineSet
261 547 m 0
 242.333007812 551 221.000976562 552.999023438 197.000976562 552.999023438 c 2
 158.000976562 552.999023438 l 1
 158.000976562 195.999023438 l 1
 211.000976562 197.999023438 l 2
 262.333984375 199.999023438 300.166992188 211.33203125 324.5 231.999023438 c 0
 348.833007812 252.666015625 364.333007812 286.999023438 371 334.999023438 c 0
 373 350.33203125 374 364.999023438 374 378.999023438 c 0
 374 423.666015625 364 460.833007812 344 490.5 c 0
 324 520.166992188 296.333007812 539 261 547 c 0
59.0009765625 625.999023438 m 0
 62.333984375 629.999023438 69.5009765625 632.499023438 80.5009765625 633.499023438 c 0
 91.5009765625 634.499023438 118.000976562 634.999023438 160.000976562 634.999023438 c 0
 228.000976562 634.999023438 278.66796875 631.33203125 312.000976562 623.999023438 c 0
 345.333984375 616.666015625 375.000976562 602.666015625 401.000976562 581.999023438 c 0
 450.333984375 543.999023438 477.000976562 482.666015625 481.000976562 397.999023438 c 1
 481.000976562 374.999023438 l 2
 481.000976562 307.666015625 467.833984375 253.999023438 441.500976562 213.999023438 c 0
 415.16796875 173.999023438 374.000976562 144.999023438 318.000976562 126.999023438 c 0
 300.66796875 121.666015625 254.66796875 117.999023438 180.000976562 115.999023438 c 0
 136.000976562 114.666015625 111.333984375 113.999023438 106.000976562 113.999023438 c 0
 82.0009765625 113.999023438 66.66796875 116.666015625 60.0009765625 121.999023438 c 0
 55.333984375 126.666015625 52.5009765625 140.166015625 51.5009765625 162.499023438 c 0
 50.5009765625 184.83203125 50.0009765625 255.33203125 50.0009765625 373.999023438 c 0
 50.0009765625 482.666015625 50.5009765625 550.666015625 51.5009765625 577.999023438 c 0
 52.5009765625 605.33203125 55.0009765625 621.33203125 59.0009765625 625.999023438 c 0
EndSplineSet
EndChar

StartChar: E
Encoding: 69 69 40
Width: 411
GlyphClass: 2
Flags: W
LayerCount: 2
Fore
SplineSet
59 626 m 0
 63.6669921875 631.333007812 87.66796875 633.999023438 131.000976562 633.999023438 c 2
 209.000976562 633.999023438 l 1
 352.000976562 631.999023438 l 1
 356.000976562 612.999023438 l 2
 357.333984375 608.999023438 358.000976562 602.666015625 358.000976562 593.999023438 c 0
 358.000976562 584.666015625 357.333984375 577.999023438 356.000976562 573.999023438 c 2
 352.000976562 554.999023438 l 1
 330.000976562 554.33203125 297.500976562 553.999023438 254.500976562 553.999023438 c 0
 211.500976562 553.999023438 179.333984375 553.666015625 158.000976562 552.999023438 c 1
 158.000976562 428.999023438 l 1
 237.000976562 428.999023438 l 2
 289.66796875 428.999023438 318.000976562 426.999023438 322.000976562 422.999023438 c 0
 326.000976562 418.999023438 328.000976562 405.33203125 328.000976562 381.999023438 c 0
 328.000976562 368.666015625 327.000976562 359.666015625 325.000976562 354.999023438 c 0
 322.333984375 348.999023438 294.000976562 345.999023438 240.000976562 345.999023438 c 2
 158.000976562 345.999023438 l 1
 158.000976562 196.999023438 l 1
 254.000976562 196.999023438 l 1
 268.000976562 196.999023438 l 2
 313.333984375 196.999023438 339.833984375 195.33203125 347.500976562 191.999023438 c 0
 355.16796875 188.666015625 359.000976562 177.333007812 359.000976562 158 c 2
 359.000976562 156 l 1
 359.000976562 145 l 2
 359.000976562 130.333007812 352.833984375 121.5 340.500976562 118.5 c 0
 328.16796875 115.5 291.000976562 114 229.000976562 114 c 2
 209.000976562 114 l 2
 147.000976562 114 107.500976562 114.5 90.5009765625 115.5 c 0
 73.5009765625 116.5 63.0009765625 119 59.0009765625 123 c 0
 54.333984375 127 51.6669921875 140.666992188 51 164 c 0
 50.3330078125 187.333007812 50 257.333007812 50 374 c 0
 50 482.666992188 50.5 550.666992188 51.5 578 c 0
 52.5 605.333007812 55 621.333007812 59 626 c 0
EndSplineSet
EndChar

StartChar: F
Encoding: 70 70 41
Width: 396
GlyphClass: 2
Flags: W
LayerCount: 2
Fore
SplineSet
59 626 m 0
 63 630.666992188 71.8330078125 633.33203125 85.5 633.999023438 c 0
 99.1669921875 634.666015625 137.666992188 634.999023438 201 634.999023438 c 2
 334 634.999023438 l 1
 339 621.999023438 l 2
 342.333007812 615.33203125 344 605.33203125 344 591.999023438 c 0
 344 577.999023438 342.333007812 567.666015625 339 560.999023438 c 2
 334 546.999023438 l 1
 158 546.999023438 l 1
 158 407.999023438 l 1
 176.666992188 407.999023438 204.666992188 407.666015625 242 406.999023438 c 0
 279.333007812 406.33203125 307.333007812 405.999023438 326 405.999023438 c 1
 330 386.999023438 l 2
 331.333007812 382.999023438 332 376.666015625 332 367.999023438 c 0
 332 358.666015625 331.333007812 351.999023438 330 347.999023438 c 2
 326 327.999023438 l 1
 307.333007812 327.999023438 279.333007812 327.666015625 242 326.999023438 c 0
 204.666992188 326.33203125 176.666992188 325.999023438 158 325.999023438 c 1
 158 124.999023438 l 1
 145 119.999023438 l 2
 137.666992188 116.666015625 123 114.999023438 101 114.999023438 c 0
 79 114.999023438 65.3330078125 116.666015625 60 119.999023438 c 0
 55.3330078125 122.666015625 52.5 135.999023438 51.5 159.999023438 c 0
 50.5 183.999023438 50 254.33203125 50 370.999023438 c 0
 50 480.999023438 50.5 549.83203125 51.5 577.499023438 c 0
 52.5 605.166015625 55 621.333007812 59 626 c 0
EndSplineSet
EndChar

StartChar: G
Encoding: 71 71 42
Width: 545
GlyphClass: 2
Flags: W
LayerCount: 2
Fore
SplineSet
250 638 m 0
 269.333007812 642.666992188 292.333007812 644.995117188 319 644.995117188 c 0
 376.333007812 644.995117188 423 635.662109375 459 616.995117188 c 0
 474.333007812 608.995117188 484.166015625 601.328125 488.499023438 593.995117188 c 0
 492.83203125 586.662109375 494.999023438 573.329101562 494.999023438 553.99609375 c 0
 494.999023438 538.663085938 494.33203125 528.163085938 492.999023438 522.49609375 c 0
 491.666015625 516.829101562 488.333007812 513.99609375 483 513.99609375 c 0
 477.666992188 513.99609375 465 518.663085938 445 527.99609375 c 0
 404.333007812 547.329101562 364.666015625 556.99609375 325.999023438 556.99609375 c 0
 255.999023438 556.99609375 206.33203125 525.663085938 176.999023438 462.99609375 c 0
 170.33203125 448.329101562 166.33203125 436.329101562 164.999023438 426.99609375 c 0
 163.666015625 417.663085938 162.999023438 399.330078125 162.999023438 371.997070312 c 0
 162.999023438 342.6640625 163.83203125 323.6640625 165.499023438 314.997070312 c 0
 167.166015625 306.330078125 172.333007812 293.330078125 181 275.997070312 c 0
 209.666992188 219.997070312 255.333984375 191.997070312 318.000976562 191.997070312 c 0
 319.333984375 191.997070312 321.666992188 192.1640625 325 192.497070312 c 0
 328.333007812 192.830078125 331 192.997070312 333 192.997070312 c 0
 360.333007812 195.6640625 376.166015625 199.831054688 380.499023438 205.498046875 c 0
 384.83203125 211.165039062 386.999023438 231.33203125 386.999023438 265.999023438 c 2
 386.999023438 324.999023438 l 1
 333.999023438 326.999023438 l 1
 281.999023438 327.999023438 l 1
 276.999023438 347.999023438 l 2
 275.666015625 351.999023438 274.999023438 358.666015625 274.999023438 367.999023438 c 0
 274.999023438 376.666015625 275.666015625 382.999023438 276.999023438 386.999023438 c 2
 281.999023438 405.999023438 l 1
 378.999023438 406.999023438 l 1
 422.999023438 406.999023438 l 2
 460.33203125 406.999023438 481.33203125 404.666015625 485.999023438 399.999023438 c 0
 490.666015625 395.999023438 493.333007812 387.83203125 494 375.499023438 c 0
 494.666992188 363.166015625 495 328.333007812 495 271 c 2
 495 230 l 2
 495 180.666992188 491.666992188 151.333984375 485 142.000976562 c 0
 480.333007812 135.333984375 465 128.333984375 439 121.000976562 c 2
 433 119.000976562 l 2
 403.666992188 111.000976562 365 107.000976562 317 107.000976562 c 0
 272.333007812 107.000976562 238.333007812 111.000976562 215 119.000976562 c 0
 106.333007812 159.000976562 52 242.66796875 52 370.000976562 c 0
 52 440.66796875 69.5 499.66796875 104.5 547.000976562 c 0
 139.5 594.333984375 188 624.666992188 250 638 c 0
EndSplineSet
EndChar

StartChar: H
Encoding: 72 72 43
Width: 507
GlyphClass: 2
Flags: W
LayerCount: 2
Fore
SplineSet
363 637 m 0
 369.666992188 639 381.333007812 639.998046875 398 639.998046875 c 0
 424 639.998046875 440.333007812 638.331054688 447 634.998046875 c 0
 451.666992188 632.331054688 454.5 618.498046875 455.5 593.498046875 c 0
 456.5 568.498046875 457 496.331054688 457 376.998046875 c 0
 457 250.998046875 456.5 177.331054688 455.5 155.998046875 c 0
 454.5 134.665039062 451.333007812 122.33203125 446 118.999023438 c 0
 439.333007812 116.33203125 427.333007812 114.999023438 410 114.999023438 c 0
 378.666992188 114.999023438 360.666992188 117.33203125 356 121.999023438 c 0
 353.333007812 124.666015625 352 161.333007812 352 232 c 2
 352 339 l 1
 330 339.666992188 297.5 340 254.5 340 c 0
 211.5 340 179.333007812 340.333007812 158 341 c 1
 158 125 l 1
 145 120 l 2
 137.666992188 116.666992188 123 115 101 115 c 0
 79 115 65.3330078125 116.666992188 60 120 c 0
 55.3330078125 122.666992188 52.5 136.166992188 51.5 160.5 c 0
 50.5 184.833007812 50 256.333007812 50 375 c 0
 50 493.666992188 50.5 565.166992188 51.5 589.5 c 0
 52.5 613.833007812 55.3330078125 627.333007812 60 630 c 0
 65.3330078125 633.333007812 79 635 101 635 c 0
 123 635 137.666992188 633.333007812 145 630 c 2
 158 625 l 1
 158 434 l 1
 255 435 l 1
 352 437 l 1
 350 521 l 2
 350 527.666992188 349.833007812 536.5 349.5 547.5 c 0
 349.166992188 558.5 349 566 349 570 c 0
 349 612.666992188 353.666992188 635 363 637 c 0
EndSplineSet
EndChar

StartChar: I
Encoding: 73 73 44
Width: 208
GlyphClass: 2
Flags: W
LayerCount: 2
Fore
SplineSet
62 635 m 2
 70.6669921875 638.333007812 84.3330078125 640 103 640 c 0
 122.333007812 640 136.333007812 638.333007812 145 635 c 2
 158 630 l 1
 158 380 l 2
 158 261.333007812 157.5 189.833007812 156.5 165.5 c 0
 155.5 141.166992188 152.666992188 127.666992188 148 125 c 0
 142.666992188 121.666992188 129 120 107 120 c 0
 85 120 70.3330078125 121.666992188 63 125 c 2
 50 130 l 1
 50 630 l 1
 62 635 l 2
EndSplineSet
EndChar

StartChar: J
Encoding: 74 74 45
Width: 320
GlyphClass: 2
Flags: W
LayerCount: 2
Fore
SplineSet
168 635 m 0
 172 638.333007812 186.33203125 639.998046875 210.999023438 639.998046875 c 0
 235.666015625 639.998046875 250.333007812 638.331054688 255 634.998046875 c 0
 259.666992188 632.331054688 262.5 621.331054688 263.5 601.998046875 c 0
 264.5 582.665039062 266 522.998046875 268 422.998046875 c 0
 269.333007812 329.665039062 270 280.33203125 270 274.999023438 c 0
 270 233.666015625 266.666992188 203.999023438 260 185.999023438 c 0
 240.666992188 134.666015625 200 108.999023438 138 108.999023438 c 0
 102.666992188 108.999023438 78 115.999023438 64 129.999023438 c 0
 57.3330078125 136.666015625 54 151.333007812 54 174 c 0
 54 191.333007812 56.3330078125 203.333007812 61 210 c 0
 65 214.666992188 68.3330078125 217 71 217 c 0
 73.6669921875 217 80 215 90 211 c 0
 104.666992188 205.666992188 115.666992188 203 123 203 c 0
 133 203 142 207 150 215 c 2
 164 228 l 1
 162 429 l 2
 161.333007812 463 161 502.333007812 161 547 c 0
 161 603 163.333007812 632.333007812 168 635 c 0
EndSplineSet
EndChar

StartChar: K
Encoding: 75 75 46
Width: 483
GlyphClass: 2
Flags: W
LayerCount: 2
Fore
SplineSet
57 634 m 0
 61 637.333007812 74.3349609375 638.999023438 97.001953125 638.999023438 c 0
 120.334960938 638.999023438 135.334960938 637.33203125 142.001953125 633.999023438 c 2
 155.001953125 628.999023438 l 1
 155.001953125 519.999023438 l 2
 155.001953125 449.33203125 156.668945312 413.999023438 160.001953125 413.999023438 c 0
 162.668945312 413.999023438 189.668945312 450.999023438 241.001953125 524.999023438 c 0
 291.668945312 597.666015625 321.3359375 634.999023438 330.002929688 636.999023438 c 0
 338.002929688 638.33203125 346.3359375 638.999023438 355.002929688 638.999023438 c 0
 393.002929688 638.999023438 415.002929688 635.999023438 421.002929688 629.999023438 c 0
 423.002929688 627.999023438 424.002929688 625.666015625 424.002929688 622.999023438 c 0
 424.002929688 613.666015625 394.3359375 570.333007812 335.002929688 493 c 0
 287.669921875 432.333007812 264.002929688 401 264.002929688 399 c 0
 264.002929688 396.333007812 291.669921875 354 347.002929688 272 c 0
 402.3359375 188.666992188 430.002929688 143.666992188 430.002929688 137 c 0
 430.002929688 130.333007812 426.669921875 125 420.002929688 121 c 0
 413.3359375 117.666992188 397.002929688 116 371.002929688 116 c 0
 353.002929688 116 341.002929688 117 335.002929688 119 c 0
 330.3359375 121 302.3359375 161 251.002929688 239 c 0
 198.3359375 320.333007812 170.668945312 362.333007812 168.001953125 365 c 0
 167.334960938 365.666992188 166.66796875 366 166.000976562 366 c 0
 162.000976562 366 160.000976562 327 160.000976562 249 c 2
 160.000976562 126 l 1
 146.000976562 121 l 2
 140.000976562 118.333007812 128.000976562 117 110.000976562 117 c 0
 79.333984375 117 61.6669921875 119.333007812 57 124 c 0
 54.3330078125 126.666992188 52.3330078125 211.666992188 51 379 c 0
 50.3330078125 421 50 470 50 526 c 0
 50 595.333007812 52.3330078125 631.333007812 57 634 c 0
EndSplineSet
EndChar

StartChar: L
Encoding: 76 76 47
Width: 393
GlyphClass: 2
Flags: W
LayerCount: 2
Fore
SplineSet
59 634 m 0
 64.3330078125 637.333007812 78 639 100 639 c 0
 123.333007812 639 138.333007812 637.333007812 145 634 c 2
 159 629 l 1
 159 204 l 1
 244 204 l 1
 256 204 l 2
 298 204 322.5 202.166992188 329.5 198.5 c 0
 336.5 194.833007812 340 182 340 160 c 2
 340 149 l 2
 340 133 335 123.5 325 120.5 c 0
 315 117.5 284 116 232 116 c 2
 199 116 l 2
 141.666992188 116 105 116.5 89 117.5 c 0
 73 118.5 63 121 59 125 c 0
 54.3330078125 129 51.666015625 142.833007812 50.9990234375 166.5 c 0
 50.33203125 190.166992188 49.9990234375 261.666992188 49.9990234375 381 c 0
 49.9990234375 499 50.33203125 570 50.9990234375 594 c 0
 51.666015625 618 54.3330078125 631.333007812 59 634 c 0
EndSplineSet
EndChar

StartChar: M
Encoding: 77 77 48
Width: 711
GlyphClass: 2
Flags: W
LayerCount: 2
Fore
SplineSet
63 626 m 2
 69 632 75.337890625 635.666992188 82.0048828125 637 c 0
 88.671875 638.333007812 104.671875 639 130.004882812 639 c 0
 184.671875 639 217.338867188 630 228.005859375 612 c 0
 232.672851562 606 254.672851562 548.666992188 294.005859375 440 c 0
 333.338867188 330 354.005859375 275 356.005859375 275 c 0
 358.672851562 275 372.33984375 307 397.006835938 371 c 0
 442.33984375 491.666992188 470.33984375 565.333984375 481.006835938 592.000976562 c 0
 489.006835938 612.66796875 498.673828125 625.66796875 510.006835938 631.000976562 c 0
 521.33984375 636.333984375 544.672851562 639.000976562 580.005859375 639.000976562 c 0
 606.005859375 639.000976562 622.338867188 638.333984375 629.005859375 637.000976562 c 0
 635.672851562 635.66796875 642.005859375 632.000976562 648.005859375 626.000976562 c 2
 661.005859375 614.000976562 l 1
 661.005859375 370.000976562 l 2
 661.005859375 250.66796875 660.672851562 180.000976562 660.005859375 158.000976562 c 0
 659.338867188 136.000976562 656.671875 123.66796875 652.004882812 121.000976562 c 0
 645.337890625 117.66796875 631.337890625 116.000976562 610.004882812 116.000976562 c 0
 594.671875 116.000976562 583.004882812 117.000976562 575.004882812 119.000976562 c 2
 563.004882812 122.000976562 l 1
 563.004882812 329.000976562 l 2
 563.004882812 468.333984375 561.337890625 538.000976562 558.004882812 538.000976562 c 0
 555.337890625 538.000976562 529.670898438 470.333984375 481.00390625 335.000976562 c 0
 432.336914062 197.66796875 404.669921875 127.000976562 398.002929688 123.000976562 c 0
 392.002929688 118.333984375 377.3359375 116.000976562 354.002929688 116.000976562 c 0
 335.3359375 116.000976562 321.668945312 117.66796875 313.001953125 121.000976562 c 0
 308.334960938 123.000976562 301.16796875 136.000976562 291.500976562 160.000976562 c 0
 281.833984375 184.000976562 262.000976562 239.333984375 232.000976562 326.000976562 c 0
 184.000976562 466.000976562 159.333984375 536.000976562 158.000976562 536.000976562 c 0
 155.333984375 536.000976562 154.000976562 470.333984375 154.000976562 339.000976562 c 0
 154.000976562 203.66796875 152.000976562 132.66796875 148.000976562 126.000976562 c 0
 143.333984375 119.333984375 126.000976562 116.000976562 96.0009765625 116.000976562 c 0
 79.333984375 116.000976562 67.6669921875 117.66796875 61 121.000976562 c 0
 55.6669921875 124.333984375 52.5 136.166992188 51.5 156.5 c 0
 50.5 176.833007812 50 248 50 370 c 2
 50 614 l 1
 63 626 l 2
EndSplineSet
EndChar

StartChar: N
Encoding: 78 78 49
Width: 530
GlyphClass: 2
Flags: W
LayerCount: 2
Fore
SplineSet
68 633 m 0
 75.3330078125 637 93.9990234375 638.999023438 123.999023438 638.999023438 c 0
 154.666015625 638.999023438 173.999023438 636.999023438 181.999023438 632.999023438 c 0
 191.999023438 627.666015625 202.999023438 614.333007812 214.999023438 593 c 0
 228.999023438 569 255.33203125 520.5 293.999023438 447.5 c 0
 332.666015625 374.5 356.666015625 327.666992188 365.999023438 307 c 0
 376.666015625 283.666992188 382.999023438 272 384.999023438 272 c 0
 386.33203125 272 386.999023438 330.666992188 386.999023438 448 c 0
 386.999023438 566.666992188 388.666015625 628 391.999023438 632 c 0
 395.999023438 636.666992188 410.666015625 639 435.999023438 639 c 0
 457.33203125 639 469.999023438 637 473.999023438 633 c 0
 477.999023438 629 479.999023438 545.333007812 479.999023438 382 c 2
 479.999023438 137 l 1
 468.999023438 126 l 2
 462.33203125 119.333007812 444.999023438 116 416.999023438 116 c 0
 392.999023438 116 376.166015625 118 366.499023438 122 c 0
 356.83203125 126 347.665039062 134.333007812 338.998046875 147 c 0
 319.665039062 175.666992188 270.665039062 266.333984375 191.998046875 419.000976562 c 2
 143.998046875 511.000976562 l 1
 146.998046875 323.000976562 l 2
 147.665039062 295.66796875 147.998046875 261.000976562 147.998046875 219.000976562 c 0
 147.998046875 160.333984375 146.665039062 129.666992188 143.998046875 127 c 0
 139.331054688 120.333007812 121.998046875 117 91.998046875 117 c 0
 76.6650390625 117 66.33203125 118.333007812 60.9990234375 121 c 0
 55.666015625 123.666992188 52.4990234375 135.5 51.4990234375 156.5 c 0
 50.4990234375 177.5 49.9990234375 249.333007812 49.9990234375 372 c 0
 49.9990234375 534.666992188 51.33203125 618 53.9990234375 622 c 0
 56.666015625 626 61.3330078125 629.666992188 68 633 c 0
EndSplineSet
EndChar

StartChar: O
Encoding: 79 79 50
Width: 597
GlyphClass: 2
Flags: W
LayerCount: 2
Fore
SplineSet
343 556 m 0
 330.333007812 559.333007812 315.999023438 560.999023438 299.999023438 560.999023438 c 0
 265.33203125 560.999023438 235.999023438 548.999023438 211.999023438 524.999023438 c 0
 193.999023438 507.666015625 182.166015625 489.166015625 176.499023438 469.499023438 c 0
 170.83203125 449.83203125 167.999023438 418.33203125 167.999023438 374.999023438 c 0
 167.999023438 334.33203125 170.499023438 303.999023438 175.499023438 283.999023438 c 0
 180.499023438 263.999023438 190.33203125 245.999023438 204.999023438 229.999023438 c 0
 226.33203125 205.33203125 258.33203125 192.999023438 300.999023438 192.999023438 c 0
 314.999023438 192.999023438 328.999023438 194.999023438 342.999023438 198.999023438 c 0
 354.999023438 202.33203125 368.166015625 210.33203125 382.499023438 222.999023438 c 0
 396.83203125 235.666015625 406.999023438 248.333007812 412.999023438 261 c 0
 426.999023438 289 433.999023438 328.333007812 433.999023438 379 c 0
 433.999023438 431.666992188 426.999023438 472.333984375 412.999023438 501.000976562 c 0
 406.33203125 513.66796875 396.33203125 525.16796875 382.999023438 535.500976562 c 0
 369.666015625 545.833984375 356.333007812 552.666992188 343 556 c 0
230.999023438 640.999023438 m 0
 252.33203125 646.33203125 276.998046875 648.997070312 304.998046875 648.997070312 c 0
 329.665039062 648.997070312 354.33203125 646.6640625 378.999023438 641.997070312 c 0
 463.666015625 623.997070312 516.999023438 569.6640625 538.999023438 478.997070312 c 0
 543.666015625 458.330078125 545.999023438 427.330078125 545.999023438 385.997070312 c 0
 545.999023438 344.6640625 543.666015625 313.331054688 538.999023438 291.998046875 c 0
 526.999023438 242.665039062 504.999023438 202.33203125 472.999023438 170.999023438 c 0
 440.999023438 139.666015625 401.33203125 119.333007812 353.999023438 110 c 0
 335.999023438 106.666992188 318.33203125 105 300.999023438 105 c 0
 234.33203125 105 181.33203125 118.666992188 141.999023438 146 c 0
 113.999023438 166 91.9990234375 196.166992188 75.9990234375 236.5 c 0
 59.9990234375 276.833007812 51.9990234375 321.666015625 51.9990234375 370.999023438 c 0
 51.9990234375 384.33203125 52.33203125 394.665039062 52.9990234375 401.998046875 c 0
 62.9990234375 534.665039062 122.33203125 614.33203125 230.999023438 640.999023438 c 0
EndSplineSet
EndChar

StartChar: P
Encoding: 80 80 51
Width: 459
GlyphClass: 2
Flags: W
LayerCount: 2
Fore
SplineSet
296 470 m 0
 295.333007812 502 287.166992188 524.333007812 271.5 537 c 0
 255.833007812 549.666992188 231 556 197 556 c 2
 159 556 l 1
 159 380 l 1
 194 380 l 2
 262 380 296 410 296 470 c 0
61.0009765625 630 m 0
 67.0009765625 636 82.3349609375 639.001953125 107.001953125 639.001953125 c 0
 132.334960938 639.001953125 155.334960938 638.668945312 176.001953125 638.001953125 c 0
 238.001953125 636.668945312 280.168945312 633.001953125 302.501953125 627.001953125 c 0
 324.834960938 621.001953125 346.001953125 608.001953125 366.001953125 588.001953125 c 0
 393.334960938 561.334960938 407.001953125 526.66796875 407.001953125 484.000976562 c 0
 407.001953125 482.000976562 406.834960938 479.000976562 406.501953125 475.000976562 c 0
 406.168945312 471.000976562 406.001953125 468.000976562 406.001953125 466.000976562 c 0
 403.334960938 415.333984375 386.334960938 375.666992188 355.001953125 347 c 0
 337.001953125 331 317.668945312 319.333007812 297.001953125 312 c 0
 276.334960938 304.666992188 249.001953125 300.333984375 215.001953125 299.000976562 c 2
 159.001953125 296.000976562 l 1
 159.001953125 215.000976562 l 2
 159.001953125 160.333984375 157.334960938 130.666992188 154.001953125 126 c 0
 149.334960938 119.333007812 130.66796875 116 98.0009765625 116 c 0
 80.0009765625 116 67.66796875 117.666992188 61.0009765625 121 c 0
 55.66796875 123.666992188 52.5009765625 135.666992188 51.5009765625 157 c 0
 50.5009765625 178.333007812 50.0009765625 250.333007812 50.0009765625 373 c 0
 50.0009765625 495 50.5009765625 567 51.5009765625 589 c 0
 52.5009765625 611 55.66796875 624.666992188 61.0009765625 630 c 0
EndSplineSet
EndChar

StartChar: Q
Encoding: 81 81 52
Width: 655
GlyphClass: 2
Flags: W
LayerCount: 2
Fore
SplineSet
347 561 m 0
 337 564.333007812 321.666992188 565.997070312 301 565.997070312 c 0
 281.666992188 565.997070312 266 564.330078125 254 560.997070312 c 0
 239.333007812 556.997070312 224 546.6640625 208 529.997070312 c 0
 192 513.330078125 181 495.997070312 175 477.997070312 c 0
 167.666992188 455.997070312 164 424.330078125 164 382.997070312 c 0
 164 334.330078125 168.666992188 298.663085938 178 275.99609375 c 0
 197.333007812 225.329101562 236.666015625 199.99609375 295.999023438 199.99609375 c 0
 303.999023438 199.99609375 309.999023438 200.329101562 313.999023438 200.99609375 c 0
 342.666015625 203.663085938 367.166015625 214.330078125 387.499023438 232.997070312 c 0
 407.83203125 251.6640625 421.33203125 276.331054688 427.999023438 306.998046875 c 0
 431.999023438 326.998046875 433.999023438 352.665039062 433.999023438 383.998046875 c 0
 433.999023438 425.331054688 430.999023438 455.998046875 424.999023438 475.998046875 c 0
 419.666015625 494.665039062 409.333007812 512.33203125 394 528.999023438 c 0
 378.666992188 545.666015625 363 556.333007812 347 561 c 0
52 377.997070312 m 0
 52 451.330078125 67.3330078125 511 98 557 c 0
 128.666992188 603 173.333984375 633.333007812 232.000976562 648 c 0
 250.000976562 652.666992188 271.66796875 655 297.000976562 655 c 0
 352.333984375 655 397.333984375 646.333007812 432.000976562 629 c 0
 502.66796875 593 540.334960938 520.333007812 545.001953125 411 c 0
 545.001953125 407.666992188 545.168945312 402.666992188 545.501953125 396 c 0
 545.834960938 389.333007812 546.001953125 384.666015625 546.001953125 381.999023438 c 0
 546.001953125 307.999023438 529.668945312 248.33203125 497.001953125 202.999023438 c 2
 479.001953125 177.999023438 l 1
 504.001953125 159.999023438 l 2
 520.001953125 147.999023438 538.001953125 138.33203125 558.001953125 130.999023438 c 0
 577.334960938 123.666015625 589.001953125 115.666015625 593.001953125 106.999023438 c 0
 596.334960938 98.33203125 598.001953125 87.33203125 598.001953125 73.9990234375 c 0
 598.001953125 61.33203125 596.334960938 49.9990234375 593.001953125 39.9990234375 c 0
 589.668945312 32.666015625 585.3359375 28.9990234375 580.002929688 28.9990234375 c 0
 575.3359375 28.9990234375 571.002929688 29.33203125 567.002929688 29.9990234375 c 0
 546.3359375 33.33203125 522.168945312 42.6650390625 494.501953125 57.998046875 c 0
 466.834960938 73.3310546875 441.66796875 91.3310546875 419.000976562 111.998046875 c 2
 398.000976562 131.998046875 l 1
 375.000976562 122.998046875 l 2
 354.333984375 115.665039062 324.666992188 111.998046875 286 111.998046875 c 0
 264 111.998046875 246 113.331054688 232 115.998046875 c 0
 171.333007812 126.665039062 126.333007812 153.165039062 97 195.498046875 c 0
 67.6669921875 237.831054688 52.6669921875 298.6640625 52 377.997070312 c 0
EndSplineSet
EndChar

StartChar: R
Encoding: 82 82 53
Width: 491
GlyphClass: 2
Flags: W
LayerCount: 2
Fore
SplineSet
299 494 m 0
 299 539.333007812 265 562 197 562 c 2
 159 562 l 1
 159 417 l 1
 199 417 l 2
 234.333007812 417.666992188 259.833007812 424 275.5 436 c 0
 291.166992188 448 299 467.333007812 299 494 c 0
59 636 m 0
 65 642 83.3330078125 645.000976562 114 645.000976562 c 0
 140 645.000976562 162.666992188 644.66796875 182 644.000976562 c 0
 246 642.66796875 288 639.834960938 308 635.501953125 c 0
 328 631.168945312 347.333007812 621.001953125 366 605.001953125 c 0
 392 583.001953125 407 554.334960938 411 519.001953125 c 0
 411.666992188 515.668945312 412 510.3359375 412 503.002929688 c 0
 412 476.3359375 404.833007812 451.502929688 390.5 428.502929688 c 0
 376.166992188 405.502929688 357.666992188 388.669921875 335 378.002929688 c 2
 314 368.002929688 l 1
 332 353.002929688 l 2
 344 343.002929688 354.666992188 329.669921875 364 313.002929688 c 0
 373.333007812 296.3359375 387.666015625 265.668945312 406.999023438 221.001953125 c 0
 426.999023438 173.668945312 436.999023438 145.001953125 436.999023438 135.001953125 c 0
 436.999023438 129.668945312 434.666015625 126.001953125 429.999023438 124.001953125 c 0
 423.999023438 122.001953125 412.33203125 121.001953125 394.999023438 121.001953125 c 0
 360.999023438 121.001953125 340.33203125 123.334960938 332.999023438 128.001953125 c 0
 329.666015625 130.001953125 318.333007812 154.668945312 299 202.001953125 c 0
 276.333007812 260.001953125 258 297.334960938 244 314.001953125 c 0
 230 330.668945312 209.666992188 339.001953125 183 339.001953125 c 2
 159 339.001953125 l 1
 159 239.001953125 l 2
 159 172.334960938 157.333007812 136.66796875 154 132.000976562 c 0
 149.333007812 125.333984375 129.666015625 122.000976562 94.9990234375 122.000976562 c 0
 77.666015625 122.000976562 66.3330078125 123.333984375 61 126.000976562 c 0
 55.6669921875 128.66796875 52.5 140.66796875 51.5 162.000976562 c 0
 50.5 183.333984375 50 255.666992188 50 379 c 0
 50 491.666992188 50.5 561.5 51.5 588.5 c 0
 52.5 615.5 55 631.333007812 59 636 c 0
EndSplineSet
EndChar

StartChar: S
Encoding: 83 83 54
Width: 446
GlyphClass: 2
Flags: W
LayerCount: 2
Fore
SplineSet
175 643 m 0
 188.333007812 646.333007812 204.999023438 647.999023438 224.999023438 647.999023438 c 0
 264.999023438 647.999023438 294.999023438 644.33203125 314.999023438 636.999023438 c 0
 337.666015625 628.33203125 351.166015625 621.33203125 355.499023438 615.999023438 c 0
 359.83203125 610.666015625 361.999023438 596.999023438 361.999023438 574.999023438 c 0
 361.999023438 549.666015625 359.999023438 535.666015625 355.999023438 532.999023438 c 2
 353.999023438 532.999023438 l 2
 348.666015625 532.999023438 335.333007812 537.666015625 314 546.999023438 c 0
 290 558.33203125 265 563.999023438 239 563.999023438 c 0
 220.333007812 563.999023438 208.5 563.33203125 203.5 561.999023438 c 0
 198.5 560.666015625 192.333007812 555.666015625 185 546.999023438 c 0
 175 535.666015625 170 522.999023438 170 508.999023438 c 0
 170 496.999023438 174 485.999023438 182 475.999023438 c 0
 190 466.666015625 216.666992188 450.666015625 262 427.999023438 c 0
 314 403.33203125 348.666992188 380.33203125 366 358.999023438 c 0
 383.333007812 337.666015625 392.333007812 307.999023438 393 269.999023438 c 0
 393 252.666015625 392 239.833007812 390 231.5 c 0
 388 223.166992188 383.333007812 212 376 198 c 0
 348 143.333007812 296 113 220 107 c 0
 215.333007812 106.333007812 208.666015625 106 199.999023438 106 c 0
 171.999023438 106 144.83203125 110 118.499023438 118 c 0
 92.166015625 126 73.3330078125 135.666992188 62 147 c 0
 54.6669921875 154.333007812 51 169 51 191 c 0
 51 219 56 233 66 233 c 0
 71.3330078125 233 79.666015625 230 90.9990234375 224 c 0
 125.666015625 204.666992188 160.333007812 195 195 195 c 0
 221 195 242.333007812 200.833007812 259 212.5 c 0
 275.666992188 224.166992188 284 240.333984375 284 261.000976562 c 0
 284 273.66796875 277.5 285.66796875 264.5 297.000976562 c 0
 251.5 308.333984375 227.666992188 322.666992188 193 340 c 0
 155 358.666992188 128 374.166992188 112 386.5 c 0
 96 398.833007812 83.6669921875 414.333007812 75 433 c 0
 65.6669921875 451.666992188 61 473.333984375 61 498.000976562 c 0
 61 573.333984375 99 621.666992188 175 643 c 0
EndSplineSet
EndChar

StartChar: T
Encoding: 84 84 55
Width: 507
GlyphClass: 2
Flags: W
LayerCount: 2
Fore
SplineSet
60 633 m 0
 63.3330078125 636.333007812 101.666992188 637.999023438 175 637.999023438 c 2
 259 637.999023438 l 1
 450 636.999023438 l 1
 452 605.999023438 l 2
 452.666992188 598.666015625 453 589.999023438 453 579.999023438 c 0
 453 566.666015625 449.5 558.499023438 442.5 555.499023438 c 0
 435.5 552.499023438 418.666992188 550.999023438 392 550.999023438 c 2
 377 550.999023438 l 1
 307 550.999023438 l 1
 308 338.999023438 l 2
 308.666992188 296.33203125 309 248.999023438 309 196.999023438 c 0
 309 148.999023438 307 123.666015625 303 120.999023438 c 0
 299 117.666015625 285.666992188 115.999023438 263 115.999023438 c 0
 239.666992188 115.999023438 224.666992188 117.666015625 218 120.999023438 c 0
 211.333007812 123.666015625 207.333007812 127.833007812 206 133.5 c 0
 204.666992188 139.166992188 204 157 204 187 c 0
 204 246.333007812 203 317.333007812 201 400 c 2
 198 551 l 1
 132 551 l 2
 88.6669921875 551 64.6669921875 553.333007812 60 558 c 0
 56 562 54 574.666992188 54 596 c 0
 54 616.666992188 56 629 60 633 c 0
EndSplineSet
EndChar

StartChar: U
Encoding: 85 85 56
Width: 525
GlyphClass: 2
Flags: W
LayerCount: 2
Fore
SplineSet
58 633 m 0
 62 636.333007812 73.0009765625 637.999023438 91.0009765625 637.999023438 c 2
 108.000976562 637.999023438 l 2
 134.66796875 636.666015625 148.66796875 635.333007812 150.000976562 634 c 0
 152.000976562 630 153.66796875 570.333007812 155.000976562 455 c 0
 156.333984375 357.666992188 158.333984375 298.166992188 161.000976562 276.5 c 0
 163.66796875 254.833007812 172.334960938 237 187.001953125 223 c 0
 207.001953125 203.666992188 231.668945312 194 261.001953125 194 c 0
 285.001953125 194 306.834960938 200.666992188 326.501953125 214 c 0
 346.168945312 227.333007812 359.001953125 245.333007812 365.001953125 268 c 0
 369.001953125 284 371.001953125 348 371.001953125 460 c 2
 371.001953125 523 l 2
 371.001953125 576.333007812 372.668945312 609 376.001953125 621 c 0
 379.334960938 633 388.66796875 639 404.000976562 639 c 2
 423.000976562 639 l 1
 442.000976562 639 l 2
 457.333984375 639 466.666992188 632.833007812 470 620.5 c 0
 473.333007812 608.166992188 475 573.333984375 475 516.000976562 c 2
 475 448.000976562 l 2
 475 329.333984375 471.666992188 258.666992188 465 236 c 0
 446.333007812 178 407.333007812 138.666992188 348 118 c 0
 330 111.333007812 302 108 264 108 c 0
 218 108 184.333007812 112.333007812 163 121 c 0
 119 138.333007812 87 168 67 210 c 2
 52 243 l 1
 51 435 l 2
 50.3330078125 473 50 515 50 561 c 0
 50 604.333007812 52.6669921875 628.333007812 58 633 c 0
EndSplineSet
EndChar

StartChar: V
Encoding: 86 86 57
Width: 577
GlyphClass: 2
Flags: W
LayerCount: 2
Fore
SplineSet
57 631 m 0
 61.6669921875 636.333007812 77.333984375 639.000976562 104.000976562 639.000976562 c 0
 130.66796875 639.000976562 146.66796875 638.000976562 152.000976562 636.000976562 c 0
 158.000976562 634.000976562 171.333984375 600.000976562 192.000976562 534.000976562 c 0
 202.66796875 500.000976562 212.16796875 469.833984375 220.500976562 443.500976562 c 0
 228.833984375 417.16796875 236.333984375 393.500976562 243.000976562 372.500976562 c 0
 249.66796875 351.500976562 255.500976562 333.333984375 260.500976562 318.000976562 c 0
 265.500976562 302.66796875 269.833984375 289.500976562 273.500976562 278.500976562 c 2
 282.500976562 251.500976562 l 2
 284.833984375 244.500976562 286.833984375 239.16796875 288.500976562 235.500976562 c 0
 290.16796875 231.833984375 291.334960938 229.333984375 292.001953125 228.000976562 c 2
 293.001953125 226.000976562 l 2
 293.668945312 226.66796875 304.668945312 260.16796875 326.001953125 326.500976562 c 0
 347.334960938 392.833984375 369.16796875 459.833984375 391.500976562 527.500976562 c 0
 413.833984375 595.16796875 426.333984375 630.334960938 429.000976562 633.001953125 c 0
 434.333984375 637.001953125 452.333984375 639.001953125 483.000976562 639.001953125 c 0
 498.333984375 639.001953125 509.000976562 638.001953125 515.000976562 636.001953125 c 0
 520.333984375 634.001953125 523.000976562 629.668945312 523.000976562 623.001953125 c 0
 523.000976562 613.668945312 495.16796875 528.668945312 439.500976562 368.001953125 c 0
 383.833984375 207.334960938 353.666992188 125.66796875 349 123.000976562 c 0
 343.666992188 118.333984375 323 116.000976562 287 116.000976562 c 0
 251.666992188 116.000976562 230.666992188 119.000976562 224 125.000976562 c 0
 218 131.000976562 187.333007812 215.333984375 132 378.000976562 c 0
 81.3330078125 529.333984375 56 611.666992188 56 625 c 0
 56 628.333007812 56.3330078125 630.333007812 57 631 c 0
EndSplineSet
EndChar

StartChar: W
Encoding: 87 87 58
Width: 820
GlyphClass: 2
Flags: W
LayerCount: 2
Fore
SplineSet
61 636 m 0
 65.6669921875 638 77.001953125 638.999023438 95.001953125 638.999023438 c 0
 129.001953125 638.999023438 148.334960938 636.999023438 153.001953125 632.999023438 c 0
 159.668945312 626.33203125 176.668945312 562.665039062 204.001953125 441.998046875 c 0
 236.001953125 301.998046875 253.334960938 231.998046875 256.001953125 231.998046875 c 2
 258.001953125 234.998046875 l 2
 260.001953125 238.998046875 276.334960938 305.331054688 307.001953125 433.998046875 c 0
 337.668945312 561.998046875 356.3359375 628.331054688 363.002929688 632.998046875 c 0
 369.669921875 637.665039062 384.336914062 639.998046875 407.00390625 639.998046875 c 0
 437.670898438 639.998046875 456.00390625 636.665039062 462.00390625 629.998046875 c 0
 467.336914062 624.665039062 486.669921875 556.33203125 520.002929688 424.999023438 c 0
 551.3359375 297.666015625 568.668945312 233.999023438 572.001953125 233.999023438 c 0
 574.001953125 233.999023438 582.668945312 266.499023438 598.001953125 331.499023438 c 0
 613.334960938 396.499023438 629.001953125 462.33203125 645.001953125 528.999023438 c 0
 661.001953125 595.666015625 670.668945312 630.333007812 674.001953125 633 c 0
 679.334960938 637 694.001953125 639 718.001953125 639 c 0
 750.001953125 639 766.001953125 632.333007812 766.001953125 619 c 0
 766.001953125 616.333007812 765.668945312 614 765.001953125 612 c 0
 754.334960938 564 730.16796875 471.833007812 692.500976562 335.5 c 0
 654.833984375 199.166992188 634.333984375 129.333984375 631.000976562 126.000976562 c 0
 626.333984375 120.000976562 605.000976562 117.000976562 567.000976562 117.000976562 c 0
 525.66796875 117.000976562 502.66796875 120.333984375 498.000976562 127.000976562 c 0
 495.333984375 130.333984375 486.666992188 160.000976562 472 216.000976562 c 0
 457.333007812 272.000976562 443 327.16796875 429 381.500976562 c 0
 415 435.833984375 407.333007812 463.000976562 406 463.000976562 c 0
 404 463.000976562 396.5 435.833984375 383.5 381.500976562 c 0
 370.5 327.16796875 356.833007812 271.834960938 342.5 215.501953125 c 0
 328.166992188 159.168945312 318.333984375 129.001953125 313.000976562 125.001953125 c 0
 304.333984375 118.334960938 283.666992188 115.001953125 251 115.001953125 c 0
 218.333007812 115.001953125 197.666015625 118.334960938 188.999023438 125.001953125 c 0
 181.666015625 130.334960938 157.333007812 211.001953125 116 367.001953125 c 0
 76.6669921875 514.334960938 56 597.66796875 54 617.000976562 c 0
 54 628.333984375 56.3330078125 634.666992188 61 636 c 0
EndSplineSet
EndChar

StartChar: X
Encoding: 88 88 59
Width: 530
GlyphClass: 2
Flags: W
LayerCount: 2
Fore
SplineSet
67 634 m 0
 69 637.333007812 84.6640625 639.004882812 113.997070312 639.004882812 c 0
 144.6640625 639.004882812 162.6640625 637.337890625 167.997070312 634.004882812 c 0
 174.6640625 630.004882812 192.997070312 600.004882812 222.997070312 544.004882812 c 0
 253.6640625 486.671875 269.997070312 458.004882812 271.997070312 458.004882812 c 0
 274.6640625 458.004882812 283.331054688 472.337890625 297.998046875 501.004882812 c 0
 341.998046875 587.004882812 366.665039062 632.004882812 371.998046875 636.004882812 c 0
 374.665039062 637.337890625 384.998046875 638.004882812 402.998046875 638.004882812 c 2
 421.998046875 638.004882812 l 2
 449.331054688 636.671875 463.998046875 634.004882812 465.998046875 630.004882812 c 0
 466.665039062 628.671875 466.998046875 626.671875 466.998046875 624.004882812 c 0
 466.998046875 613.337890625 446.998046875 571.670898438 406.998046875 499.00390625 c 2
 344.998046875 385.00390625 l 1
 412.998046875 261.00390625 l 2
 454.998046875 184.336914062 475.998046875 140.669921875 475.998046875 130.002929688 c 2
 475.998046875 129.002929688 l 2
 475.331054688 128.3359375 474.998046875 127.668945312 474.998046875 127.001953125 c 0
 470.998046875 121.001953125 453.998046875 117.668945312 423.998046875 117.001953125 c 2
 409.998046875 117.001953125 l 2
 386.665039062 117.001953125 373.998046875 118.001953125 371.998046875 120.001953125 c 0
 367.331054688 124.668945312 348.6640625 158.001953125 315.997070312 220.001953125 c 0
 284.6640625 281.334960938 267.331054688 313.66796875 263.998046875 317.000976562 c 0
 263.331054688 317.66796875 258.331054688 309.16796875 248.998046875 291.500976562 c 0
 239.665039062 273.833984375 228.33203125 252.000976562 214.999023438 226.000976562 c 0
 183.666015625 164.66796875 164.333007812 131.000976562 157 125.000976562 c 0
 150.333007812 119.000976562 134 116.000976562 108 116.000976562 c 0
 86 116.000976562 71.5 117.000976562 64.5 119.000976562 c 0
 57.5 121.000976562 54 125.000976562 54 131.000976562 c 0
 54 137.000976562 76.3330078125 180.333984375 121 261.000976562 c 0
 165 340.333984375 187 382.666992188 187 388 c 2
 127 499 l 2
 85.6669921875 575 65 617.666992188 65 627 c 0
 65 629 65.6669921875 631.333007812 67 634 c 0
EndSplineSet
EndChar

StartChar: Y
Encoding: 89 89 60
Width: 518
GlyphClass: 2
Flags: W
LayerCount: 2
Fore
SplineSet
58 636 m 0
 60 638.666992188 71.66796875 640.000976562 93.0009765625 640.000976562 c 0
 131.000976562 640.000976562 153.000976562 637.66796875 159.000976562 633.000976562 c 0
 162.333984375 629.66796875 174.333984375 606.500976562 195.000976562 563.500976562 c 0
 215.66796875 520.500976562 235.334960938 477.66796875 254.001953125 435.000976562 c 2
 262.001953125 414.000976562 l 1
 273.001953125 440.000976562 l 2
 288.334960938 479.333984375 305.66796875 520.000976562 325.000976562 562.000976562 c 0
 344.333984375 604.000976562 356.333984375 627.000976562 361.000976562 631.000976562 c 0
 368.333984375 637.000976562 386.333984375 640.000976562 415.000976562 640.000976562 c 0
 443.000976562 640.000976562 459.000976562 637.333984375 463.000976562 632.000976562 c 0
 463.66796875 631.333984375 464.000976562 630.333984375 464.000976562 629.000976562 c 0
 464.000976562 619.66796875 439.66796875 566.66796875 391.000976562 470.000976562 c 2
 313.000976562 316.000976562 l 1
 313.000976562 221.000976562 l 1
 313.000976562 200.000976562 l 2
 313.000976562 159.333984375 311.16796875 135.166992188 307.500976562 127.5 c 0
 303.833984375 119.833007812 292.000976562 116 272.000976562 116 c 2
 259.000976562 116 l 1
 246.000976562 116 l 2
 225.333984375 116 213.166992188 120 209.5 128 c 0
 205.833007812 136 204 160.666992188 204 202 c 2
 204 223 l 1
 204 320 l 1
 129 466 l 2
 79.6669921875 562.666992188 55 617 55 629 c 0
 55 631.666992188 56 634 58 636 c 0
EndSplineSet
EndChar

StartChar: Z
Encoding: 90 90 61
Width: 463
GlyphClass: 2
Flags: W
LayerCount: 2
Fore
SplineSet
62 630 m 0
 64.6669921875 634.666992188 73.501953125 637.33203125 88.501953125 637.999023438 c 0
 103.501953125 638.666015625 149.334960938 638.999023438 226.001953125 638.999023438 c 2
 384.001953125 638.999023438 l 1
 392.001953125 625.999023438 l 2
 396.668945312 619.33203125 399.001953125 610.33203125 399.001953125 598.999023438 c 0
 399.001953125 592.33203125 398.668945312 586.665039062 398.001953125 581.998046875 c 0
 396.668945312 567.331054688 390.668945312 550.331054688 380.001953125 530.998046875 c 0
 369.334960938 511.665039062 338.001953125 460.33203125 286.001953125 376.999023438 c 2
 177.001953125 201.999023438 l 1
 286.001953125 199.999023438 l 2
 359.334960938 198.666015625 398.334960938 196.333007812 403.001953125 193 c 0
 407.668945312 188.333007812 410.001953125 175.333007812 410.001953125 154 c 0
 410.001953125 142 408.668945312 132 406.001953125 124 c 0
 404.668945312 120.666992188 394.501953125 118.5 375.501953125 117.5 c 0
 356.501953125 116.5 310.334960938 116 237.001953125 116 c 2
 195.001953125 116 l 2
 125.668945312 116 84.501953125 117.666992188 71.501953125 121 c 0
 58.501953125 124.333007812 52.001953125 134.666015625 52.001953125 151.999023438 c 2
 52.001953125 160.999023438 l 2
 52.001953125 179.666015625 54.001953125 192.999023438 58.001953125 200.999023438 c 0
 61.3349609375 207.666015625 88.66796875 252.499023438 140.000976562 335.499023438 c 0
 191.333984375 418.499023438 227.666992188 476.999023438 249 510.999023438 c 0
 266.333007812 538.33203125 275 552.33203125 275 552.999023438 c 0
 275 554.999023438 240.333007812 555.999023438 171 555.999023438 c 0
 115 555.999023438 82 557.499023438 72 560.499023438 c 0
 62 563.499023438 57 573.999023438 57 591.999023438 c 2
 57 597.999023438 l 2
 57 612.666015625 58.6669921875 623.333007812 62 630 c 0
EndSplineSet
EndChar

StartChar: bracketleft
Encoding: 91 91 62
Width: 300
GlyphClass: 2
Flags: W
LayerCount: 2
Fore
SplineSet
86 779 m 1
 104.999023438 800.000976562 l 1
 379.999023438 800.000976562 l 1
 378.999023438 758.000976562 l 1
 376.999023438 715.000976562 l 1
 276.999023438 713.000976562 l 2
 228.33203125 712.333984375 198.999023438 711.500976562 188.999023438 710.500976562 c 0
 178.999023438 709.500976562 171.999023438 706.66796875 167.999023438 702.000976562 c 0
 163.33203125 696.66796875 160.499023438 678.16796875 159.499023438 646.500976562 c 0
 158.499023438 614.833984375 157.999023438 531.000976562 157.999023438 395.000976562 c 0
 157.999023438 198.333984375 159.666015625 95.6669921875 162.999023438 87 c 2
 168.999023438 73 l 1
 384.999023438 73 l 1
 384.999023438 -34 l 1
 270.999023438 -37 l 2
 250.999023438 -37.6669921875 227.666015625 -38 200.999023438 -38 c 0
 170.999023438 -38 147.999023438 -35 131.999023438 -29 c 0
 100.666015625 -15 77.3330078125 8 62 40 c 2
 50 65 l 1
 50 388 l 1
 50 441 l 2
 50 589.666992188 51.5 678.5 54.5 707.5 c 0
 57.5 736.5 67.3330078125 759.666992188 84 777 c 2
 86 779 l 1
EndSplineSet
EndChar

StartChar: backslash
Encoding: 92 92 63
Width: 457
GlyphClass: 2
Flags: W
LayerCount: 2
Fore
SplineSet
62 712 m 0
 67.3330078125 715.333007812 81.0009765625 717.000976562 103.000976562 717.000976562 c 0
 129.000976562 717.000976562 144.66796875 715.000976562 150.000976562 711.000976562 c 0
 156.000976562 706.333984375 191.66796875 611.666992188 257.000976562 427 c 0
 321.66796875 245.666992188 360.000976562 138.666992188 372.000976562 106 c 0
 391.333984375 54 401.000976562 24.6669921875 401.000976562 18 c 0
 401.000976562 16 399.66796875 13 397.000976562 9 c 0
 393.000976562 4.3330078125 378.000976562 2 352.000976562 2 c 0
 328.000976562 2 313.333984375 4.3330078125 308.000976562 9 c 0
 303.333984375 11.6669921875 271.666992188 95 213 259 c 0
 156.333007812 420.333007812 117 531.666015625 95 592.999023438 c 0
 70.3330078125 661.666015625 58 699.333007812 58 706 c 0
 58 708 59.3330078125 710 62 712 c 0
EndSplineSet
EndChar

StartChar: bracketright
Encoding: 93 93 64
Width: 301
GlyphClass: 2
Flags: W
LayerCount: 2
Fore
SplineSet
-83 755 m 1
 -85.0009765625 799.999023438 l 1
 188.999023438 799.999023438 l 1
 210.999023438 776.999023438 l 2
 226.33203125 760.999023438 235.999023438 747.666015625 239.999023438 736.999023438 c 0
 247.33203125 713.666015625 250.999023438 634.999023438 250.999023438 500.999023438 c 2
 250.999023438 385.999023438 l 1
 250.999023438 64.9990234375 l 1
 237.999023438 39.9990234375 l 2
 222.666015625 7.9990234375 199.333007812 -15.0009765625 168 -29.0009765625 c 0
 157.333007812 -33.66796875 144.666015625 -36.66796875 129.999023438 -38.0009765625 c 0
 115.33203125 -39.333984375 81.9990234375 -40.0009765625 29.9990234375 -40.0009765625 c 2
 -84.0009765625 -40.0009765625 l 1
 -84.0009765625 67.9990234375 l 1
 20.9990234375 68.9990234375 l 2
 90.9990234375 69.666015625 128.33203125 72.3330078125 132.999023438 77 c 0
 137.666015625 81.6669921875 140.333007812 184 141 384 c 2
 141 553 l 2
 141 641 139 688.333007812 135 695 c 0
 131 701 124.166992188 704.5 114.5 705.5 c 0
 104.833007812 706.5 74 707.333007812 22 708 c 2
 -82 710 l 1
 -83 755 l 1
EndSplineSet
EndChar

StartChar: asciicircum
Encoding: 94 94 65
Width: 489
GlyphClass: 2
Flags: W
LayerCount: 2
Fore
SplineSet
194 634 m 0
 202.666992188 637.333007812 217.668945312 638.997070312 239.001953125 638.997070312 c 0
 266.334960938 638.997070312 284.334960938 636.997070312 293.001953125 632.997070312 c 0
 299.668945312 630.330078125 307.501953125 620.330078125 316.501953125 602.997070312 c 0
 325.501953125 585.6640625 344.001953125 545.997070312 372.001953125 483.997070312 c 0
 414.001953125 391.330078125 435.001953125 340.330078125 435.001953125 330.997070312 c 0
 435.001953125 326.997070312 432.834960938 324.330078125 428.501953125 322.997070312 c 0
 424.168945312 321.6640625 414.001953125 320.331054688 398.001953125 318.998046875 c 0
 394.668945312 318.998046875 390.501953125 318.831054688 385.501953125 318.498046875 c 0
 380.501953125 318.165039062 377.001953125 317.998046875 375.001953125 317.998046875 c 0
 357.001953125 317.998046875 344.001953125 324.165039062 336.001953125 336.498046875 c 0
 328.001953125 348.831054688 312.334960938 383.331054688 289.001953125 439.998046875 c 0
 259.001953125 511.998046875 242.668945312 547.998046875 240.001953125 547.998046875 c 0
 237.334960938 547.998046875 222.66796875 511.998046875 196.000976562 439.998046875 c 0
 170.000976562 371.331054688 153.000976562 333.6640625 145.000976562 326.997070312 c 0
 139.000976562 321.6640625 127.000976562 318.997070312 109.000976562 318.997070312 c 2
 95.0009765625 318.997070312 l 2
 70.333984375 320.330078125 57.0009765625 322.997070312 55.0009765625 326.997070312 c 0
 54.333984375 328.330078125 54.0009765625 330.330078125 54.0009765625 332.997070312 c 0
 54.0009765625 342.330078125 78.0009765625 400.330078125 126.000976562 506.997070312 c 0
 128.000976562 510.997070312 132.000976562 520.330078125 138.000976562 534.997070312 c 0
 144.000976562 549.6640625 148.333984375 560.331054688 151.000976562 566.998046875 c 0
 161.66796875 591.665039062 169.66796875 608.33203125 175.000976562 616.999023438 c 0
 180.333984375 625.666015625 186.666992188 631.333007812 194 634 c 0
EndSplineSet
EndChar

StartChar: underscore
Encoding: 95 95 66
Width: 670
GlyphClass: 2
Flags: W
LayerCount: 2
Fore
SplineSet
-76 755 m 1
 -78 800 l 1
 748 800 l 1
 746 755 l 1
 745 710 l 1
 -75 710 l 1
 -76 755 l 1
-77 -40 m 1
 -77 68 l 1
 747 68 l 1
 747 -40 l 1
 -77 -40 l 1
EndSplineSet
EndChar

StartChar: grave
Encoding: 96 96 67
Width: 271
GlyphClass: 2
Flags: W
LayerCount: 2
Fore
SplineSet
61 688 m 0
 63.6669921875 690 78 691 104 691 c 2
 116 691 l 2
 133.333007812 691 145 688.333007812 151 683 c 0
 159 675.666992188 172 656.833984375 190 626.500976562 c 0
 208 596.16796875 217 578.000976562 217 572.000976562 c 0
 217 566.000976562 205.666992188 563.000976562 183 563.000976562 c 0
 165 563.000976562 151.5 566.500976562 142.5 573.500976562 c 0
 133.5 580.500976562 114 602.333984375 84 639.000976562 c 0
 64.6669921875 662.333984375 55 676.666992188 55 682 c 0
 55 684.666992188 57 686.666992188 61 688 c 0
EndSplineSet
EndChar

StartChar: a
Encoding: 97 97 68
Width: 431
GlyphClass: 2
Flags: W
LayerCount: 2
Fore
SplineSet
283 254 m 2
 283 285.002929688 l 1
 248 284.002929688 l 2
 206 283.3359375 178.666992188 275.668945312 166 261.001953125 c 0
 158 252.334960938 154 242.001953125 154 230.001953125 c 0
 154 219.334960938 157.5 209.66796875 164.5 201.000976562 c 0
 171.5 192.333984375 180.666992188 186.666992188 192 184 c 0
 200 182.666992188 205.333007812 182 208 182 c 0
 225.333007812 182 243 189.666992188 261 205 c 0
 271 214.333007812 277.166992188 221.333007812 279.5 226 c 0
 281.833007812 230.666992188 283 240 283 254 c 2
161 510.002929688 m 0
 175.666992188 513.3359375 194.999023438 514.999023438 218.999023438 514.999023438 c 0
 259.666015625 514.999023438 288.333007812 511.999023438 305 505.999023438 c 0
 320.333007812 500.666015625 334.166015625 491.999023438 346.499023438 479.999023438 c 0
 358.83203125 467.999023438 367.33203125 454.999023438 371.999023438 440.999023438 c 0
 377.33203125 425.666015625 379.999023438 368.999023438 379.999023438 270.999023438 c 2
 379.999023438 219.999023438 l 2
 379.999023438 172.666015625 378.83203125 144.166015625 376.499023438 134.499023438 c 0
 374.166015625 124.83203125 366.666015625 119.999023438 353.999023438 119.999023438 c 2
 338.999023438 119.999023438 l 2
 320.999023438 119.999023438 309.666015625 121.166015625 304.999023438 123.499023438 c 0
 300.33203125 125.83203125 297.999023438 132.33203125 297.999023438 142.999023438 c 2
 297.999023438 160.999023438 l 1
 274.999023438 142.999023438 l 2
 244.999023438 120.33203125 214.999023438 108.999023438 184.999023438 108.999023438 c 0
 182.999023438 108.999023438 180.33203125 109.166015625 176.999023438 109.499023438 c 0
 173.666015625 109.83203125 171.333007812 109.999023438 170 109.999023438 c 0
 135.333007812 112.666015625 107.166015625 124.499023438 85.4990234375 145.499023438 c 0
 63.83203125 166.499023438 52.9990234375 192.666015625 52.9990234375 223.999023438 c 0
 52.9990234375 228.666015625 53.666015625 236.333007812 54.9990234375 247 c 0
 60.9990234375 278.333007812 77.666015625 301.833007812 104.999023438 317.5 c 0
 132.33203125 333.166992188 172.33203125 342.333984375 224.999023438 345.000976562 c 2
 283.999023438 348.000976562 l 1
 280.999023438 379.000976562 l 2
 278.999023438 399.66796875 273.666015625 414.334960938 264.999023438 423.001953125 c 0
 258.999023438 429.001953125 252.999023438 432.834960938 246.999023438 434.501953125 c 0
 240.999023438 436.168945312 228.999023438 437.001953125 210.999023438 437.001953125 c 0
 182.999023438 436.334960938 158.666015625 431.334960938 137.999023438 422.001953125 c 0
 115.33203125 412.668945312 99.9990234375 407.3359375 91.9990234375 406.002929688 c 2
 88.9990234375 406.002929688 l 2
 82.33203125 406.002929688 77.33203125 414.002929688 73.9990234375 430.002929688 c 0
 72.666015625 435.3359375 71.9990234375 441.3359375 71.9990234375 448.002929688 c 0
 71.9990234375 454.002929688 73.9990234375 460.669921875 77.9990234375 468.002929688 c 0
 88.666015625 484.002929688 116.333007812 498.002929688 161 510.002929688 c 0
EndSplineSet
EndChar

StartChar: b
Encoding: 98 98 69
Width: 464
GlyphClass: 2
Flags: W
LayerCount: 2
Fore
SplineSet
274 413 m 0
 261.333007812 423.666992188 248.333007812 428.998046875 235 428.998046875 c 0
 222.333007812 428.998046875 209.333007812 424.331054688 196 414.998046875 c 0
 176 401.665039062 164 389.998046875 160 379.998046875 c 0
 156 369.998046875 153.666992188 347.998046875 153 313.998046875 c 0
 153 278.665039062 155.333007812 255.33203125 160 243.999023438 c 0
 164.666992188 232.666015625 176.666992188 221.333007812 196 210 c 0
 210.666992188 202 223.666992188 198 235 198 c 0
 243.666992188 198 253.666992188 201 265 207 c 0
 291.666992188 223 305 258.333007812 305 313 c 0
 305 341 302.833007812 362 298.5 376 c 0
 294.166992188 390 286 402.333007812 274 413 c 0
59 675.998046875 m 0
 64.3330078125 679.331054688 77 680.99609375 97 680.99609375 c 0
 119 680.99609375 133.333007812 679.329101562 140 675.99609375 c 2
 153 670.99609375 l 1
 153 469.99609375 l 1
 179 487.99609375 l 2
 205.666992188 506.663085938 235 515.99609375 267 515.99609375 c 0
 312.333007812 515.99609375 347.666015625 498.49609375 372.999023438 463.49609375 c 0
 398.33203125 428.49609375 410.999023438 379.99609375 410.999023438 317.99609375 c 0
 410.999023438 256.663085938 398.83203125 207.830078125 374.499023438 171.497070312 c 0
 350.166015625 135.1640625 315.666015625 114.997070312 270.999023438 110.997070312 c 0
 266.999023438 110.330078125 261.33203125 109.997070312 253.999023438 109.997070312 c 0
 221.999023438 109.997070312 192.33203125 121.330078125 164.999023438 143.997070312 c 2
 137.999023438 165.997070312 l 1
 137.999023438 148.997070312 l 2
 137.999023438 138.330078125 135.666015625 130.663085938 130.999023438 125.99609375 c 0
 126.999023438 121.99609375 114.666015625 119.99609375 93.9990234375 119.99609375 c 0
 72.666015625 119.99609375 59.9990234375 121.99609375 55.9990234375 125.99609375 c 0
 51.9990234375 129.99609375 49.9990234375 221.99609375 49.9990234375 401.99609375 c 0
 49.9990234375 530.663085938 50.33203125 607.830078125 50.9990234375 633.497070312 c 0
 51.666015625 659.1640625 54.3330078125 673.331054688 59 675.998046875 c 0
EndSplineSet
EndChar

StartChar: c
Encoding: 99 99 70
Width: 397
GlyphClass: 2
Flags: W
LayerCount: 2
Fore
SplineSet
176 509 m 0
 191.333007812 513 207.666015625 515 224.999023438 515 c 0
 276.33203125 515 312.33203125 504.666992188 332.999023438 484 c 0
 339.666015625 477.333007812 342.999023438 460.666015625 342.999023438 433.999023438 c 0
 342.999023438 423.33203125 341.666015625 413.999023438 338.999023438 405.999023438 c 0
 336.999023438 400.666015625 332.666015625 397.999023438 325.999023438 397.999023438 c 0
 320.666015625 397.999023438 315.999023438 400.33203125 311.999023438 404.999023438 c 0
 306.666015625 411.666015625 295.666015625 417.833007812 278.999023438 423.5 c 0
 262.33203125 429.166992188 247.999023438 432 235.999023438 432 c 2
 229.999023438 432 l 2
 203.33203125 429.333007812 183.665039062 415.666015625 170.998046875 390.999023438 c 0
 162.998046875 375.666015625 158.998046875 349.666015625 158.998046875 312.999023438 c 0
 158.998046875 282.33203125 161.498046875 259.33203125 166.498046875 243.999023438 c 0
 171.498046875 228.666015625 180.665039062 215.999023438 193.998046875 205.999023438 c 0
 205.331054688 197.33203125 218.998046875 192.999023438 234.998046875 192.999023438 c 0
 259.665039062 192.999023438 285.665039062 202.33203125 312.998046875 220.999023438 c 0
 322.998046875 227.666015625 329.665039062 230.999023438 332.998046875 230.999023438 c 0
 339.665039062 230.999023438 343.998046875 219.33203125 345.998046875 195.999023438 c 0
 345.998046875 193.999023438 346.165039062 191.166015625 346.498046875 187.499023438 c 0
 346.831054688 183.83203125 346.998046875 181.33203125 346.998046875 179.999023438 c 0
 346.998046875 165.999023438 344.331054688 155.33203125 338.998046875 147.999023438 c 0
 333.665039062 140.666015625 323.33203125 133.333007812 307.999023438 126 c 0
 293.999023438 120 282.33203125 116.166992188 272.999023438 114.5 c 0
 263.666015625 112.833007812 247.333007812 112 224 112 c 0
 186.666992188 112.666992188 160 117 144 125 c 0
 113.333007812 139.666992188 91.3330078125 160 78 186 c 0
 64.6669921875 212 57 248.666992188 55 296 c 0
 54.3330078125 305.333007812 54 317 54 331 c 0
 54 353 57 373.333007812 63 392 c 0
 71.6669921875 421.333007812 86 446.333007812 106 467 c 0
 126 487.666992188 149.333007812 501.666992188 176 509 c 0
EndSplineSet
EndChar

StartChar: d
Encoding: 100 100 71
Width: 465
GlyphClass: 2
Flags: W
LayerCount: 2
Fore
SplineSet
271 414 m 0
 257 423.333007812 242.666015625 428.000976562 227.999023438 428.000976562 c 0
 204.666015625 428.000976562 185.666015625 413.66796875 170.999023438 385.000976562 c 0
 162.999023438 369.66796875 158.999023438 345.66796875 158.999023438 313.000976562 c 0
 158.999023438 279.000976562 162.999023438 254.000976562 170.999023438 238.000976562 c 0
 184.999023438 210.66796875 203.999023438 197.000976562 227.999023438 197.000976562 c 0
 239.33203125 197.000976562 252.665039062 201.333984375 267.998046875 210.000976562 c 0
 280.665039062 217.333984375 292.33203125 227.666992188 302.999023438 241 c 0
 312.33203125 253 316.999023438 268 316.999023438 286 c 0
 316.999023438 288 316.83203125 292.5 316.499023438 299.5 c 0
 316.166015625 306.5 315.999023438 312.666992188 315.999023438 318 c 0
 314.666015625 350.666992188 311.833007812 371.5 307.5 380.5 c 0
 303.166992188 389.5 291 400.666992188 271 414 c 0
325.999023438 678.000976562 m 0
 332.666015625 680.000976562 343.665039062 681.001953125 358.998046875 681.001953125 c 0
 382.998046875 681.001953125 398.331054688 679.334960938 404.998046875 676.001953125 c 0
 409.665039062 673.334960938 412.33203125 659.66796875 412.999023438 635.000976562 c 0
 413.666015625 610.333984375 413.999023438 531.333984375 413.999023438 398.000976562 c 2
 413.999023438 264.000976562 l 2
 413.999023438 198.000976562 412.83203125 157.333984375 410.499023438 142.000976562 c 0
 408.166015625 126.66796875 401.666015625 119.000976562 390.999023438 119.000976562 c 0
 389.666015625 119.000976562 386.999023438 119.16796875 382.999023438 119.500976562 c 0
 378.999023438 119.833984375 375.666015625 120.000976562 372.999023438 120.000976562 c 0
 354.999023438 120.000976562 342.83203125 122.000976562 336.499023438 126.000976562 c 0
 330.166015625 130.000976562 326.999023438 137.333984375 326.999023438 148.000976562 c 2
 326.999023438 166.000976562 l 1
 294.999023438 143.000976562 l 2
 264.33203125 121.000976562 235.33203125 110.000976562 207.999023438 110.000976562 c 0
 199.999023438 110.000976562 193.999023438 110.333984375 189.999023438 111.000976562 c 0
 121.33203125 115.66796875 78.33203125 157.66796875 60.9990234375 237.000976562 c 0
 56.33203125 257.66796875 53.9990234375 280.66796875 53.9990234375 306.000976562 c 0
 53.9990234375 358.000976562 62.666015625 401.333984375 79.9990234375 436.000976562 c 0
 92.666015625 461.333984375 110.499023438 481.000976562 133.499023438 495.000976562 c 0
 156.499023438 509.000976562 180.999023438 516.000976562 206.999023438 516.000976562 c 0
 240.33203125 516.000976562 269.33203125 506.000976562 293.999023438 486.000976562 c 0
 302.666015625 478.000976562 307.999023438 475.000976562 309.999023438 477.000976562 c 0
 311.33203125 477.66796875 311.999023438 507.000976562 311.999023438 565.000976562 c 2
 311.999023438 600.000976562 l 2
 311.999023438 630.66796875 312.999023438 651.000976562 314.999023438 661.000976562 c 0
 316.999023438 671.000976562 320.666015625 676.66796875 325.999023438 678.000976562 c 0
EndSplineSet
EndChar

StartChar: e
Encoding: 101 101 72
Width: 461
GlyphClass: 2
Flags: W
LayerCount: 2
Fore
SplineSet
267 437 m 0
 254.333007812 441.666992188 242.66796875 444.000976562 232.000976562 444.000976562 c 0
 222.66796875 444.000976562 213.66796875 442.333984375 205.000976562 439.000976562 c 0
 194.333984375 434.333984375 183.666992188 423.166992188 173 405.5 c 0
 162.333007812 387.833007812 157 372 157 358 c 0
 157 354 181.666992188 352 231 352 c 2
 306 352 l 1
 306 374 l 2
 306 404.666992188 293 425.666992188 267 437 c 0
186.001953125 511.000976562 m 0
 196.001953125 513.000976562 211.669921875 513.997070312 233.002929688 513.997070312 c 0
 273.002929688 513.997070312 298.3359375 511.330078125 309.002929688 505.997070312 c 0
 339.669921875 491.997070312 362.669921875 473.6640625 378.002929688 450.997070312 c 0
 398.002929688 421.6640625 408.002929688 383.331054688 408.002929688 335.998046875 c 0
 408.002929688 311.998046875 404.002929688 296.998046875 396.002929688 290.998046875 c 0
 390.669921875 286.998046875 349.002929688 284.998046875 271.002929688 284.998046875 c 2
 157.002929688 284.998046875 l 1
 157.002929688 269.998046875 l 2
 157.002929688 258.665039062 161.3359375 245.498046875 170.002929688 230.498046875 c 0
 178.669921875 215.498046875 188.002929688 204.998046875 198.002929688 198.998046875 c 0
 209.3359375 192.331054688 228.668945312 188.998046875 256.001953125 188.998046875 c 0
 290.001953125 188.998046875 318.668945312 193.331054688 342.001953125 201.998046875 c 0
 360.001953125 207.998046875 372.001953125 210.998046875 378.001953125 210.998046875 c 1
 379.001953125 209.998046875 l 1
 381.001953125 209.998046875 l 2
 385.668945312 207.998046875 388.001953125 195.998046875 388.001953125 173.998046875 c 0
 388.001953125 159.331054688 387.501953125 149.831054688 386.501953125 145.498046875 c 0
 385.501953125 141.165039062 382.668945312 137.665039062 378.001953125 134.998046875 c 0
 346.001953125 118.331054688 300.668945312 109.998046875 242.001953125 109.998046875 c 0
 222.001953125 109.998046875 205.334960938 111.331054688 192.001953125 113.998046875 c 0
 146.668945312 122.665039062 113.001953125 141.33203125 91.001953125 169.999023438 c 0
 69.001953125 198.666015625 56.6689453125 239.333007812 54.001953125 292 c 2
 54.001953125 311 l 2
 54.001953125 363.666992188 65.501953125 407.333984375 88.501953125 442.000976562 c 0
 111.501953125 476.66796875 144.001953125 499.66796875 186.001953125 511.000976562 c 0
EndSplineSet
EndChar

StartChar: f
Encoding: 102 102 73
Width: 365
GlyphClass: 2
Flags: W
LayerCount: 2
Fore
SplineSet
193 680 m 0
 201.666992188 683.333007812 215.66796875 685.000976562 235.000976562 685.000976562 c 0
 266.333984375 685.000976562 287.666992188 681.333984375 299 674.000976562 c 0
 307.666992188 668.000976562 312 659.333984375 312 648.000976562 c 0
 312 646.66796875 311.833007812 644.16796875 311.5 640.500976562 c 0
 311.166992188 636.833984375 311 633.666992188 311 631 c 0
 309.666992188 609 306.666992188 598 302 598 c 2
 299 598 l 2
 274.333007812 601.333007812 259.666015625 603 254.999023438 603 c 0
 246.999023438 603 239.33203125 599.333007812 231.999023438 592 c 0
 225.999023438 586 222.33203125 580.333007812 220.999023438 575 c 0
 219.666015625 569.666992188 218.999023438 559 218.999023438 543 c 2
 218.999023438 507 l 1
 256.999023438 505 l 1
 293.999023438 504 l 1
 294.999023438 476 l 2
 295.666015625 470 295.999023438 462.333007812 295.999023438 453 c 0
 295.999023438 439.666992188 293.499023438 431.5 288.499023438 428.5 c 0
 283.499023438 425.5 272.33203125 424 254.999023438 424 c 2
 218.999023438 424 l 1
 218.999023438 277 l 1
 218.999023438 232 l 2
 218.999023438 179.333007812 217.33203125 147.5 213.999023438 136.5 c 0
 210.666015625 125.5 200.999023438 120 184.999023438 120 c 2
 166.999023438 120 l 1
 148.999023438 120 l 2
 133.666015625 120 124.333007812 125 121 135 c 0
 117.666992188 145 116 173.666992188 116 221 c 2
 116 277 l 1
 116 424 l 1
 90 424 l 2
 75.3330078125 424 65.666015625 426.666992188 60.9990234375 432 c 0
 56.33203125 437.333007812 53.9990234375 448.333007812 53.9990234375 465 c 0
 53.9990234375 481.666992188 56.33203125 492.666992188 60.9990234375 498 c 0
 65.666015625 503.333007812 75.3330078125 506 90 506 c 2
 114 506 l 1
 117 555 l 2
 119 591.666992188 125.5 619.166992188 136.5 637.5 c 0
 147.5 655.833007812 166.333007812 670 193 680 c 0
EndSplineSet
EndChar

StartChar: g
Encoding: 103 103 74
Width: 471
GlyphClass: 2
Flags: W
LayerCount: 2
Fore
SplineSet
295 122 m 0
 286.333007812 128 265.665039062 131.999023438 232.998046875 133.999023438 c 2
 184.998046875 135.999023438 l 1
 170.998046875 119.999023438 l 2
 158.331054688 103.999023438 151.998046875 89.9990234375 151.998046875 77.9990234375 c 0
 151.998046875 74.666015625 152.665039062 70.3330078125 153.998046875 65 c 0
 156.665039062 55.6669921875 165.33203125 48 179.999023438 42 c 0
 194.666015625 36 211.333007812 33 230 33 c 0
 248.666992188 33 265 36 279 42 c 0
 301 51.3330078125 312 67 312 89 c 0
 312 101.666992188 306.333007812 112.666992188 295 122 c 0
259.999023438 430.999023438 m 0
 249.33203125 436.33203125 236.998046875 439.001953125 222.998046875 439.001953125 c 0
 213.665039062 439.001953125 206.33203125 437.668945312 200.999023438 435.001953125 c 0
 181.666015625 427.001953125 170.666015625 410.001953125 167.999023438 384.001953125 c 0
 167.999023438 382.001953125 167.83203125 379.668945312 167.499023438 377.001953125 c 0
 167.166015625 374.334960938 166.999023438 372.66796875 166.999023438 372.000976562 c 0
 166.999023438 362.000976562 171.666015625 352.000976562 180.999023438 342.000976562 c 0
 193.666015625 328.000976562 209.666015625 321.000976562 228.999023438 321.000976562 c 0
 246.999023438 321.000976562 261.999023438 327.333984375 273.999023438 340.000976562 c 0
 281.999023438 348.000976562 285.999023438 360.66796875 285.999023438 378.000976562 c 0
 285.999023438 393.333984375 284.166015625 404.666992188 280.499023438 412 c 0
 276.83203125 419.333007812 269.999023438 425.666015625 259.999023438 430.999023438 c 0
168.998046875 502.001953125 m 0
 184.998046875 507.334960938 198.33203125 509.998046875 208.999023438 509.998046875 c 0
 212.999023438 509.998046875 222.33203125 509.331054688 236.999023438 507.998046875 c 0
 248.999023438 506.665039062 284.999023438 505.33203125 344.999023438 503.999023438 c 2
 411.999023438 501.999023438 l 1
 416.999023438 483.999023438 l 2
 418.33203125 479.999023438 418.999023438 473.666015625 418.999023438 464.999023438 c 0
 418.999023438 455.666015625 418.33203125 448.999023438 416.999023438 444.999023438 c 0
 414.33203125 435.666015625 411.83203125 430.166015625 409.499023438 428.499023438 c 0
 407.166015625 426.83203125 400.333007812 425.665039062 389 424.998046875 c 2
 365 422.998046875 l 1
 373 400.998046875 l 2
 375.666992188 393.665039062 377 384.998046875 377 374.998046875 c 0
 377 350.331054688 368.666992188 325.331054688 352 299.998046875 c 0
 341.333007812 284.665039062 324.666015625 272.33203125 301.999023438 262.999023438 c 0
 279.33203125 253.666015625 255.665039062 248.999023438 230.998046875 248.999023438 c 0
 217.665039062 248.999023438 205.665039062 250.33203125 194.998046875 252.999023438 c 0
 186.331054688 255.666015625 179.331054688 256.999023438 173.998046875 256.999023438 c 0
 169.998046875 256.999023438 166.665039062 254.999023438 163.998046875 250.999023438 c 0
 159.331054688 243.666015625 156.998046875 238.666015625 156.998046875 235.999023438 c 0
 156.998046875 231.999023438 159.331054688 226.666015625 163.998046875 219.999023438 c 0
 168.665039062 213.999023438 194.998046875 209.33203125 242.998046875 205.999023438 c 0
 283.665039062 203.33203125 311.665039062 200.499023438 326.998046875 197.499023438 c 0
 342.331054688 194.499023438 356.331054688 188.666015625 368.998046875 179.999023438 c 0
 398.998046875 159.999023438 413.998046875 132.33203125 413.998046875 96.9990234375 c 0
 413.998046875 66.33203125 402.331054688 39.33203125 378.998046875 15.9990234375 c 0
 360.331054688 -2.66796875 340.6640625 -15.16796875 319.997070312 -21.5009765625 c 0
 299.330078125 -27.833984375 268.330078125 -31.333984375 226.997070312 -32.0009765625 c 2
 215.997070312 -32.0009765625 l 2
 157.997070312 -32.0009765625 115.6640625 -22.333984375 88.9970703125 -3.0009765625 c 0
 79.6640625 3.666015625 71.4970703125 13.8330078125 64.4970703125 27.5 c 0
 57.4970703125 41.1669921875 53.9970703125 53.333984375 53.9970703125 64.0009765625 c 0
 55.330078125 91.333984375 66.9970703125 115.666992188 88.9970703125 137 c 2
 104.997070312 152 l 1
 92.9970703125 165 l 2
 78.330078125 179.666992188 70.9970703125 196.333984375 70.9970703125 215.000976562 c 0
 70.9970703125 233.000976562 77.330078125 251.66796875 89.9970703125 271.000976562 c 2
 104.997070312 295.000976562 l 1
 92.9970703125 319.000976562 l 2
 84.330078125 335.66796875 79.9970703125 354.66796875 79.9970703125 376.000976562 c 0
 79.9970703125 422.000976562 94.9970703125 456.333984375 124.997070312 479.000976562 c 0
 135.6640625 487.66796875 150.331054688 495.334960938 168.998046875 502.001953125 c 0
EndSplineSet
EndChar

StartChar: h
Encoding: 104 104 75
Width: 447
GlyphClass: 2
Flags: W
LayerCount: 2
Fore
SplineSet
59 676 m 0
 64.3330078125 679.333007812 76.9951171875 681 96.9951171875 681 c 0
 118.995117188 681 133.328125 679.333007812 139.995117188 676 c 2
 152.995117188 671 l 1
 152.995117188 471 l 1
 179.995117188 488 l 2
 197.328125 500.666992188 212.995117188 508.666992188 226.995117188 512 c 0
 235.662109375 514.666992188 246.329101562 516 258.99609375 516 c 0
 301.663085938 516 334.330078125 503.666992188 356.997070312 479 c 0
 372.330078125 461.666992188 382.497070312 438.5 387.497070312 409.5 c 0
 392.497070312 380.5 394.997070312 327.333007812 394.997070312 250 c 2
 394.997070312 204 l 2
 394.997070312 164.666992188 393.1640625 140.833984375 389.497070312 132.500976562 c 0
 385.830078125 124.16796875 375.663085938 120.000976562 358.99609375 120.000976562 c 2
 343.99609375 120.000976562 l 1
 328.99609375 120.000976562 l 2
 311.663085938 120.000976562 301.163085938 124.66796875 297.49609375 134.000976562 c 0
 293.829101562 143.333984375 291.99609375 170.333984375 291.99609375 215.000976562 c 2
 291.99609375 252.000976562 l 2
 291.99609375 318.66796875 290.49609375 360.500976562 287.49609375 377.500976562 c 0
 284.49609375 394.500976562 276.663085938 408.000976562 263.99609375 418.000976562 c 0
 255.329101562 424.66796875 245.329101562 428.000976562 233.99609375 428.000976562 c 0
 220.663085938 428.000976562 206.99609375 423.333984375 192.99609375 414.000976562 c 0
 181.663085938 406.66796875 173.99609375 401.500976562 169.99609375 398.500976562 c 0
 165.99609375 395.500976562 162.329101562 388.333984375 158.99609375 377.000976562 c 0
 155.663085938 365.66796875 153.830078125 353.500976562 153.497070312 340.500976562 c 0
 153.1640625 327.500976562 152.997070312 304.333984375 152.997070312 271.000976562 c 2
 152.997070312 253.000976562 l 1
 152.997070312 206.000976562 l 2
 152.997070312 165.333984375 151.1640625 140.833984375 147.497070312 132.500976562 c 0
 143.830078125 124.16796875 133.663085938 120.000976562 116.99609375 120.000976562 c 2
 101.99609375 120.000976562 l 2
 98.6630859375 120.000976562 94.49609375 119.833984375 89.49609375 119.500976562 c 0
 84.49609375 119.16796875 80.99609375 119.000976562 78.99609375 119.000976562 c 0
 71.6630859375 119.000976562 66.330078125 120.16796875 62.9970703125 122.500976562 c 0
 59.6640625 124.833984375 56.8310546875 132.666992188 54.498046875 146 c 0
 52.1650390625 159.333007812 50.83203125 175.333007812 50.4990234375 194 c 0
 50.166015625 212.666992188 49.9990234375 242.666992188 49.9990234375 284 c 2
 49.9990234375 401 l 2
 49.9990234375 529.666992188 50.33203125 607 50.9990234375 633 c 0
 51.666015625 659 54.3330078125 673.333007812 59 676 c 0
EndSplineSet
EndChar

StartChar: i
Encoding: 105 105 76
Width: 218
GlyphClass: 2
Flags: W
LayerCount: 2
Fore
SplineSet
71 655 m 0
 75.6669921875 657.666992188 86.3330078125 658.999023438 103 658.999023438 c 2
 116 658.999023438 l 2
 137.333007812 658.33203125 151.333007812 654.499023438 158 647.499023438 c 0
 164.666992188 640.499023438 168 626.999023438 168 606.999023438 c 0
 168 585.666015625 164.166992188 571.666015625 156.5 564.999023438 c 0
 148.833007812 558.33203125 133 554.999023438 109 554.999023438 c 0
 86.3330078125 554.999023438 71.5 557.33203125 64.5 561.999023438 c 0
 57.5 566.666015625 53 576.666015625 51 591.999023438 c 0
 50.3330078125 594.666015625 50 598.999023438 50 604.999023438 c 0
 50 631.666015625 57 648.333007812 71 655 c 0
68.9990234375 495.999023438 m 0
 73.666015625 498.666015625 84.3310546875 500 100.998046875 500 c 0
 134.331054688 500 152.998046875 497 156.998046875 491 c 0
 160.998046875 484.333007812 162.998046875 422 162.998046875 304 c 2
 162.998046875 238 l 2
 162.998046875 180 161.331054688 144.833007812 157.998046875 132.5 c 0
 154.665039062 120.166992188 144.998046875 114 128.998046875 114 c 2
 108.998046875 114 l 1
 88.998046875 114 l 2
 75.6650390625 114 67.498046875 119.333007812 64.498046875 130 c 0
 61.498046875 140.666992188 59.998046875 168.666992188 59.998046875 214 c 2
 59.998046875 306 l 2
 59.998046875 393.333007812 60.3310546875 446.166015625 60.998046875 464.499023438 c 0
 61.6650390625 482.83203125 64.33203125 493.33203125 68.9990234375 495.999023438 c 0
EndSplineSet
EndChar

StartChar: j
Encoding: 106 106 77
Width: 293
GlyphClass: 2
Flags: W
LayerCount: 2
Fore
SplineSet
147 656 m 0
 154.333007812 658.666992188 168 660.000976562 188 660.000976562 c 0
 202.666992188 660.000976562 212.333984375 659.333984375 217.000976562 658.000976562 c 0
 234.333984375 653.333984375 243.000976562 637.333984375 243.000976562 610.000976562 c 0
 243.000976562 582.000976562 234.333984375 564.66796875 217.000976562 558.000976562 c 0
 208.333984375 554.66796875 198.333984375 553.000976562 187.000976562 553.000976562 c 0
 160.333984375 553.000976562 142.666992188 558.000976562 134 568.000976562 c 0
 127.333007812 575.333984375 124 586.666992188 124 602 c 0
 124 631.333007812 131.666992188 649.333007812 147 656 c 0
134 489.000976562 m 0
 138.666992188 497.000976562 156.333007812 500.998046875 187 500.998046875 c 0
 203 500.998046875 215 499.331054688 223 495.998046875 c 0
 227.666992188 493.331054688 230.5 481.331054688 231.5 459.998046875 c 0
 232.5 438.665039062 233 377.665039062 233 276.998046875 c 0
 233 173.665039062 232.5 110.83203125 231.5 88.4990234375 c 0
 230.5 66.166015625 227.666992188 48.3330078125 223 35 c 0
 205.666992188 -11 170 -34 116 -34 c 2
 102 -34 l 2
 84 -32.6669921875 72.1669921875 -29.1669921875 66.5 -23.5 c 0
 60.8330078125 -17.8330078125 58 -7 58 9 c 0
 58 25.6669921875 59.5 36.1669921875 62.5 40.5 c 0
 65.5 44.8330078125 73.3330078125 47 86 47 c 0
 101.333007812 47 112.333007812 51.6669921875 119 61 c 0
 124.333007812 67.6669921875 127.5 81.333984375 128.5 102.000976562 c 0
 129.5 122.66796875 130 181.66796875 130 279.000976562 c 0
 130 415.000976562 131.333007812 485.000976562 134 489.000976562 c 0
EndSplineSet
EndChar

StartChar: k
Encoding: 107 107 78
Width: 439
GlyphClass: 2
Flags: W
LayerCount: 2
Fore
SplineSet
59 671 m 0
 64.3330078125 674.333007812 76.9951171875 675.998046875 96.9951171875 675.998046875 c 0
 118.995117188 675.998046875 133.328125 674.331054688 139.995117188 670.998046875 c 2
 152.995117188 665.998046875 l 1
 152.995117188 507.998046875 l 2
 152.995117188 406.665039062 154.995117188 355.998046875 158.995117188 355.998046875 c 0
 159.662109375 355.998046875 160.329101562 356.331054688 160.99609375 356.998046875 c 0
 168.99609375 364.998046875 187.99609375 388.998046875 217.99609375 428.998046875 c 0
 249.99609375 472.998046875 269.99609375 495.998046875 277.99609375 497.998046875 c 0
 285.329101562 499.998046875 298.662109375 500.998046875 317.995117188 500.998046875 c 0
 352.662109375 500.998046875 369.995117188 495.998046875 369.995117188 485.998046875 c 0
 369.995117188 475.331054688 351.328125 449.331054688 313.995117188 407.998046875 c 0
 275.995117188 365.331054688 256.995117188 342.998046875 256.995117188 340.998046875 c 0
 256.995117188 335.665039062 277.995117188 301.33203125 319.995117188 237.999023438 c 0
 363.328125 172.666015625 384.995117188 137.666015625 384.995117188 132.999023438 c 0
 384.995117188 120.33203125 366.995117188 113.999023438 330.995117188 113.999023438 c 0
 303.662109375 113.999023438 286.995117188 116.33203125 280.995117188 120.999023438 c 0
 277.662109375 122.999023438 258.329101562 151.666015625 222.99609375 206.999023438 c 0
 218.99609375 212.999023438 214.829101562 219.499023438 210.49609375 226.499023438 c 0
 206.163085938 233.499023438 202.49609375 239.33203125 199.49609375 243.999023438 c 0
 196.49609375 248.666015625 193.329101562 253.499023438 189.99609375 258.499023438 c 0
 186.663085938 263.499023438 183.830078125 267.666015625 181.497070312 270.999023438 c 0
 179.1640625 274.33203125 176.831054688 277.83203125 174.498046875 281.499023438 c 0
 172.165039062 285.166015625 170.33203125 287.999023438 168.999023438 289.999023438 c 0
 167.666015625 291.999023438 166.166015625 293.83203125 164.499023438 295.499023438 c 0
 162.83203125 297.166015625 161.499023438 298.333007812 160.499023438 299 c 0
 159.499023438 299.666992188 158.666015625 300 157.999023438 300 c 0
 154.666015625 300 152.999023438 288.333007812 152.999023438 265 c 2
 152.999023438 219 l 2
 152.999023438 175.666992188 152.499023438 149 151.499023438 139 c 0
 150.499023438 129 147.666015625 122.666992188 142.999023438 120 c 0
 134.999023438 116.666992188 120.33203125 115 98.9990234375 115 c 0
 74.33203125 115 59.9990234375 117 55.9990234375 121 c 0
 51.9990234375 125 49.9990234375 216.666992188 49.9990234375 396 c 0
 49.9990234375 524.666992188 50.33203125 602 50.9990234375 628 c 0
 51.666015625 654 54.3330078125 668.333007812 59 671 c 0
EndSplineSet
EndChar

StartChar: l
Encoding: 108 108 79
Width: 202
GlyphClass: 2
Flags: W
LayerCount: 2
Fore
SplineSet
59 671 m 0
 63.6669921875 673.666992188 76.998046875 675.001953125 98.998046875 675.001953125 c 0
 125.665039062 675.001953125 141.33203125 673.334960938 145.999023438 670.001953125 c 0
 148.666015625 666.001953125 150.666015625 574.668945312 151.999023438 396.001953125 c 2
 151.999023438 272.001953125 l 2
 151.999023438 176.001953125 149.33203125 125.668945312 143.999023438 121.001953125 c 0
 137.999023438 116.334960938 120.999023438 114.001953125 92.9990234375 114.001953125 c 0
 77.666015625 114.001953125 65.9990234375 115.334960938 57.9990234375 118.001953125 c 0
 54.666015625 119.334960938 52.4990234375 135.16796875 51.4990234375 165.500976562 c 0
 50.4990234375 195.833984375 49.9990234375 271.666992188 49.9990234375 393 c 0
 49.9990234375 523 50.33203125 601.166992188 50.9990234375 627.5 c 0
 51.666015625 653.833007812 54.3330078125 668.333007812 59 671 c 0
EndSplineSet
EndChar

StartChar: m
Encoding: 109 109 80
Width: 673
GlyphClass: 2
Flags: W
LayerCount: 2
Fore
SplineSet
207 499 m 0
 222.333007812 506.333007812 240.002929688 510 260.002929688 510 c 0
 304.002929688 510 336.3359375 494.666992188 357.002929688 464 c 2
 371.002929688 444 l 1
 399.002929688 470 l 2
 430.3359375 497.333007812 462.3359375 511 495.002929688 511 c 0
 496.3359375 511 498.502929688 510.833007812 501.502929688 510.5 c 0
 504.502929688 510.166992188 507.002929688 510 509.002929688 510 c 0
 570.3359375 504 606.3359375 467 617.002929688 399 c 0
 620.3359375 381 622.002929688 330.333007812 622.002929688 247 c 2
 622.002929688 201 l 2
 622.002929688 160.333007812 620.169921875 135.666015625 616.502929688 126.999023438 c 0
 612.8359375 118.33203125 602.3359375 113.999023438 585.002929688 113.999023438 c 2
 570.002929688 113.999023438 l 1
 559.002929688 113.999023438 l 2
 539.669921875 113.999023438 528.169921875 119.33203125 524.502929688 129.999023438 c 0
 520.8359375 140.666015625 518.668945312 173.999023438 518.001953125 229.999023438 c 2
 518.001953125 255.999023438 l 2
 516.668945312 319.33203125 515.501953125 357.499023438 514.501953125 370.499023438 c 0
 513.501953125 383.499023438 510.334960938 393.999023438 505.001953125 401.999023438 c 0
 494.334960938 416.666015625 480.001953125 423.999023438 462.001953125 423.999023438 c 0
 456.668945312 423.999023438 451.3359375 422.999023438 446.002929688 420.999023438 c 0
 438.669921875 418.33203125 426.669921875 409.33203125 410.002929688 393.999023438 c 2
 385.002929688 370.999023438 l 1
 385.002929688 248.999023438 l 2
 385.002929688 167.666015625 383.002929688 124.999023438 379.002929688 120.999023438 c 0
 375.002929688 116.999023438 357.669921875 114.999023438 327.002929688 114.999023438 c 0
 310.3359375 114.999023438 299.668945312 115.999023438 295.001953125 117.999023438 c 0
 289.668945312 119.999023438 287.001953125 155.666015625 287.001953125 224.999023438 c 0
 287.001953125 291.666015625 285.334960938 336.833007812 282.001953125 360.5 c 0
 278.668945312 384.166992188 271.668945312 400.666992188 261.001953125 410 c 0
 250.334960938 419.333007812 241.001953125 424 233.001953125 424 c 0
 211.001953125 424 189.668945312 412.666992188 169.001953125 390 c 2
 153.001953125 372 l 1
 153.001953125 248 l 1
 153.001953125 201 l 2
 153.001953125 159.666992188 151.168945312 134.833984375 147.501953125 126.500976562 c 0
 143.834960938 118.16796875 133.66796875 114.000976562 117.000976562 114.000976562 c 2
 102.000976562 114.000976562 l 1
 84.0009765625 114.000976562 l 2
 75.333984375 114.000976562 69.1669921875 114.833984375 65.5 116.500976562 c 0
 61.8330078125 118.16796875 58.5 123.66796875 55.5 133.000976562 c 0
 52.5 142.333984375 50.8330078125 154.500976562 50.5 169.500976562 c 0
 50.1669921875 184.500976562 50 207.66796875 50 239.000976562 c 2
 50 307.000976562 l 2
 50 428.333984375 52 491.000976562 56 495.000976562 c 0
 60 499.000976562 71.6669921875 501.000976562 91 501.000976562 c 0
 107.666992188 501.000976562 120 499.333984375 128 496.000976562 c 0
 134.666992188 492.000976562 138 483.000976562 138 469.000976562 c 2
 138 448.000976562 l 1
 159 468.000976562 l 2
 174.333007812 481.333984375 190.333007812 491.666992188 207 499 c 0
EndSplineSet
EndChar

StartChar: n
Encoding: 110 110 81
Width: 447
GlyphClass: 2
Flags: W
LayerCount: 2
Fore
SplineSet
212 501 m 0
 227.333007812 507 244.33203125 510.001953125 262.999023438 510.001953125 c 0
 305.666015625 510.001953125 337.333007812 498.001953125 358 474.001953125 c 0
 374 456.668945312 384.333007812 434.001953125 389 406.001953125 c 0
 393.666992188 378.001953125 396 325.334960938 396 248.001953125 c 2
 396 211.001953125 l 2
 396 164.334960938 394.333007812 136.501953125 391 127.501953125 c 0
 387.666992188 118.501953125 376.666992188 114.001953125 358 114.001953125 c 2
 344 114.001953125 l 1
 330 114.001953125 l 2
 312.666992188 114.001953125 302.166992188 118.001953125 298.5 126.001953125 c 0
 294.833007812 134.001953125 293 157.668945312 293 197.001953125 c 2
 293 242.001953125 l 2
 293 321.334960938 291.333007812 366.66796875 288 378.000976562 c 0
 284.666992188 390.000976562 277.5 400.66796875 266.5 410.000976562 c 0
 255.5 419.333984375 244.666992188 424.000976562 234 424.000976562 c 0
 224.666992188 424.000976562 212 419.333984375 196 410.000976562 c 0
 180 400.66796875 168.666992188 391.334960938 162 382.001953125 c 0
 156 373.334960938 153 328.334960938 153 247.001953125 c 0
 153 188.334960938 152.666992188 153.16796875 152 141.500976562 c 0
 151.333007812 129.833984375 148.666015625 122.666992188 143.999023438 120 c 0
 135.999023438 116.666992188 121.33203125 115 99.9990234375 115 c 0
 75.33203125 115 60.9990234375 117 56.9990234375 121 c 0
 52.33203125 125.666992188 49.9990234375 188 49.9990234375 308 c 0
 49.9990234375 428 52.33203125 490.333007812 56.9990234375 495 c 0
 60.9990234375 499 72.666015625 501 91.9990234375 501 c 0
 107.999023438 501 119.999023438 499.333007812 127.999023438 496 c 0
 134.666015625 492 137.999023438 483.333007812 137.999023438 470 c 2
 137.999023438 448 l 1
 161.999023438 470 l 2
 178.666015625 484 195.333007812 494.333007812 212 501 c 0
EndSplineSet
EndChar

StartChar: o
Encoding: 111 111 82
Width: 482
GlyphClass: 2
Flags: W
LayerCount: 2
Fore
SplineSet
283 435 m 0
 271 441 258.333984375 444.000976562 245.000976562 444.000976562 c 0
 185.000976562 442.66796875 155.000976562 403.000976562 155.000976562 325.000976562 c 0
 155.000976562 323.000976562 155.16796875 319.66796875 155.500976562 315.000976562 c 0
 155.833984375 310.333984375 156.000976562 307.000976562 156.000976562 305.000976562 c 0
 161.333984375 237.66796875 188.666992188 204.000976562 238 204.000976562 c 2
 246 204.000976562 l 1
 301.333007812 208.000976562 329 246.66796875 329 320.000976562 c 0
 329 331.333984375 328.666992188 340.333984375 328 347.000976562 c 0
 323.333007812 392.333984375 308.333007812 421.666992188 283 435 c 0
189.000976562 522.000976562 m 0
 197.000976562 524.000976562 213.001953125 525.002929688 237.001953125 525.002929688 c 2
 258.001953125 525.002929688 l 2
 290.001953125 524.3359375 317.001953125 519.002929688 339.001953125 509.002929688 c 0
 373.001953125 494.3359375 399.001953125 467.668945312 417.001953125 429.001953125 c 0
 423.001953125 416.334960938 426.668945312 404.66796875 428.001953125 394.000976562 c 0
 429.334960938 383.333984375 430.001953125 361.333984375 430.001953125 328.000976562 c 0
 430.001953125 294.000976562 429.334960938 272.000976562 428.001953125 262.000976562 c 0
 426.668945312 252.000976562 422.668945312 239.66796875 416.001953125 225.000976562 c 0
 396.668945312 184.333984375 367.3359375 155.000976562 328.002929688 137.000976562 c 0
 313.3359375 130.333984375 301.168945312 126.166992188 291.501953125 124.5 c 0
 281.834960938 122.833007812 263.66796875 122 237.000976562 122 c 0
 211.000976562 122 193.000976562 122.833007812 183.000976562 124.5 c 0
 173.000976562 126.166992188 161.66796875 130 149.000976562 136 c 0
 128.333984375 145.333007812 112.500976562 155.333007812 101.500976562 166 c 0
 90.5009765625 176.666992188 80.333984375 191.666992188 71.0009765625 211 c 0
 62.333984375 227.666992188 57.333984375 240.666992188 56.0009765625 250 c 0
 54.66796875 259.333007812 54.0009765625 282 54.0009765625 318 c 0
 54.0009765625 352 54.66796875 374 56.0009765625 384 c 0
 57.333984375 394 61.333984375 406.333007812 68.0009765625 421 c 0
 92.66796875 473.666992188 133.000976562 507.333984375 189.000976562 522.000976562 c 0
EndSplineSet
EndChar

StartChar: p
Encoding: 112 112 83
Width: 463
GlyphClass: 2
Flags: W
LayerCount: 2
Fore
SplineSet
277 426 m 0
 264.333007812 437.333007812 249.001953125 443 231.001953125 443 c 0
 222.334960938 443 215.334960938 441.666992188 210.001953125 439 c 0
 200.668945312 435 189.001953125 426 175.001953125 412 c 2
 153.001953125 391 l 1
 153.001953125 328 l 2
 153.668945312 300 154.668945312 282 156.001953125 274 c 0
 157.334960938 266 160.334960938 259 165.001953125 253 c 0
 174.334960938 241.666992188 185.66796875 232 199.000976562 224 c 0
 212.333984375 216 223.333984375 212 232.000976562 212 c 0
 253.333984375 212 270.666992188 222 284 242 c 0
 297.333007812 262 304.333007812 289 305 323 c 2
 305 330 l 2
 305 376.666992188 295.666992188 408.666992188 277 426 c 0
212.001953125 522 m 0
 228.001953125 528 245.333984375 531 264.000976562 531 c 0
 292.66796875 531 317.000976562 525 337.000976562 513 c 0
 360.333984375 498.333007812 377.666992188 478.5 389 453.5 c 0
 400.333007812 428.5 407 395 409 353 c 0
 409 350.333007812 409.166992188 346.333007812 409.5 341 c 0
 409.833007812 335.666992188 410 331.666992188 410 329 c 0
 410 268.333007812 397.833007812 220.333007812 373.5 185 c 0
 349.166992188 149.666992188 314.333984375 130 269.000976562 126 c 0
 267.000976562 126 264.333984375 125.833007812 261.000976562 125.5 c 0
 257.66796875 125.166992188 255.334960938 125 254.001953125 125 c 0
 226.668945312 125 200.668945312 134.666992188 176.001953125 154 c 2
 153.001953125 171 l 1
 153.001953125 -4 l 1
 140.001953125 -9 l 2
 133.334960938 -12.3330078125 119.334960938 -14 98.001953125 -14 c 0
 78.001953125 -14 65.3349609375 -12.3330078125 60.001953125 -9 c 0
 55.3349609375 -6.3330078125 52.501953125 7.6669921875 51.501953125 33 c 0
 50.501953125 58.3330078125 50.001953125 131.666015625 50.001953125 252.999023438 c 0
 50.001953125 423.666015625 52.001953125 510.999023438 56.001953125 514.999023438 c 0
 60.001953125 518.999023438 71.6689453125 520.999023438 91.001953125 520.999023438 c 0
 107.668945312 520.999023438 120.001953125 519.33203125 128.001953125 515.999023438 c 0
 134.668945312 511.999023438 138.001953125 503.33203125 138.001953125 489.999023438 c 2
 138.001953125 468.999023438 l 1
 161.001953125 489.999023438 l 2
 178.334960938 504.666015625 195.334960938 515.333007812 212.001953125 522 c 0
EndSplineSet
EndChar

StartChar: q
Encoding: 113 113 84
Width: 464
GlyphClass: 2
Flags: W
LayerCount: 2
Fore
SplineSet
271 409 m 0
 257 418.333007812 242.666992188 423 228 423 c 0
 204.666992188 423 185.666992188 408.666992188 171 380 c 0
 163 365.333007812 159 341.333007812 159 308 c 0
 159 274 163 249 171 233 c 0
 184.333007812 205.666992188 203 192 227 192 c 0
 241 192 255.666992188 197 271 207 c 0
 285 215.666992188 296.666992188 226.666992188 306 240 c 0
 312.666992188 252.666992188 316 267 316 283 c 0
 316 295 315.666992188 305.666992188 315 315 c 0
 313.666992188 347 311 367.5 307 376.5 c 0
 303 385.5 291 396.333007812 271 409 c 0
159 503 m 0
 172.333007812 508.333007812 187.666015625 510.997070312 204.999023438 510.997070312 c 0
 239.666015625 510.997070312 272.999023438 497.997070312 304.999023438 471.997070312 c 2
 326.999023438 453.997070312 l 1
 326.999023438 471.997070312 l 2
 326.999023438 483.330078125 330.166015625 490.997070312 336.499023438 494.997070312 c 0
 342.83203125 498.997070312 354.999023438 500.997070312 372.999023438 500.997070312 c 0
 375.666015625 500.997070312 378.999023438 501.1640625 382.999023438 501.497070312 c 0
 386.999023438 501.830078125 389.666015625 501.997070312 390.999023438 501.997070312 c 0
 396.999023438 501.997070312 401.33203125 500.997070312 403.999023438 498.997070312 c 0
 406.666015625 496.997070312 408.833007812 490.497070312 410.5 479.497070312 c 0
 412.166992188 468.497070312 413.166992188 454.997070312 413.5 438.997070312 c 0
 413.833007812 422.997070312 414 397.6640625 414 362.997070312 c 2
 414 234.997070312 l 1
 414 -24.0029296875 l 1
 404 -30.0029296875 l 2
 399.333007812 -32.669921875 386.666015625 -34.0029296875 365.999023438 -34.0029296875 c 0
 337.999023438 -34.0029296875 321.999023438 -32.0029296875 317.999023438 -28.0029296875 c 0
 316.666015625 -26.669921875 315.333007812 -0.669921875 314 49.9970703125 c 0
 312.666992188 100.6640625 312 131.997070312 312 143.997070312 c 0
 312 144.6640625 311.333007812 144.997070312 310 144.997070312 c 0
 306 144.997070312 297.666992188 140.6640625 285 131.997070312 c 0
 257.666992188 113.330078125 229 103.997070312 199 103.997070312 c 0
 185 103.997070312 170.333007812 105.997070312 155 109.997070312 c 0
 139 115.330078125 122.333007812 126.830078125 105 144.497070312 c 0
 87.6669921875 162.1640625 75.6669921875 180.331054688 69 198.998046875 c 0
 59 227.665039062 54 264.998046875 54 310.998046875 c 0
 54 332.998046875 55.3330078125 350.665039062 58 363.998046875 c 0
 64 396.665039062 76.3330078125 425.83203125 95 451.499023438 c 0
 113.666992188 477.166015625 135 494.333007812 159 503 c 0
EndSplineSet
EndChar

StartChar: r
Encoding: 114 114 85
Width: 334
GlyphClass: 2
Flags: W
LayerCount: 2
Fore
SplineSet
197 504 m 0
 204.333007812 508.666992188 216.333984375 510.999023438 233.000976562 510.999023438 c 0
 251.66796875 510.999023438 265.334960938 507.999023438 274.001953125 501.999023438 c 0
 279.334960938 496.666015625 282.001953125 481.666015625 282.001953125 456.999023438 c 0
 282.001953125 436.999023438 280.001953125 423.999023438 276.001953125 417.999023438 c 0
 272.001953125 413.999023438 267.668945312 411.999023438 263.001953125 411.999023438 c 0
 259.001953125 411.999023438 252.001953125 412.999023438 242.001953125 414.999023438 c 0
 232.001953125 416.999023438 225.001953125 417.999023438 221.001953125 417.999023438 c 0
 215.001953125 417.999023438 208.334960938 415.33203125 201.001953125 409.999023438 c 0
 190.334960938 401.999023438 180.001953125 391.33203125 170.001953125 377.999023438 c 2
 153.001953125 355.999023438 l 1
 153.001953125 240.999023438 l 1
 153.001953125 196.999023438 l 2
 153.001953125 157.666015625 151.001953125 133.999023438 147.001953125 125.999023438 c 0
 143.001953125 117.999023438 132.001953125 113.999023438 114.001953125 113.999023438 c 2
 102.001953125 113.999023438 l 1
 84.001953125 113.999023438 l 2
 75.3349609375 113.999023438 69.16796875 114.83203125 65.5009765625 116.499023438 c 0
 61.833984375 118.166015625 58.5009765625 123.666015625 55.5009765625 132.999023438 c 0
 52.5009765625 142.33203125 50.833984375 154.499023438 50.5009765625 169.499023438 c 0
 50.16796875 184.499023438 50.0009765625 207.666015625 50.0009765625 238.999023438 c 2
 50.0009765625 306.999023438 l 2
 50.0009765625 428.33203125 52.0009765625 490.999023438 56.0009765625 494.999023438 c 0
 60.0009765625 498.999023438 71.66796875 500.999023438 91.0009765625 500.999023438 c 0
 107.66796875 500.999023438 120.000976562 499.33203125 128.000976562 495.999023438 c 0
 134.66796875 491.999023438 138.000976562 482.999023438 138.000976562 468.999023438 c 2
 138.000976562 446.999023438 l 1
 160.000976562 471.999023438 l 2
 175.333984375 488.666015625 187.666992188 499.333007812 197 504 c 0
EndSplineSet
EndChar

StartChar: s
Encoding: 115 115 86
Width: 376
GlyphClass: 2
Flags: W
LayerCount: 2
Fore
SplineSet
136 502 m 0
 153.333007812 508 173.668945312 511.000976562 197.001953125 511.000976562 c 0
 217.668945312 511.000976562 237.001953125 508.66796875 255.001953125 504.000976562 c 0
 276.334960938 498.66796875 289.834960938 492.66796875 295.501953125 486.000976562 c 0
 301.168945312 479.333984375 304.001953125 467.000976562 304.001953125 449.000976562 c 0
 304.001953125 429.66796875 302.001953125 418.66796875 298.001953125 416.000976562 c 2
 297.001953125 416.000976562 l 2
 296.334960938 415.333984375 295.66796875 415.000976562 295.000976562 415.000976562 c 0
 286.333984375 415.000976562 276.666992188 418.000976562 266 424.000976562 c 0
 246 432.000976562 224 436.000976562 200 436.000976562 c 0
 180 436.000976562 166.666992188 433.000976562 160 427.000976562 c 0
 152.666992188 421.000976562 149 411.66796875 149 399.000976562 c 0
 149 389.000976562 152 381.333984375 158 376.000976562 c 0
 163.333007812 370.66796875 183 361.000976562 217 347.000976562 c 0
 250.333007812 333.66796875 273 322.66796875 285 314.000976562 c 0
 311 294.000976562 324 265.66796875 324 229.000976562 c 0
 324 199.66796875 314.333007812 173.66796875 295 151.000976562 c 0
 269.666992188 122.333984375 228.666992188 107.666992188 172 107 c 0
 116 107 79.3330078125 114.666992188 62 130 c 0
 54.6669921875 136.666992188 51 150.333984375 51 171.000976562 c 0
 51 194.333984375 54.6669921875 206.000976562 62 206.000976562 c 0
 66 206.000976562 76.6669921875 202.000976562 94 194.000976562 c 0
 114 184.66796875 137 179.66796875 163 179.000976562 c 0
 180.333007812 179.000976562 191.666015625 179.66796875 196.999023438 181.000976562 c 0
 202.33203125 182.333984375 207.999023438 186.333984375 213.999023438 193.000976562 c 0
 221.33203125 201.000976562 224.999023438 209.66796875 224.999023438 219.000976562 c 0
 224.999023438 238.333984375 208.666015625 254.000976562 175.999023438 266.000976562 c 0
 131.999023438 282.66796875 100.33203125 300.66796875 80.9990234375 320.000976562 c 0
 61.666015625 339.333984375 51.9990234375 363.000976562 51.9990234375 391.000976562 c 0
 51.9990234375 398.333984375 52.33203125 403.666992188 52.9990234375 407 c 0
 57.666015625 453 85.3330078125 484.666992188 136 502 c 0
EndSplineSet
EndChar

StartChar: t
Encoding: 116 116 87
Width: 358
GlyphClass: 2
Flags: W
LayerCount: 2
Fore
SplineSet
120 593 m 0
 126 597 141 599.000976562 165 599.000976562 c 0
 184.333007812 599.000976562 197.333007812 597.333984375 204 594.000976562 c 0
 210.666992188 590.000976562 214 573.66796875 214 545.000976562 c 2
 214 501.000976562 l 1
 254 501.000976562 l 2
 280.666992188 501.000976562 296 499.000976562 300 495.000976562 c 0
 304 491.000976562 306 480.000976562 306 462.000976562 c 0
 306 447.333984375 304.333007812 436.000976562 301 428.000976562 c 0
 297 422.000976562 281.666992188 419.000976562 255 419.000976562 c 2
 214 419.000976562 l 1
 214 212.000976562 l 1
 227 198.000976562 l 2
 233.666992188 191.333984375 240.666992188 188.000976562 248 188.000976562 c 0
 253.333007812 188.000976562 258 188.333984375 262 189.000976562 c 0
 278.666992188 192.333984375 289 194.000976562 293 194.000976562 c 0
 299 194.000976562 302.5 192.16796875 303.5 188.500976562 c 0
 304.5 184.833984375 305.333007812 176.000976562 306 162.000976562 c 2
 306 152.000976562 l 2
 306 136.000976562 302.833007812 125.16796875 296.5 119.500976562 c 0
 290.166992188 113.833984375 277.333984375 109.666992188 258.000976562 107 c 0
 243.333984375 105.666992188 232.666992188 105 226 105 c 0
 166.666992188 105 130 130.333007812 116 181 c 0
 112.666992188 192.333007812 111 235 111 309 c 2
 111 419 l 1
 89 419 l 2
 74.3330078125 419 64.8330078125 421.5 60.5 426.5 c 0
 56.1669921875 431.5 54 442 54 458 c 0
 54 478 55.5 490.166992188 58.5 494.5 c 0
 61.5 498.833007812 70.3330078125 501 85 501 c 2
 111 501 l 1
 111 545 l 2
 111 573.666992188 114 589.666992188 120 593 c 0
EndSplineSet
EndChar

StartChar: u
Encoding: 117 117 88
Width: 446
GlyphClass: 2
Flags: W
LayerCount: 2
Fore
SplineSet
60 501 m 0
 65.3330078125 504.333007812 79.00390625 506.001953125 101.00390625 506.001953125 c 0
 124.336914062 506.001953125 138.669921875 504.334960938 144.002929688 501.001953125 c 0
 148.669921875 498.334960938 151.502929688 491.001953125 152.502929688 479.001953125 c 0
 153.502929688 467.001953125 154.002929688 434.334960938 154.002929688 381.001953125 c 0
 154.002929688 303.001953125 155.669921875 258.001953125 159.002929688 246.001953125 c 0
 162.3359375 232.668945312 169.168945312 221.168945312 179.501953125 211.501953125 c 0
 189.834960938 201.834960938 200.334960938 197.001953125 211.001953125 197.001953125 c 0
 228.334960938 197.001953125 248.66796875 207.668945312 272.000976562 229.001953125 c 2
 293.000976562 251.001953125 l 1
 293.000976562 373.001953125 l 1
 293.000976562 410.001953125 l 2
 293.000976562 455.334960938 294.833984375 482.66796875 298.500976562 492.000976562 c 0
 302.16796875 501.333984375 312.66796875 506.000976562 330.000976562 506.000976562 c 2
 345.000976562 506.000976562 l 1
 365.000976562 506.000976562 l 2
 379.66796875 506.000976562 388.500976562 500.16796875 391.500976562 488.500976562 c 0
 394.500976562 476.833984375 396.000976562 444.666992188 396.000976562 392 c 2
 396.000976562 311 l 1
 396.000976562 231 l 2
 396.000976562 179.666992188 394.66796875 148.333984375 392.000976562 137.000976562 c 0
 389.333984375 125.66796875 382.333984375 120.000976562 371.000976562 120.000976562 c 2
 355.000976562 120.000976562 l 2
 336.333984375 120.000976562 324.000976562 122.000976562 318.000976562 126.000976562 c 0
 312.000976562 130.000976562 309.000976562 138.333984375 309.000976562 151.000976562 c 2
 309.000976562 172.000976562 l 1
 285.000976562 152.000976562 l 2
 255.000976562 127.333984375 225.000976562 113.666992188 195.000976562 111 c 2
 184.000976562 111 l 2
 167.333984375 111 150.166992188 113.5 132.5 118.5 c 0
 114.833007812 123.5 101.666015625 129.666992188 92.9990234375 137 c 0
 75.666015625 152.333007812 64.3330078125 175.5 59 206.5 c 0
 53.6669921875 237.5 51 294 51 376 c 0
 51 430 51.5 463.666992188 52.5 477 c 0
 53.5 490.333007812 56 498.333007812 60 501 c 0
EndSplineSet
EndChar

StartChar: v
Encoding: 118 118 89
Width: 477
GlyphClass: 2
Flags: W
LayerCount: 2
Fore
SplineSet
61 503 m 0
 65.6669921875 505 76.3359375 506 93.0029296875 506 c 0
 124.3359375 506 142.668945312 504 148.001953125 500 c 0
 153.334960938 496 167.66796875 457.666992188 191.000976562 385 c 0
 223.66796875 281 240.66796875 229 242.000976562 229 c 2
 243.000976562 229 l 2
 243.66796875 229.666992188 258.000976562 274 286.000976562 362 c 0
 314.000976562 450 330.66796875 496 336.000976562 500 c 0
 342.000976562 504 359.000976562 506 387.000976562 506 c 0
 402.333984375 506 412.333984375 505 417.000976562 503 c 0
 422.333984375 501 425.000976562 494.666992188 425.000976562 484 c 0
 425.000976562 474 405.333984375 412 366.000976562 298 c 0
 326.66796875 184.666992188 304.000976562 126.666992188 298.000976562 124 c 0
 290.000976562 121.333007812 270.333984375 120 239.000976562 120 c 2
 222.000976562 120 l 2
 199.333984375 120 184.666992188 123 178 129 c 0
 172 134.333007812 149.833007812 192 111.5 302 c 0
 73.1669921875 412 54 473.333007812 54 486 c 0
 54 496 56.3330078125 501.666992188 61 503 c 0
EndSplineSet
EndChar

StartChar: w
Encoding: 119 119 90
Width: 688
GlyphClass: 2
Flags: W
LayerCount: 2
Fore
SplineSet
61 497 m 0
 65.6669921875 499.666992188 77.6689453125 501.001953125 97.001953125 501.001953125 c 0
 124.334960938 501.001953125 141.334960938 499.001953125 148.001953125 495.001953125 c 0
 152.668945312 491.001953125 167.001953125 446.668945312 191.001953125 362.001953125 c 0
 213.668945312 278.001953125 225.668945312 235.334960938 227.001953125 234.001953125 c 0
 227.001953125 233.334960938 227.334960938 233.001953125 228.001953125 233.001953125 c 0
 231.334960938 233.001953125 243.66796875 276.001953125 265.000976562 362.001953125 c 0
 286.333984375 446.668945312 300.000976562 491.001953125 306.000976562 495.001953125 c 0
 311.333984375 499.001953125 326.333984375 501.001953125 351.000976562 501.001953125 c 0
 371.000976562 501.001953125 383.66796875 499.334960938 389.000976562 496.001953125 c 0
 393.000976562 493.334960938 415.66796875 417.001953125 457.000976562 267.001953125 c 0
 463.000976562 244.334960938 467.66796875 233.001953125 471.000976562 233.001953125 c 0
 471.66796875 233.001953125 472.000976562 233.334960938 472.000976562 234.001953125 c 0
 473.333984375 236.001953125 485.333984375 279.334960938 508.000976562 364.001953125 c 0
 529.333984375 448.001953125 542.666992188 491.668945312 548 495.001953125 c 0
 553.333007812 499.001953125 570 501.001953125 598 501.001953125 c 0
 612.666992188 501.001953125 622.666992188 500.001953125 628 498.001953125 c 0
 633.333007812 496.001953125 636 490.668945312 636 482.001953125 c 0
 636 474.001953125 619.666992188 413.668945312 587 301.001953125 c 0
 553 188.334960938 533 129.001953125 527 123.001953125 c 0
 518.333007812 116.334960938 500 113.001953125 472 113.001953125 c 0
 443.333007812 113.001953125 424.666015625 116.334960938 415.999023438 123.001953125 c 0
 411.33203125 127.001953125 403.499023438 147.501953125 392.499023438 184.501953125 c 0
 381.499023438 221.501953125 370.999023438 257.168945312 360.999023438 291.501953125 c 0
 350.999023438 325.834960938 344.999023438 343.001953125 342.999023438 343.001953125 c 0
 341.666015625 343.001953125 331.333007812 306.334960938 312 233.001953125 c 0
 294 162.334960938 282.333007812 125.001953125 277 121.001953125 c 0
 269.666992188 116.334960938 251.333984375 114.001953125 222.000976562 114.001953125 c 0
 191.333984375 114.001953125 172.666992188 116.334960938 166 121.001953125 c 0
 161.333007812 124.334960938 141.5 182.66796875 106.5 296.000976562 c 0
 71.5 409.333984375 54 471.666992188 54 483 c 0
 54 491 56.3330078125 495.666992188 61 497 c 0
EndSplineSet
EndChar

StartChar: x
Encoding: 120 120 91
Width: 454
GlyphClass: 2
Flags: W
LayerCount: 2
Fore
SplineSet
63 497 m 0
 67 499.666992188 83.3330078125 501.001953125 112 501.001953125 c 2
 125 501.001953125 l 2
 143.666992188 501.001953125 156.333984375 498.001953125 163.000976562 492.001953125 c 0
 169.66796875 486.001953125 179.334960938 470.001953125 192.001953125 444.001953125 c 0
 208.001953125 412.668945312 218.001953125 394.3359375 222.001953125 389.002929688 c 2
 233.001953125 372.002929688 l 1
 244.001953125 391.002929688 l 2
 279.334960938 457.669921875 300.001953125 493.002929688 306.001953125 497.002929688 c 0
 309.334960938 499.669921875 323.66796875 501.002929688 349.000976562 501.002929688 c 0
 369.66796875 501.002929688 382.66796875 500.002929688 388.000976562 498.002929688 c 0
 393.333984375 496.002929688 396.000976562 493.3359375 396.000976562 490.002929688 c 0
 396.000976562 484.669921875 380.66796875 455.336914062 350.000976562 402.00390625 c 0
 319.333984375 346.670898438 304.000976562 317.670898438 304.000976562 315.00390625 c 0
 304.000976562 311.670898438 320.333984375 281.00390625 353.000976562 223.00390625 c 0
 385.66796875 165.00390625 402.000976562 133.336914062 402.000976562 128.00390625 c 0
 402.000976562 124.00390625 399.000976562 120.670898438 393.000976562 118.00390625 c 0
 388.333984375 116.00390625 373.333984375 115.00390625 348.000976562 115.00390625 c 0
 322.66796875 115.00390625 307.334960938 116.00390625 302.001953125 118.00390625 c 0
 296.001953125 121.336914062 281.668945312 143.669921875 259.001953125 185.002929688 c 0
 236.334960938 227.002929688 223.66796875 248.002929688 221.000976562 248.002929688 c 0
 218.333984375 248.002929688 206.333984375 227.669921875 185.000976562 187.002929688 c 0
 163.66796875 145.669921875 149.66796875 123.002929688 143.000976562 119.002929688 c 0
 136.333984375 116.3359375 123.666992188 115.002929688 105 115.002929688 c 2
 93 115.002929688 l 2
 65.6669921875 117.002929688 52 120.669921875 52 126.002929688 c 0
 52 134.002929688 67.6669921875 165.669921875 99 221.002929688 c 0
 132.333007812 279.002929688 149 309.3359375 149 312.002929688 c 0
 149 317.3359375 137.666992188 339.002929688 115 377.002929688 c 0
 93 414.3359375 82 434.668945312 82 438.001953125 c 0
 82 439.334960938 77.6669921875 446.66796875 69 460.000976562 c 0
 61 473.333984375 57 482.666992188 57 488 c 0
 57 492 59 495 63 497 c 0
EndSplineSet
EndChar

StartChar: y
Encoding: 121 121 92
Width: 477
GlyphClass: 2
Flags: W
LayerCount: 2
Fore
SplineSet
54 480 m 0
 54 489.333007812 58.4990234375 495.16796875 67.4990234375 497.500976562 c 0
 76.4990234375 499.833984375 90.33203125 501.000976562 108.999023438 501.000976562 c 0
 125.666015625 501.000976562 136.499023438 500.333984375 141.499023438 499.000976562 c 0
 146.499023438 497.66796875 150.666015625 494.66796875 153.999023438 490.000976562 c 0
 156.666015625 486.000976562 171.499023438 446.500976562 198.499023438 371.500976562 c 0
 225.499023438 296.500976562 239.999023438 257.333984375 241.999023438 254.000976562 c 0
 242.666015625 251.333984375 243.999023438 250.000976562 245.999023438 250.000976562 c 0
 249.33203125 250.000976562 260.665039062 280.66796875 279.998046875 342.000976562 c 0
 300.665039062 405.333984375 313.33203125 444.666992188 317.999023438 460 c 0
 323.33203125 478.666992188 328.999023438 490.166992188 334.999023438 494.5 c 0
 340.999023438 498.833007812 353.33203125 501 371.999023438 501 c 0
 407.33203125 501 424.999023438 493.666992188 424.999023438 479 c 0
 424.999023438 469.666992188 372.999023438 313.666992188 268.999023438 11 c 0
 261.666015625 -10.3330078125 253.666015625 -23.3330078125 244.999023438 -28 c 0
 234.33203125 -32.6669921875 218.665039062 -35 197.998046875 -35 c 0
 176.665039062 -35 162.33203125 -32.6669921875 154.999023438 -28 c 0
 150.999023438 -24.6669921875 148.999023438 -21.6669921875 148.999023438 -19 c 0
 148.999023438 -15 153.33203125 -1.3330078125 161.999023438 22 c 0
 174.666015625 55.3330078125 182.999023438 77 186.999023438 87 c 0
 190.999023438 95.6669921875 192.999023438 102.333984375 192.999023438 107.000976562 c 0
 192.999023438 110.333984375 190.666015625 116.666992188 185.999023438 126 c 0
 178.666015625 140.666992188 154.833007812 202 114.5 310 c 0
 74.1669921875 418 54 474.666992188 54 480 c 0
EndSplineSet
EndChar

StartChar: z
Encoding: 122 122 93
Width: 381
GlyphClass: 2
Flags: W
LayerCount: 2
Fore
SplineSet
65 497 m 0
 67.6669921875 499.666992188 100.333984375 500.998046875 163.000976562 500.998046875 c 0
 259.000976562 500.998046875 309.000976562 498.998046875 313.000976562 494.998046875 c 0
 317.000976562 490.998046875 319.000976562 479.331054688 319.000976562 459.998046875 c 0
 319.000976562 443.331054688 314.16796875 425.998046875 304.500976562 407.998046875 c 0
 294.833984375 389.998046875 266.666992188 345.331054688 220 273.998046875 c 2
 172 198.998046875 l 1
 244 197.998046875 l 2
 286 196.665039062 310.833007812 194.33203125 318.5 190.999023438 c 0
 326.166992188 187.666015625 330 176.333007812 330 157 c 2
 330 148 l 2
 330 131.333007812 324.5 121.5 313.5 118.5 c 0
 302.5 115.5 268.333007812 114 211 114 c 2
 193 114 l 1
 67 114 l 1
 59 127 l 2
 54.3330078125 133.666992188 52 141.666992188 52 151 c 0
 52 157 52.3330078125 162 53 166 c 0
 54.3330078125 177.333007812 59.5 191.166015625 68.5 207.499023438 c 0
 77.5 223.83203125 97 255.33203125 127 301.999023438 c 0
 137 317.33203125 148.666992188 334.999023438 162 354.999023438 c 0
 175.333007812 374.999023438 185 389.666015625 191 398.999023438 c 0
 197 408.33203125 200 413.33203125 200 413.999023438 c 0
 200 417.33203125 179.333007812 418.999023438 138 418.999023438 c 0
 95.3330078125 418.999023438 72 420.999023438 68 424.999023438 c 0
 63.3330078125 429.666015625 61 444.999023438 61 470.999023438 c 0
 61 485.666015625 62.3330078125 494.333007812 65 497 c 0
EndSplineSet
EndChar

StartChar: braceleft
Encoding: 123 123 94
Width: 346
GlyphClass: 2
Flags: W
LayerCount: 2
Fore
SplineSet
184 685 m 0
 198.666992188 693 217.668945312 697.000976562 241.001953125 697.000976562 c 0
 252.334960938 697.000976562 263.001953125 695.333984375 273.001953125 692.000976562 c 0
 284.334960938 688.000976562 290.001953125 676.66796875 290.001953125 658.000976562 c 0
 290.001953125 650.000976562 289.334960938 643.66796875 288.001953125 639.000976562 c 0
 286.668945312 631.000976562 284.668945312 625.833984375 282.001953125 623.500976562 c 0
 279.334960938 621.16796875 272.66796875 619.334960938 262.000976562 618.001953125 c 0
 246.66796875 615.334960938 237.334960938 612.334960938 234.001953125 609.001953125 c 0
 229.334960938 604.334960938 226.001953125 574.334960938 224.001953125 519.001953125 c 0
 222.001953125 461.668945312 216.668945312 423.668945312 208.001953125 405.001953125 c 0
 199.334960938 385.001953125 187.001953125 370.334960938 171.001953125 361.001953125 c 2
 148.001953125 346.001953125 l 1
 165.001953125 337.001953125 l 2
 187.001953125 327.001953125 203.668945312 307.001953125 215.001953125 277.001953125 c 0
 218.334960938 268.334960938 221.334960938 231.66796875 224.001953125 167.000976562 c 0
 226.001953125 115.000976562 228.668945312 84.0009765625 232.001953125 74.0009765625 c 0
 235.334960938 64.0009765625 245.334960938 59.0009765625 262.001953125 59.0009765625 c 0
 272.668945312 59.0009765625 279.8359375 57.0009765625 283.502929688 53.0009765625 c 0
 287.169921875 49.0009765625 289.002929688 40.0009765625 289.002929688 26.0009765625 c 2
 289.002929688 18.0009765625 l 2
 288.3359375 3.333984375 284.668945312 -6.4990234375 278.001953125 -11.4990234375 c 0
 271.334960938 -16.4990234375 258.001953125 -18.9990234375 238.001953125 -18.9990234375 c 0
 186.001953125 -18.33203125 152.334960938 4.3349609375 137.001953125 49.001953125 c 0
 134.334960938 55.001953125 131.66796875 89.501953125 129.000976562 152.501953125 c 0
 126.333984375 215.501953125 124.333984375 249.334960938 123.000976562 254.001953125 c 0
 121.66796875 265.334960938 116.500976562 276.16796875 107.500976562 286.500976562 c 0
 98.5009765625 296.833984375 89.333984375 303.000976562 80.0009765625 305.000976562 c 0
 62.66796875 308.333984375 54.0009765625 322.000976562 54.0009765625 346.000976562 c 0
 54.0009765625 359.333984375 55.66796875 368.833984375 59.0009765625 374.500976562 c 0
 62.333984375 380.16796875 70.333984375 385.66796875 83.0009765625 391.000976562 c 0
 101.000976562 399.000976562 112.66796875 411.000976562 118.000976562 427.000976562 c 0
 123.333984375 443.000976562 126.666992188 477.000976562 128 529.000976562 c 0
 128.666992188 569.000976562 129.833984375 594.500976562 131.500976562 605.500976562 c 0
 133.16796875 616.500976562 137.66796875 629.000976562 145.000976562 643.000976562 c 0
 151.000976562 655.000976562 156.66796875 663.66796875 162.000976562 669.000976562 c 0
 167.333984375 674.333984375 174.666992188 679.666992188 184 685 c 0
EndSplineSet
EndChar

StartChar: bar
Encoding: 124 124 95
Width: 198
GlyphClass: 2
Flags: W
LayerCount: 2
Fore
SplineSet
57 701 m 0
 61 705 74.6669921875 706.999023438 98 706.999023438 c 0
 113.333007812 706.999023438 123.5 706.166015625 128.5 704.499023438 c 0
 133.5 702.83203125 137.666992188 699.33203125 141 693.999023438 c 0
 145.666992188 687.999023438 148 620.666015625 148 491.999023438 c 2
 148 331.999023438 l 2
 146.666992188 97.9990234375 144.666992188 -20.0009765625 142 -22.0009765625 c 0
 136 -28.0009765625 114.666992188 -31.0009765625 78 -31.0009765625 c 0
 66 -31.0009765625 59 -30.0009765625 57 -28.0009765625 c 0
 52.3330078125 -23.333984375 50 97.9990234375 50 335.999023438 c 0
 50 574.666015625 52.3330078125 696.333007812 57 701 c 0
EndSplineSet
EndChar

